M48
; DRILL file {KiCad (5.1.7)-1} date 11/24/20 11:47:18
; FORMAT={-:-/ absolute / metric / decimal}
; #@! TF.CreationDate,2020-11-24T11:47:18-03:00
; #@! TF.GenerationSoftware,Kicad,Pcbnew,(5.1.7)-1
; #@! TF.FileFunction,Plated,1,4,PTH
FMAT,2
METRIC
T1C0.400
T2C0.750
%
G90
G05
T1
X4.3Y3.9
X4.3Y1.9
X8.3Y3.9
X8.3Y1.9
X12.3Y3.9
X12.3Y1.9
X16.3Y3.9
X16.3Y1.9
X20.3Y3.9
X20.3Y1.9
X24.3Y3.9
X24.3Y1.9
X66.2Y3.9
X66.2Y1.9
X70.2Y3.9
X70.2Y1.9
X74.2Y3.9
X74.2Y1.9
X78.2Y3.9
X78.2Y1.9
X82.2Y3.9
X82.2Y1.9
X86.2Y3.9
X86.2Y1.9
X145.7Y3.9
X145.7Y1.9
X149.7Y3.9
X149.7Y1.9
X153.7Y3.9
X153.7Y1.9
X157.7Y3.9
X157.7Y1.9
X161.7Y3.9
X161.7Y1.9
T2
X12.9Y24.0
X14.7Y24.0
X12.9Y19.5
X14.7Y19.5
X12.9Y8.9
X12.9Y7.1
X14.7Y8.9
X14.7Y7.1
X12.9Y14.9
X12.9Y13.1
X14.7Y14.9
X14.7Y13.1
T0
M30
