G04 #@! TF.GenerationSoftware,KiCad,Pcbnew,(5.1.7)-1*
G04 #@! TF.CreationDate,2020-11-24T11:46:51-03:00*
G04 #@! TF.ProjectId,cupon,6375706f-6e2e-46b6-9963-61645f706362,Revision: 2.0*
G04 #@! TF.SameCoordinates,Original*
G04 #@! TF.FileFunction,Soldermask,Bot*
G04 #@! TF.FilePolarity,Negative*
%FSLAX46Y46*%
G04 Gerber Fmt 4.6, Leading zero omitted, Abs format (unit mm)*
G04 Created by KiCad (PCBNEW (5.1.7)-1) date 2020-11-24 11:46:51*
%MOMM*%
%LPD*%
G01*
G04 APERTURE LIST*
%ADD10C,1.200000*%
G04 APERTURE END LIST*
D10*
X14700000Y7100000D03*
G36*
G01*
X12300000Y6550000D02*
X12300000Y7650000D01*
G75*
G02*
X12350000Y7700000I50000J0D01*
G01*
X13450000Y7700000D01*
G75*
G02*
X13500000Y7650000I0J-50000D01*
G01*
X13500000Y6550000D01*
G75*
G02*
X13450000Y6500000I-50000J0D01*
G01*
X12350000Y6500000D01*
G75*
G02*
X12300000Y6550000I0J50000D01*
G01*
G37*
G36*
G01*
X12300000Y8350000D02*
X12300000Y9450000D01*
G75*
G02*
X12350000Y9500000I50000J0D01*
G01*
X13450000Y9500000D01*
G75*
G02*
X13500000Y9450000I0J-50000D01*
G01*
X13500000Y8350000D01*
G75*
G02*
X13450000Y8300000I-50000J0D01*
G01*
X12350000Y8300000D01*
G75*
G02*
X12300000Y8350000I0J50000D01*
G01*
G37*
X14700000Y8900000D03*
X14700000Y13100000D03*
G36*
G01*
X12300000Y12550000D02*
X12300000Y13650000D01*
G75*
G02*
X12350000Y13700000I50000J0D01*
G01*
X13450000Y13700000D01*
G75*
G02*
X13500000Y13650000I0J-50000D01*
G01*
X13500000Y12550000D01*
G75*
G02*
X13450000Y12500000I-50000J0D01*
G01*
X12350000Y12500000D01*
G75*
G02*
X12300000Y12550000I0J50000D01*
G01*
G37*
G36*
G01*
X12300000Y14350000D02*
X12300000Y15450000D01*
G75*
G02*
X12350000Y15500000I50000J0D01*
G01*
X13450000Y15500000D01*
G75*
G02*
X13500000Y15450000I0J-50000D01*
G01*
X13500000Y14350000D01*
G75*
G02*
X13450000Y14300000I-50000J0D01*
G01*
X12350000Y14300000D01*
G75*
G02*
X12300000Y14350000I0J50000D01*
G01*
G37*
X14700000Y14900000D03*
G36*
G01*
X12300000Y23450000D02*
X12300000Y24550000D01*
G75*
G02*
X12350000Y24600000I50000J0D01*
G01*
X13450000Y24600000D01*
G75*
G02*
X13500000Y24550000I0J-50000D01*
G01*
X13500000Y23450000D01*
G75*
G02*
X13450000Y23400000I-50000J0D01*
G01*
X12350000Y23400000D01*
G75*
G02*
X12300000Y23450000I0J50000D01*
G01*
G37*
X14700000Y24000000D03*
X14700000Y19500000D03*
G36*
G01*
X12300000Y18950000D02*
X12300000Y20050000D01*
G75*
G02*
X12350000Y20100000I50000J0D01*
G01*
X13450000Y20100000D01*
G75*
G02*
X13500000Y20050000I0J-50000D01*
G01*
X13500000Y18950000D01*
G75*
G02*
X13450000Y18900000I-50000J0D01*
G01*
X12350000Y18900000D01*
G75*
G02*
X12300000Y18950000I0J50000D01*
G01*
G37*
M02*
