G04 #@! TF.GenerationSoftware,KiCad,Pcbnew,(5.1.7)-1*
G04 #@! TF.CreationDate,2020-11-24T11:46:51-03:00*
G04 #@! TF.ProjectId,cupon,6375706f-6e2e-46b6-9963-61645f706362,Revision: 2.0*
G04 #@! TF.SameCoordinates,Original*
G04 #@! TF.FileFunction,Copper,L2,Inr*
G04 #@! TF.FilePolarity,Positive*
%FSLAX46Y46*%
G04 Gerber Fmt 4.6, Leading zero omitted, Abs format (unit mm)*
G04 Created by KiCad (PCBNEW (5.1.7)-1) date 2020-11-24 11:46:51*
%MOMM*%
%LPD*%
G01*
G04 APERTURE LIST*
G04 #@! TA.AperFunction,NonConductor*
%ADD10C,0.300000*%
G04 #@! TD*
G04 #@! TA.AperFunction,ComponentPad*
%ADD11C,1.100000*%
G04 #@! TD*
G04 #@! TA.AperFunction,ComponentPad*
%ADD12R,1.100000X1.100000*%
G04 #@! TD*
G04 #@! TA.AperFunction,ViaPad*
%ADD13C,0.800000*%
G04 #@! TD*
G04 #@! TA.AperFunction,Conductor*
%ADD14C,0.254000*%
G04 #@! TD*
G04 #@! TA.AperFunction,Conductor*
%ADD15C,0.150000*%
G04 #@! TD*
G04 #@! TA.AperFunction,NonConductor*
%ADD16C,0.254000*%
G04 #@! TD*
G04 #@! TA.AperFunction,NonConductor*
%ADD17C,0.150000*%
G04 #@! TD*
G04 APERTURE END LIST*
D10*
X30071428Y3404761D02*
X30142857Y3500000D01*
X30285714Y3595238D01*
X30642857Y3595238D01*
X30785714Y3500000D01*
X30857142Y3404761D01*
X30928571Y3214285D01*
X30928571Y3023809D01*
X30857142Y2738095D01*
X30000000Y1595238D01*
X30928571Y1595238D01*
D11*
X14700000Y7100000D03*
D12*
X12900000Y7100000D03*
X12900000Y8900000D03*
D11*
X14700000Y8900000D03*
X14700000Y13100000D03*
D12*
X12900000Y13100000D03*
X12900000Y14900000D03*
D11*
X14700000Y14900000D03*
D12*
X12900000Y24000000D03*
D11*
X14700000Y24000000D03*
X14700000Y19500000D03*
D12*
X12900000Y19500000D03*
D13*
X4300000Y3900000D03*
X4300000Y1900000D03*
X8300000Y3900000D03*
X8300000Y1900000D03*
X12300000Y3900000D03*
X12300000Y1900000D03*
X16300000Y3900000D03*
X20300000Y1900000D03*
X20300000Y3900000D03*
X16300000Y1900000D03*
X24300000Y3900000D03*
X24300000Y1900000D03*
X66200000Y3900000D03*
X66200000Y1900000D03*
X70200000Y3900000D03*
X74200000Y1900000D03*
X74200000Y3900000D03*
X70200000Y1900000D03*
X86200000Y1900000D03*
X82200000Y3900000D03*
X82200000Y1900000D03*
X78200000Y3900000D03*
X78200000Y1900000D03*
X86200000Y3900000D03*
X157700000Y1900000D03*
X145700000Y1900000D03*
X149700000Y1900000D03*
X149700000Y3900000D03*
X161700000Y1900000D03*
X161700000Y3900000D03*
X157700000Y3900000D03*
X145700000Y3900000D03*
X153700000Y3900000D03*
X153700000Y1900000D03*
D14*
X164873000Y1127000D02*
X62627000Y1127000D01*
X62627000Y2500000D01*
X62624560Y2524776D01*
X62617333Y2548601D01*
X62605597Y2570557D01*
X62589803Y2589803D01*
X62570557Y2605597D01*
X62548601Y2617333D01*
X62524776Y2624560D01*
X62500000Y2627000D01*
X36000000Y2627000D01*
X35975224Y2624560D01*
X35951399Y2617333D01*
X35929443Y2605597D01*
X35910197Y2589803D01*
X35894403Y2570557D01*
X35882667Y2548601D01*
X35875440Y2524776D01*
X35873000Y2500000D01*
X35873000Y1127000D01*
X34627000Y1127000D01*
X34627000Y4500000D01*
X34624560Y4524776D01*
X34617333Y4548601D01*
X34605597Y4570557D01*
X34589803Y4589803D01*
X34570557Y4605597D01*
X34548601Y4617333D01*
X34524776Y4624560D01*
X34500000Y4627000D01*
X28000000Y4627000D01*
X27975224Y4624560D01*
X27951399Y4617333D01*
X27929443Y4605597D01*
X27910197Y4589803D01*
X27894403Y4570557D01*
X27882667Y4548601D01*
X27875440Y4524776D01*
X27873000Y4500000D01*
X27873000Y1127000D01*
X1127000Y1127000D01*
X1127000Y6550000D01*
X11711928Y6550000D01*
X11724188Y6425518D01*
X11760498Y6305820D01*
X11819463Y6195506D01*
X11898815Y6098815D01*
X11995506Y6019463D01*
X12105820Y5960498D01*
X12225518Y5924188D01*
X12350000Y5911928D01*
X12614250Y5915000D01*
X12773000Y6073750D01*
X12773000Y6973000D01*
X11873750Y6973000D01*
X11715000Y6814250D01*
X11711928Y6550000D01*
X1127000Y6550000D01*
X1127000Y8350000D01*
X11711928Y8350000D01*
X11724188Y8225518D01*
X11760498Y8105820D01*
X11817061Y8000000D01*
X11760498Y7894180D01*
X11724188Y7774482D01*
X11711928Y7650000D01*
X11715000Y7385750D01*
X11873750Y7227000D01*
X12773000Y7227000D01*
X12773000Y8773000D01*
X11873750Y8773000D01*
X11715000Y8614250D01*
X11711928Y8350000D01*
X1127000Y8350000D01*
X1127000Y9450000D01*
X11711928Y9450000D01*
X11715000Y9185750D01*
X11873750Y9027000D01*
X12773000Y9027000D01*
X12773000Y9926250D01*
X13027000Y9926250D01*
X13027000Y9027000D01*
X13047000Y9027000D01*
X13047000Y8773000D01*
X13027000Y8773000D01*
X13027000Y7227000D01*
X13047000Y7227000D01*
X13047000Y6973000D01*
X13027000Y6973000D01*
X13027000Y6073750D01*
X13185750Y5915000D01*
X13450000Y5911928D01*
X13574482Y5924188D01*
X13694180Y5960498D01*
X13804494Y6019463D01*
X13901185Y6098815D01*
X13980537Y6195506D01*
X14039502Y6305820D01*
X14075812Y6425518D01*
X14081048Y6478687D01*
X14140945Y6418790D01*
X14284585Y6322813D01*
X14444189Y6256703D01*
X14613623Y6223000D01*
X14786377Y6223000D01*
X14955811Y6256703D01*
X15115415Y6322813D01*
X15259055Y6418790D01*
X15381210Y6540945D01*
X15477187Y6684585D01*
X15543297Y6844189D01*
X15577000Y7013623D01*
X15577000Y7186377D01*
X15543297Y7355811D01*
X15477187Y7515415D01*
X15381210Y7659055D01*
X15259055Y7781210D01*
X15115415Y7877187D01*
X14955811Y7943297D01*
X14786377Y7977000D01*
X14613623Y7977000D01*
X14444189Y7943297D01*
X14284585Y7877187D01*
X14140945Y7781210D01*
X14081048Y7721313D01*
X14075812Y7774482D01*
X14039502Y7894180D01*
X13982939Y8000000D01*
X14039502Y8105820D01*
X14075812Y8225518D01*
X14081048Y8278687D01*
X14140945Y8218790D01*
X14284585Y8122813D01*
X14444189Y8056703D01*
X14613623Y8023000D01*
X14786377Y8023000D01*
X14955811Y8056703D01*
X15115415Y8122813D01*
X15259055Y8218790D01*
X15381210Y8340945D01*
X15477187Y8484585D01*
X15543297Y8644189D01*
X15577000Y8813623D01*
X15577000Y8986377D01*
X15543297Y9155811D01*
X15477187Y9315415D01*
X15381210Y9459055D01*
X15259055Y9581210D01*
X15115415Y9677187D01*
X14955811Y9743297D01*
X14786377Y9777000D01*
X14613623Y9777000D01*
X14444189Y9743297D01*
X14284585Y9677187D01*
X14140945Y9581210D01*
X14081048Y9521313D01*
X14075812Y9574482D01*
X14039502Y9694180D01*
X13980537Y9804494D01*
X13901185Y9901185D01*
X13804494Y9980537D01*
X13694180Y10039502D01*
X13574482Y10075812D01*
X13450000Y10088072D01*
X13185750Y10085000D01*
X13027000Y9926250D01*
X12773000Y9926250D01*
X12614250Y10085000D01*
X12350000Y10088072D01*
X12225518Y10075812D01*
X12105820Y10039502D01*
X11995506Y9980537D01*
X11898815Y9901185D01*
X11819463Y9804494D01*
X11760498Y9694180D01*
X11724188Y9574482D01*
X11711928Y9450000D01*
X1127000Y9450000D01*
X1127000Y12550000D01*
X11711928Y12550000D01*
X11724188Y12425518D01*
X11760498Y12305820D01*
X11819463Y12195506D01*
X11898815Y12098815D01*
X11995506Y12019463D01*
X12105820Y11960498D01*
X12225518Y11924188D01*
X12350000Y11911928D01*
X12614250Y11915000D01*
X12773000Y12073750D01*
X12773000Y12973000D01*
X11873750Y12973000D01*
X11715000Y12814250D01*
X11711928Y12550000D01*
X1127000Y12550000D01*
X1127000Y14350000D01*
X11711928Y14350000D01*
X11724188Y14225518D01*
X11760498Y14105820D01*
X11817061Y14000000D01*
X11760498Y13894180D01*
X11724188Y13774482D01*
X11711928Y13650000D01*
X11715000Y13385750D01*
X11873750Y13227000D01*
X12773000Y13227000D01*
X12773000Y14773000D01*
X11873750Y14773000D01*
X11715000Y14614250D01*
X11711928Y14350000D01*
X1127000Y14350000D01*
X1127000Y15450000D01*
X11711928Y15450000D01*
X11715000Y15185750D01*
X11873750Y15027000D01*
X12773000Y15027000D01*
X12773000Y15926250D01*
X13027000Y15926250D01*
X13027000Y15027000D01*
X13047000Y15027000D01*
X13047000Y14773000D01*
X13027000Y14773000D01*
X13027000Y13227000D01*
X13047000Y13227000D01*
X13047000Y12973000D01*
X13027000Y12973000D01*
X13027000Y12073750D01*
X13185750Y11915000D01*
X13450000Y11911928D01*
X13574482Y11924188D01*
X13694180Y11960498D01*
X13804494Y12019463D01*
X13901185Y12098815D01*
X13980537Y12195506D01*
X14039502Y12305820D01*
X14075812Y12425518D01*
X14081048Y12478687D01*
X14140945Y12418790D01*
X14284585Y12322813D01*
X14444189Y12256703D01*
X14613623Y12223000D01*
X14786377Y12223000D01*
X14955811Y12256703D01*
X15115415Y12322813D01*
X15259055Y12418790D01*
X15381210Y12540945D01*
X15477187Y12684585D01*
X15543297Y12844189D01*
X15577000Y13013623D01*
X15577000Y13186377D01*
X15543297Y13355811D01*
X15477187Y13515415D01*
X15381210Y13659055D01*
X15259055Y13781210D01*
X15115415Y13877187D01*
X14955811Y13943297D01*
X14786377Y13977000D01*
X14613623Y13977000D01*
X14444189Y13943297D01*
X14284585Y13877187D01*
X14140945Y13781210D01*
X14081048Y13721313D01*
X14075812Y13774482D01*
X14039502Y13894180D01*
X13982939Y14000000D01*
X14039502Y14105820D01*
X14075812Y14225518D01*
X14081048Y14278687D01*
X14140945Y14218790D01*
X14284585Y14122813D01*
X14444189Y14056703D01*
X14613623Y14023000D01*
X14786377Y14023000D01*
X14955811Y14056703D01*
X15115415Y14122813D01*
X15259055Y14218790D01*
X15381210Y14340945D01*
X15477187Y14484585D01*
X15543297Y14644189D01*
X15577000Y14813623D01*
X15577000Y14986377D01*
X15543297Y15155811D01*
X15477187Y15315415D01*
X15381210Y15459055D01*
X15259055Y15581210D01*
X15115415Y15677187D01*
X14955811Y15743297D01*
X14786377Y15777000D01*
X14613623Y15777000D01*
X14444189Y15743297D01*
X14284585Y15677187D01*
X14140945Y15581210D01*
X14081048Y15521313D01*
X14075812Y15574482D01*
X14039502Y15694180D01*
X13980537Y15804494D01*
X13901185Y15901185D01*
X13804494Y15980537D01*
X13694180Y16039502D01*
X13574482Y16075812D01*
X13450000Y16088072D01*
X13185750Y16085000D01*
X13027000Y15926250D01*
X12773000Y15926250D01*
X12614250Y16085000D01*
X12350000Y16088072D01*
X12225518Y16075812D01*
X12105820Y16039502D01*
X11995506Y15980537D01*
X11898815Y15901185D01*
X11819463Y15804494D01*
X11760498Y15694180D01*
X11724188Y15574482D01*
X11711928Y15450000D01*
X1127000Y15450000D01*
X1127000Y18950000D01*
X11711928Y18950000D01*
X11724188Y18825518D01*
X11760498Y18705820D01*
X11819463Y18595506D01*
X11898815Y18498815D01*
X11995506Y18419463D01*
X12105820Y18360498D01*
X12225518Y18324188D01*
X12350000Y18311928D01*
X12614250Y18315000D01*
X12773000Y18473750D01*
X12773000Y19373000D01*
X11873750Y19373000D01*
X11715000Y19214250D01*
X11711928Y18950000D01*
X1127000Y18950000D01*
X1127000Y20050000D01*
X11711928Y20050000D01*
X11715000Y19785750D01*
X11873750Y19627000D01*
X12773000Y19627000D01*
X12773000Y20526250D01*
X13027000Y20526250D01*
X13027000Y19627000D01*
X13047000Y19627000D01*
X13047000Y19373000D01*
X13027000Y19373000D01*
X13027000Y18473750D01*
X13185750Y18315000D01*
X13450000Y18311928D01*
X13574482Y18324188D01*
X13694180Y18360498D01*
X13804494Y18419463D01*
X13901185Y18498815D01*
X13980537Y18595506D01*
X14039502Y18705820D01*
X14075812Y18825518D01*
X14081048Y18878687D01*
X14140945Y18818790D01*
X14284585Y18722813D01*
X14444189Y18656703D01*
X14613623Y18623000D01*
X14786377Y18623000D01*
X14955811Y18656703D01*
X15115415Y18722813D01*
X15259055Y18818790D01*
X15381210Y18940945D01*
X15477187Y19084585D01*
X15543297Y19244189D01*
X15577000Y19413623D01*
X15577000Y19586377D01*
X15543297Y19755811D01*
X15477187Y19915415D01*
X15381210Y20059055D01*
X15259055Y20181210D01*
X15115415Y20277187D01*
X14955811Y20343297D01*
X14786377Y20377000D01*
X14613623Y20377000D01*
X14444189Y20343297D01*
X14284585Y20277187D01*
X14140945Y20181210D01*
X14081048Y20121313D01*
X14075812Y20174482D01*
X14039502Y20294180D01*
X13980537Y20404494D01*
X13901185Y20501185D01*
X13804494Y20580537D01*
X13694180Y20639502D01*
X13574482Y20675812D01*
X13450000Y20688072D01*
X13185750Y20685000D01*
X13027000Y20526250D01*
X12773000Y20526250D01*
X12614250Y20685000D01*
X12350000Y20688072D01*
X12225518Y20675812D01*
X12105820Y20639502D01*
X11995506Y20580537D01*
X11898815Y20501185D01*
X11819463Y20404494D01*
X11760498Y20294180D01*
X11724188Y20174482D01*
X11711928Y20050000D01*
X1127000Y20050000D01*
X1127000Y23450000D01*
X11711928Y23450000D01*
X11724188Y23325518D01*
X11760498Y23205820D01*
X11819463Y23095506D01*
X11898815Y22998815D01*
X11995506Y22919463D01*
X12105820Y22860498D01*
X12225518Y22824188D01*
X12350000Y22811928D01*
X12614250Y22815000D01*
X12773000Y22973750D01*
X12773000Y23873000D01*
X11873750Y23873000D01*
X11715000Y23714250D01*
X11711928Y23450000D01*
X1127000Y23450000D01*
X1127000Y24550000D01*
X11711928Y24550000D01*
X11715000Y24285750D01*
X11873750Y24127000D01*
X12773000Y24127000D01*
X12773000Y25026250D01*
X13027000Y25026250D01*
X13027000Y24127000D01*
X13047000Y24127000D01*
X13047000Y23873000D01*
X13027000Y23873000D01*
X13027000Y22973750D01*
X13185750Y22815000D01*
X13450000Y22811928D01*
X13574482Y22824188D01*
X13694180Y22860498D01*
X13804494Y22919463D01*
X13901185Y22998815D01*
X13980537Y23095506D01*
X14039502Y23205820D01*
X14075812Y23325518D01*
X14081048Y23378687D01*
X14140945Y23318790D01*
X14284585Y23222813D01*
X14444189Y23156703D01*
X14613623Y23123000D01*
X14786377Y23123000D01*
X14955811Y23156703D01*
X15115415Y23222813D01*
X15259055Y23318790D01*
X15381210Y23440945D01*
X15477187Y23584585D01*
X15543297Y23744189D01*
X15577000Y23913623D01*
X15577000Y24086377D01*
X15543297Y24255811D01*
X15477187Y24415415D01*
X15381210Y24559055D01*
X15259055Y24681210D01*
X15115415Y24777187D01*
X14955811Y24843297D01*
X14786377Y24877000D01*
X14613623Y24877000D01*
X14444189Y24843297D01*
X14284585Y24777187D01*
X14140945Y24681210D01*
X14081048Y24621313D01*
X14075812Y24674482D01*
X14039502Y24794180D01*
X13980537Y24904494D01*
X13901185Y25001185D01*
X13804494Y25080537D01*
X13694180Y25139502D01*
X13574482Y25175812D01*
X13450000Y25188072D01*
X13185750Y25185000D01*
X13027000Y25026250D01*
X12773000Y25026250D01*
X12614250Y25185000D01*
X12350000Y25188072D01*
X12225518Y25175812D01*
X12105820Y25139502D01*
X11995506Y25080537D01*
X11898815Y25001185D01*
X11819463Y24904494D01*
X11760498Y24794180D01*
X11724188Y24674482D01*
X11711928Y24550000D01*
X1127000Y24550000D01*
X1127000Y25873000D01*
X164873000Y25873000D01*
X164873000Y1127000D01*
G04 #@! TA.AperFunction,Conductor*
D15*
G36*
X164873000Y1127000D02*
G01*
X62627000Y1127000D01*
X62627000Y2500000D01*
X62624560Y2524776D01*
X62617333Y2548601D01*
X62605597Y2570557D01*
X62589803Y2589803D01*
X62570557Y2605597D01*
X62548601Y2617333D01*
X62524776Y2624560D01*
X62500000Y2627000D01*
X36000000Y2627000D01*
X35975224Y2624560D01*
X35951399Y2617333D01*
X35929443Y2605597D01*
X35910197Y2589803D01*
X35894403Y2570557D01*
X35882667Y2548601D01*
X35875440Y2524776D01*
X35873000Y2500000D01*
X35873000Y1127000D01*
X34627000Y1127000D01*
X34627000Y4500000D01*
X34624560Y4524776D01*
X34617333Y4548601D01*
X34605597Y4570557D01*
X34589803Y4589803D01*
X34570557Y4605597D01*
X34548601Y4617333D01*
X34524776Y4624560D01*
X34500000Y4627000D01*
X28000000Y4627000D01*
X27975224Y4624560D01*
X27951399Y4617333D01*
X27929443Y4605597D01*
X27910197Y4589803D01*
X27894403Y4570557D01*
X27882667Y4548601D01*
X27875440Y4524776D01*
X27873000Y4500000D01*
X27873000Y1127000D01*
X1127000Y1127000D01*
X1127000Y6550000D01*
X11711928Y6550000D01*
X11724188Y6425518D01*
X11760498Y6305820D01*
X11819463Y6195506D01*
X11898815Y6098815D01*
X11995506Y6019463D01*
X12105820Y5960498D01*
X12225518Y5924188D01*
X12350000Y5911928D01*
X12614250Y5915000D01*
X12773000Y6073750D01*
X12773000Y6973000D01*
X11873750Y6973000D01*
X11715000Y6814250D01*
X11711928Y6550000D01*
X1127000Y6550000D01*
X1127000Y8350000D01*
X11711928Y8350000D01*
X11724188Y8225518D01*
X11760498Y8105820D01*
X11817061Y8000000D01*
X11760498Y7894180D01*
X11724188Y7774482D01*
X11711928Y7650000D01*
X11715000Y7385750D01*
X11873750Y7227000D01*
X12773000Y7227000D01*
X12773000Y8773000D01*
X11873750Y8773000D01*
X11715000Y8614250D01*
X11711928Y8350000D01*
X1127000Y8350000D01*
X1127000Y9450000D01*
X11711928Y9450000D01*
X11715000Y9185750D01*
X11873750Y9027000D01*
X12773000Y9027000D01*
X12773000Y9926250D01*
X13027000Y9926250D01*
X13027000Y9027000D01*
X13047000Y9027000D01*
X13047000Y8773000D01*
X13027000Y8773000D01*
X13027000Y7227000D01*
X13047000Y7227000D01*
X13047000Y6973000D01*
X13027000Y6973000D01*
X13027000Y6073750D01*
X13185750Y5915000D01*
X13450000Y5911928D01*
X13574482Y5924188D01*
X13694180Y5960498D01*
X13804494Y6019463D01*
X13901185Y6098815D01*
X13980537Y6195506D01*
X14039502Y6305820D01*
X14075812Y6425518D01*
X14081048Y6478687D01*
X14140945Y6418790D01*
X14284585Y6322813D01*
X14444189Y6256703D01*
X14613623Y6223000D01*
X14786377Y6223000D01*
X14955811Y6256703D01*
X15115415Y6322813D01*
X15259055Y6418790D01*
X15381210Y6540945D01*
X15477187Y6684585D01*
X15543297Y6844189D01*
X15577000Y7013623D01*
X15577000Y7186377D01*
X15543297Y7355811D01*
X15477187Y7515415D01*
X15381210Y7659055D01*
X15259055Y7781210D01*
X15115415Y7877187D01*
X14955811Y7943297D01*
X14786377Y7977000D01*
X14613623Y7977000D01*
X14444189Y7943297D01*
X14284585Y7877187D01*
X14140945Y7781210D01*
X14081048Y7721313D01*
X14075812Y7774482D01*
X14039502Y7894180D01*
X13982939Y8000000D01*
X14039502Y8105820D01*
X14075812Y8225518D01*
X14081048Y8278687D01*
X14140945Y8218790D01*
X14284585Y8122813D01*
X14444189Y8056703D01*
X14613623Y8023000D01*
X14786377Y8023000D01*
X14955811Y8056703D01*
X15115415Y8122813D01*
X15259055Y8218790D01*
X15381210Y8340945D01*
X15477187Y8484585D01*
X15543297Y8644189D01*
X15577000Y8813623D01*
X15577000Y8986377D01*
X15543297Y9155811D01*
X15477187Y9315415D01*
X15381210Y9459055D01*
X15259055Y9581210D01*
X15115415Y9677187D01*
X14955811Y9743297D01*
X14786377Y9777000D01*
X14613623Y9777000D01*
X14444189Y9743297D01*
X14284585Y9677187D01*
X14140945Y9581210D01*
X14081048Y9521313D01*
X14075812Y9574482D01*
X14039502Y9694180D01*
X13980537Y9804494D01*
X13901185Y9901185D01*
X13804494Y9980537D01*
X13694180Y10039502D01*
X13574482Y10075812D01*
X13450000Y10088072D01*
X13185750Y10085000D01*
X13027000Y9926250D01*
X12773000Y9926250D01*
X12614250Y10085000D01*
X12350000Y10088072D01*
X12225518Y10075812D01*
X12105820Y10039502D01*
X11995506Y9980537D01*
X11898815Y9901185D01*
X11819463Y9804494D01*
X11760498Y9694180D01*
X11724188Y9574482D01*
X11711928Y9450000D01*
X1127000Y9450000D01*
X1127000Y12550000D01*
X11711928Y12550000D01*
X11724188Y12425518D01*
X11760498Y12305820D01*
X11819463Y12195506D01*
X11898815Y12098815D01*
X11995506Y12019463D01*
X12105820Y11960498D01*
X12225518Y11924188D01*
X12350000Y11911928D01*
X12614250Y11915000D01*
X12773000Y12073750D01*
X12773000Y12973000D01*
X11873750Y12973000D01*
X11715000Y12814250D01*
X11711928Y12550000D01*
X1127000Y12550000D01*
X1127000Y14350000D01*
X11711928Y14350000D01*
X11724188Y14225518D01*
X11760498Y14105820D01*
X11817061Y14000000D01*
X11760498Y13894180D01*
X11724188Y13774482D01*
X11711928Y13650000D01*
X11715000Y13385750D01*
X11873750Y13227000D01*
X12773000Y13227000D01*
X12773000Y14773000D01*
X11873750Y14773000D01*
X11715000Y14614250D01*
X11711928Y14350000D01*
X1127000Y14350000D01*
X1127000Y15450000D01*
X11711928Y15450000D01*
X11715000Y15185750D01*
X11873750Y15027000D01*
X12773000Y15027000D01*
X12773000Y15926250D01*
X13027000Y15926250D01*
X13027000Y15027000D01*
X13047000Y15027000D01*
X13047000Y14773000D01*
X13027000Y14773000D01*
X13027000Y13227000D01*
X13047000Y13227000D01*
X13047000Y12973000D01*
X13027000Y12973000D01*
X13027000Y12073750D01*
X13185750Y11915000D01*
X13450000Y11911928D01*
X13574482Y11924188D01*
X13694180Y11960498D01*
X13804494Y12019463D01*
X13901185Y12098815D01*
X13980537Y12195506D01*
X14039502Y12305820D01*
X14075812Y12425518D01*
X14081048Y12478687D01*
X14140945Y12418790D01*
X14284585Y12322813D01*
X14444189Y12256703D01*
X14613623Y12223000D01*
X14786377Y12223000D01*
X14955811Y12256703D01*
X15115415Y12322813D01*
X15259055Y12418790D01*
X15381210Y12540945D01*
X15477187Y12684585D01*
X15543297Y12844189D01*
X15577000Y13013623D01*
X15577000Y13186377D01*
X15543297Y13355811D01*
X15477187Y13515415D01*
X15381210Y13659055D01*
X15259055Y13781210D01*
X15115415Y13877187D01*
X14955811Y13943297D01*
X14786377Y13977000D01*
X14613623Y13977000D01*
X14444189Y13943297D01*
X14284585Y13877187D01*
X14140945Y13781210D01*
X14081048Y13721313D01*
X14075812Y13774482D01*
X14039502Y13894180D01*
X13982939Y14000000D01*
X14039502Y14105820D01*
X14075812Y14225518D01*
X14081048Y14278687D01*
X14140945Y14218790D01*
X14284585Y14122813D01*
X14444189Y14056703D01*
X14613623Y14023000D01*
X14786377Y14023000D01*
X14955811Y14056703D01*
X15115415Y14122813D01*
X15259055Y14218790D01*
X15381210Y14340945D01*
X15477187Y14484585D01*
X15543297Y14644189D01*
X15577000Y14813623D01*
X15577000Y14986377D01*
X15543297Y15155811D01*
X15477187Y15315415D01*
X15381210Y15459055D01*
X15259055Y15581210D01*
X15115415Y15677187D01*
X14955811Y15743297D01*
X14786377Y15777000D01*
X14613623Y15777000D01*
X14444189Y15743297D01*
X14284585Y15677187D01*
X14140945Y15581210D01*
X14081048Y15521313D01*
X14075812Y15574482D01*
X14039502Y15694180D01*
X13980537Y15804494D01*
X13901185Y15901185D01*
X13804494Y15980537D01*
X13694180Y16039502D01*
X13574482Y16075812D01*
X13450000Y16088072D01*
X13185750Y16085000D01*
X13027000Y15926250D01*
X12773000Y15926250D01*
X12614250Y16085000D01*
X12350000Y16088072D01*
X12225518Y16075812D01*
X12105820Y16039502D01*
X11995506Y15980537D01*
X11898815Y15901185D01*
X11819463Y15804494D01*
X11760498Y15694180D01*
X11724188Y15574482D01*
X11711928Y15450000D01*
X1127000Y15450000D01*
X1127000Y18950000D01*
X11711928Y18950000D01*
X11724188Y18825518D01*
X11760498Y18705820D01*
X11819463Y18595506D01*
X11898815Y18498815D01*
X11995506Y18419463D01*
X12105820Y18360498D01*
X12225518Y18324188D01*
X12350000Y18311928D01*
X12614250Y18315000D01*
X12773000Y18473750D01*
X12773000Y19373000D01*
X11873750Y19373000D01*
X11715000Y19214250D01*
X11711928Y18950000D01*
X1127000Y18950000D01*
X1127000Y20050000D01*
X11711928Y20050000D01*
X11715000Y19785750D01*
X11873750Y19627000D01*
X12773000Y19627000D01*
X12773000Y20526250D01*
X13027000Y20526250D01*
X13027000Y19627000D01*
X13047000Y19627000D01*
X13047000Y19373000D01*
X13027000Y19373000D01*
X13027000Y18473750D01*
X13185750Y18315000D01*
X13450000Y18311928D01*
X13574482Y18324188D01*
X13694180Y18360498D01*
X13804494Y18419463D01*
X13901185Y18498815D01*
X13980537Y18595506D01*
X14039502Y18705820D01*
X14075812Y18825518D01*
X14081048Y18878687D01*
X14140945Y18818790D01*
X14284585Y18722813D01*
X14444189Y18656703D01*
X14613623Y18623000D01*
X14786377Y18623000D01*
X14955811Y18656703D01*
X15115415Y18722813D01*
X15259055Y18818790D01*
X15381210Y18940945D01*
X15477187Y19084585D01*
X15543297Y19244189D01*
X15577000Y19413623D01*
X15577000Y19586377D01*
X15543297Y19755811D01*
X15477187Y19915415D01*
X15381210Y20059055D01*
X15259055Y20181210D01*
X15115415Y20277187D01*
X14955811Y20343297D01*
X14786377Y20377000D01*
X14613623Y20377000D01*
X14444189Y20343297D01*
X14284585Y20277187D01*
X14140945Y20181210D01*
X14081048Y20121313D01*
X14075812Y20174482D01*
X14039502Y20294180D01*
X13980537Y20404494D01*
X13901185Y20501185D01*
X13804494Y20580537D01*
X13694180Y20639502D01*
X13574482Y20675812D01*
X13450000Y20688072D01*
X13185750Y20685000D01*
X13027000Y20526250D01*
X12773000Y20526250D01*
X12614250Y20685000D01*
X12350000Y20688072D01*
X12225518Y20675812D01*
X12105820Y20639502D01*
X11995506Y20580537D01*
X11898815Y20501185D01*
X11819463Y20404494D01*
X11760498Y20294180D01*
X11724188Y20174482D01*
X11711928Y20050000D01*
X1127000Y20050000D01*
X1127000Y23450000D01*
X11711928Y23450000D01*
X11724188Y23325518D01*
X11760498Y23205820D01*
X11819463Y23095506D01*
X11898815Y22998815D01*
X11995506Y22919463D01*
X12105820Y22860498D01*
X12225518Y22824188D01*
X12350000Y22811928D01*
X12614250Y22815000D01*
X12773000Y22973750D01*
X12773000Y23873000D01*
X11873750Y23873000D01*
X11715000Y23714250D01*
X11711928Y23450000D01*
X1127000Y23450000D01*
X1127000Y24550000D01*
X11711928Y24550000D01*
X11715000Y24285750D01*
X11873750Y24127000D01*
X12773000Y24127000D01*
X12773000Y25026250D01*
X13027000Y25026250D01*
X13027000Y24127000D01*
X13047000Y24127000D01*
X13047000Y23873000D01*
X13027000Y23873000D01*
X13027000Y22973750D01*
X13185750Y22815000D01*
X13450000Y22811928D01*
X13574482Y22824188D01*
X13694180Y22860498D01*
X13804494Y22919463D01*
X13901185Y22998815D01*
X13980537Y23095506D01*
X14039502Y23205820D01*
X14075812Y23325518D01*
X14081048Y23378687D01*
X14140945Y23318790D01*
X14284585Y23222813D01*
X14444189Y23156703D01*
X14613623Y23123000D01*
X14786377Y23123000D01*
X14955811Y23156703D01*
X15115415Y23222813D01*
X15259055Y23318790D01*
X15381210Y23440945D01*
X15477187Y23584585D01*
X15543297Y23744189D01*
X15577000Y23913623D01*
X15577000Y24086377D01*
X15543297Y24255811D01*
X15477187Y24415415D01*
X15381210Y24559055D01*
X15259055Y24681210D01*
X15115415Y24777187D01*
X14955811Y24843297D01*
X14786377Y24877000D01*
X14613623Y24877000D01*
X14444189Y24843297D01*
X14284585Y24777187D01*
X14140945Y24681210D01*
X14081048Y24621313D01*
X14075812Y24674482D01*
X14039502Y24794180D01*
X13980537Y24904494D01*
X13901185Y25001185D01*
X13804494Y25080537D01*
X13694180Y25139502D01*
X13574482Y25175812D01*
X13450000Y25188072D01*
X13185750Y25185000D01*
X13027000Y25026250D01*
X12773000Y25026250D01*
X12614250Y25185000D01*
X12350000Y25188072D01*
X12225518Y25175812D01*
X12105820Y25139502D01*
X11995506Y25080537D01*
X11898815Y25001185D01*
X11819463Y24904494D01*
X11760498Y24794180D01*
X11724188Y24674482D01*
X11711928Y24550000D01*
X1127000Y24550000D01*
X1127000Y25873000D01*
X164873000Y25873000D01*
X164873000Y1127000D01*
G37*
G04 #@! TD.AperFunction*
D16*
X41373000Y1127000D02*
X36627000Y1127000D01*
X36627000Y1873000D01*
X41373000Y1873000D01*
X41373000Y1127000D01*
G04 #@! TA.AperFunction,NonConductor*
D17*
G36*
X41373000Y1127000D02*
G01*
X36627000Y1127000D01*
X36627000Y1873000D01*
X41373000Y1873000D01*
X41373000Y1127000D01*
G37*
G04 #@! TD.AperFunction*
D16*
X51873000Y1127000D02*
X47127000Y1127000D01*
X47127000Y1873000D01*
X51873000Y1873000D01*
X51873000Y1127000D01*
G04 #@! TA.AperFunction,NonConductor*
D17*
G36*
X51873000Y1127000D02*
G01*
X47127000Y1127000D01*
X47127000Y1873000D01*
X51873000Y1873000D01*
X51873000Y1127000D01*
G37*
G04 #@! TD.AperFunction*
M02*
