G04 #@! TF.GenerationSoftware,KiCad,Pcbnew,(5.1.7)-1*
G04 #@! TF.CreationDate,2020-11-24T11:46:51-03:00*
G04 #@! TF.ProjectId,cupon,6375706f-6e2e-46b6-9963-61645f706362,Revision: 2.0*
G04 #@! TF.SameCoordinates,Original*
G04 #@! TF.FileFunction,OtherDrawing,Comment*
%FSLAX46Y46*%
G04 Gerber Fmt 4.6, Leading zero omitted, Abs format (unit mm)*
G04 Created by KiCad (PCBNEW (5.1.7)-1) date 2020-11-24 11:46:51*
%MOMM*%
%LPD*%
G01*
G04 APERTURE LIST*
%ADD10C,0.500000*%
%ADD11C,0.150000*%
%ADD12C,0.304800*%
%ADD13C,0.381000*%
G04 APERTURE END LIST*
D10*
X48700000Y-23114285D02*
X49128571Y-23257142D01*
X49842857Y-23257142D01*
X50128571Y-23114285D01*
X50271428Y-22971428D01*
X50414285Y-22685714D01*
X50414285Y-22400000D01*
X50271428Y-22114285D01*
X50128571Y-21971428D01*
X49842857Y-21828571D01*
X49271428Y-21685714D01*
X48985714Y-21542857D01*
X48842857Y-21400000D01*
X48700000Y-21114285D01*
X48700000Y-20828571D01*
X48842857Y-20542857D01*
X48985714Y-20400000D01*
X49271428Y-20257142D01*
X49985714Y-20257142D01*
X50414285Y-20400000D01*
X51271428Y-20257142D02*
X52985714Y-20257142D01*
X52128571Y-23257142D02*
X52128571Y-20257142D01*
X53842857Y-22400000D02*
X55271428Y-22400000D01*
X53557142Y-23257142D02*
X54557142Y-20257142D01*
X55557142Y-23257142D01*
X58271428Y-22971428D02*
X58128571Y-23114285D01*
X57700000Y-23257142D01*
X57414285Y-23257142D01*
X56985714Y-23114285D01*
X56700000Y-22828571D01*
X56557142Y-22542857D01*
X56414285Y-21971428D01*
X56414285Y-21542857D01*
X56557142Y-20971428D01*
X56700000Y-20685714D01*
X56985714Y-20400000D01*
X57414285Y-20257142D01*
X57700000Y-20257142D01*
X58128571Y-20400000D01*
X58271428Y-20542857D01*
X59557142Y-23257142D02*
X59557142Y-20257142D01*
X61271428Y-23257142D02*
X59985714Y-21542857D01*
X61271428Y-20257142D02*
X59557142Y-21971428D01*
X64842857Y-20257142D02*
X64842857Y-22685714D01*
X64985714Y-22971428D01*
X65128571Y-23114285D01*
X65414285Y-23257142D01*
X65985714Y-23257142D01*
X66271428Y-23114285D01*
X66414285Y-22971428D01*
X66557142Y-22685714D01*
X66557142Y-20257142D01*
X67985714Y-23257142D02*
X67985714Y-20257142D01*
X69128571Y-20257142D01*
X69414285Y-20400000D01*
X69557142Y-20542857D01*
X69700000Y-20828571D01*
X69700000Y-21257142D01*
X69557142Y-21542857D01*
X69414285Y-21685714D01*
X69128571Y-21828571D01*
X67985714Y-21828571D01*
D11*
X164173690Y-42004761D02*
X164173690Y-40004761D01*
X165126071Y-42004761D02*
X165126071Y-40004761D01*
X165792738Y-41433333D01*
X166459404Y-40004761D01*
X166459404Y-42004761D01*
X167411785Y-42004761D02*
X167411785Y-40004761D01*
X168173690Y-40004761D01*
X168364166Y-40100000D01*
X168459404Y-40195238D01*
X168554642Y-40385714D01*
X168554642Y-40671428D01*
X168459404Y-40861904D01*
X168364166Y-40957142D01*
X168173690Y-41052380D01*
X167411785Y-41052380D01*
X169411785Y-40957142D02*
X170078452Y-40957142D01*
X170364166Y-42004761D02*
X169411785Y-42004761D01*
X169411785Y-40004761D01*
X170364166Y-40004761D01*
X171221309Y-42004761D02*
X171221309Y-40004761D01*
X171697500Y-40004761D01*
X171983214Y-40100000D01*
X172173690Y-40290476D01*
X172268928Y-40480952D01*
X172364166Y-40861904D01*
X172364166Y-41147619D01*
X172268928Y-41528571D01*
X172173690Y-41719047D01*
X171983214Y-41909523D01*
X171697500Y-42004761D01*
X171221309Y-42004761D01*
X173126071Y-41433333D02*
X174078452Y-41433333D01*
X172935595Y-42004761D02*
X173602261Y-40004761D01*
X174268928Y-42004761D01*
X174935595Y-42004761D02*
X174935595Y-40004761D01*
X176078452Y-42004761D01*
X176078452Y-40004761D01*
X178173690Y-41814285D02*
X178078452Y-41909523D01*
X177792738Y-42004761D01*
X177602261Y-42004761D01*
X177316547Y-41909523D01*
X177126071Y-41719047D01*
X177030833Y-41528571D01*
X176935595Y-41147619D01*
X176935595Y-40861904D01*
X177030833Y-40480952D01*
X177126071Y-40290476D01*
X177316547Y-40100000D01*
X177602261Y-40004761D01*
X177792738Y-40004761D01*
X178078452Y-40100000D01*
X178173690Y-40195238D01*
X179030833Y-40957142D02*
X179697500Y-40957142D01*
X179983214Y-42004761D02*
X179030833Y-42004761D01*
X179030833Y-40004761D01*
X179983214Y-40004761D01*
X183507023Y-41814285D02*
X183411785Y-41909523D01*
X183126071Y-42004761D01*
X182935595Y-42004761D01*
X182649880Y-41909523D01*
X182459404Y-41719047D01*
X182364166Y-41528571D01*
X182268928Y-41147619D01*
X182268928Y-40861904D01*
X182364166Y-40480952D01*
X182459404Y-40290476D01*
X182649880Y-40100000D01*
X182935595Y-40004761D01*
X183126071Y-40004761D01*
X183411785Y-40100000D01*
X183507023Y-40195238D01*
X184745119Y-40004761D02*
X185126071Y-40004761D01*
X185316547Y-40100000D01*
X185507023Y-40290476D01*
X185602261Y-40671428D01*
X185602261Y-41338095D01*
X185507023Y-41719047D01*
X185316547Y-41909523D01*
X185126071Y-42004761D01*
X184745119Y-42004761D01*
X184554642Y-41909523D01*
X184364166Y-41719047D01*
X184268928Y-41338095D01*
X184268928Y-40671428D01*
X184364166Y-40290476D01*
X184554642Y-40100000D01*
X184745119Y-40004761D01*
X186459404Y-42004761D02*
X186459404Y-40004761D01*
X187602261Y-42004761D01*
X187602261Y-40004761D01*
X188268928Y-40004761D02*
X189411785Y-40004761D01*
X188840357Y-42004761D02*
X188840357Y-40004761D01*
X191221309Y-42004761D02*
X190554642Y-41052380D01*
X190078452Y-42004761D02*
X190078452Y-40004761D01*
X190840357Y-40004761D01*
X191030833Y-40100000D01*
X191126071Y-40195238D01*
X191221309Y-40385714D01*
X191221309Y-40671428D01*
X191126071Y-40861904D01*
X191030833Y-40957142D01*
X190840357Y-41052380D01*
X190078452Y-41052380D01*
X192459404Y-40004761D02*
X192840357Y-40004761D01*
X193030833Y-40100000D01*
X193221309Y-40290476D01*
X193316547Y-40671428D01*
X193316547Y-41338095D01*
X193221309Y-41719047D01*
X193030833Y-41909523D01*
X192840357Y-42004761D01*
X192459404Y-42004761D01*
X192268928Y-41909523D01*
X192078452Y-41719047D01*
X191983214Y-41338095D01*
X191983214Y-40671428D01*
X192078452Y-40290476D01*
X192268928Y-40100000D01*
X192459404Y-40004761D01*
X195126071Y-42004761D02*
X194173690Y-42004761D01*
X194173690Y-40004761D01*
X165126071Y-43154761D02*
X164173690Y-43154761D01*
X164078452Y-44107142D01*
X164173690Y-44011904D01*
X164364166Y-43916666D01*
X164840357Y-43916666D01*
X165030833Y-44011904D01*
X165126071Y-44107142D01*
X165221309Y-44297619D01*
X165221309Y-44773809D01*
X165126071Y-44964285D01*
X165030833Y-45059523D01*
X164840357Y-45154761D01*
X164364166Y-45154761D01*
X164173690Y-45059523D01*
X164078452Y-44964285D01*
X166459404Y-43154761D02*
X166649880Y-43154761D01*
X166840357Y-43250000D01*
X166935595Y-43345238D01*
X167030833Y-43535714D01*
X167126071Y-43916666D01*
X167126071Y-44392857D01*
X167030833Y-44773809D01*
X166935595Y-44964285D01*
X166840357Y-45059523D01*
X166649880Y-45154761D01*
X166459404Y-45154761D01*
X166268928Y-45059523D01*
X166173690Y-44964285D01*
X166078452Y-44773809D01*
X165983214Y-44392857D01*
X165983214Y-43916666D01*
X166078452Y-43535714D01*
X166173690Y-43345238D01*
X166268928Y-43250000D01*
X166459404Y-43154761D01*
X169887976Y-43154761D02*
X170268928Y-43154761D01*
X170459404Y-43250000D01*
X170649880Y-43440476D01*
X170745119Y-43821428D01*
X170745119Y-44488095D01*
X170649880Y-44869047D01*
X170459404Y-45059523D01*
X170268928Y-45154761D01*
X169887976Y-45154761D01*
X169697500Y-45059523D01*
X169507023Y-44869047D01*
X169411785Y-44488095D01*
X169411785Y-43821428D01*
X169507023Y-43440476D01*
X169697500Y-43250000D01*
X169887976Y-43154761D01*
X171602261Y-45154761D02*
X171602261Y-43154761D01*
X171602261Y-44107142D02*
X172745119Y-44107142D01*
X172745119Y-45154761D02*
X172745119Y-43154761D01*
X173697500Y-45154761D02*
X173697500Y-43154761D01*
X174364166Y-44583333D01*
X175030833Y-43154761D01*
X175030833Y-45154761D01*
X178459404Y-45154761D02*
X177507023Y-45154761D01*
X177507023Y-43154761D01*
X180173690Y-45154761D02*
X179030833Y-45154761D01*
X179602261Y-45154761D02*
X179602261Y-43154761D01*
X179411785Y-43440476D01*
X179221309Y-43630952D01*
X179030833Y-43726190D01*
X181030833Y-44964285D02*
X181126071Y-45059523D01*
X181030833Y-45154761D01*
X180935595Y-45059523D01*
X181030833Y-44964285D01*
X181030833Y-45154761D01*
X181030833Y-43916666D02*
X181126071Y-44011904D01*
X181030833Y-44107142D01*
X180935595Y-44011904D01*
X181030833Y-43916666D01*
X181030833Y-44107142D01*
X183887976Y-43154761D02*
X184078452Y-43154761D01*
X184268928Y-43250000D01*
X184364166Y-43345238D01*
X184459404Y-43535714D01*
X184554642Y-43916666D01*
X184554642Y-44392857D01*
X184459404Y-44773809D01*
X184364166Y-44964285D01*
X184268928Y-45059523D01*
X184078452Y-45154761D01*
X183887976Y-45154761D01*
X183697500Y-45059523D01*
X183602261Y-44964285D01*
X183507023Y-44773809D01*
X183411785Y-44392857D01*
X183411785Y-43916666D01*
X183507023Y-43535714D01*
X183602261Y-43345238D01*
X183697500Y-43250000D01*
X183887976Y-43154761D01*
X185411785Y-44964285D02*
X185507023Y-45059523D01*
X185411785Y-45154761D01*
X185316547Y-45059523D01*
X185411785Y-44964285D01*
X185411785Y-45154761D01*
X186173690Y-43154761D02*
X187411785Y-43154761D01*
X186745119Y-43916666D01*
X187030833Y-43916666D01*
X187221309Y-44011904D01*
X187316547Y-44107142D01*
X187411785Y-44297619D01*
X187411785Y-44773809D01*
X187316547Y-44964285D01*
X187221309Y-45059523D01*
X187030833Y-45154761D01*
X186459404Y-45154761D01*
X186268928Y-45059523D01*
X186173690Y-44964285D01*
X189792738Y-45154761D02*
X189792738Y-43821428D01*
X189792738Y-44011904D02*
X189887976Y-43916666D01*
X190078452Y-43821428D01*
X190364166Y-43821428D01*
X190554642Y-43916666D01*
X190649880Y-44107142D01*
X190649880Y-45154761D01*
X190649880Y-44107142D02*
X190745119Y-43916666D01*
X190935595Y-43821428D01*
X191221309Y-43821428D01*
X191411785Y-43916666D01*
X191507023Y-44107142D01*
X191507023Y-45154761D01*
X192459404Y-45154761D02*
X192459404Y-43821428D01*
X192459404Y-44011904D02*
X192554642Y-43916666D01*
X192745119Y-43821428D01*
X193030833Y-43821428D01*
X193221309Y-43916666D01*
X193316547Y-44107142D01*
X193316547Y-45154761D01*
X193316547Y-44107142D02*
X193411785Y-43916666D01*
X193602261Y-43821428D01*
X193887976Y-43821428D01*
X194078452Y-43916666D01*
X194173690Y-44107142D01*
X194173690Y-45154761D01*
X165126071Y-46304761D02*
X164173690Y-46304761D01*
X164078452Y-47257142D01*
X164173690Y-47161904D01*
X164364166Y-47066666D01*
X164840357Y-47066666D01*
X165030833Y-47161904D01*
X165126071Y-47257142D01*
X165221309Y-47447619D01*
X165221309Y-47923809D01*
X165126071Y-48114285D01*
X165030833Y-48209523D01*
X164840357Y-48304761D01*
X164364166Y-48304761D01*
X164173690Y-48209523D01*
X164078452Y-48114285D01*
X166459404Y-46304761D02*
X166649880Y-46304761D01*
X166840357Y-46400000D01*
X166935595Y-46495238D01*
X167030833Y-46685714D01*
X167126071Y-47066666D01*
X167126071Y-47542857D01*
X167030833Y-47923809D01*
X166935595Y-48114285D01*
X166840357Y-48209523D01*
X166649880Y-48304761D01*
X166459404Y-48304761D01*
X166268928Y-48209523D01*
X166173690Y-48114285D01*
X166078452Y-47923809D01*
X165983214Y-47542857D01*
X165983214Y-47066666D01*
X166078452Y-46685714D01*
X166173690Y-46495238D01*
X166268928Y-46400000D01*
X166459404Y-46304761D01*
X169887976Y-46304761D02*
X170268928Y-46304761D01*
X170459404Y-46400000D01*
X170649880Y-46590476D01*
X170745119Y-46971428D01*
X170745119Y-47638095D01*
X170649880Y-48019047D01*
X170459404Y-48209523D01*
X170268928Y-48304761D01*
X169887976Y-48304761D01*
X169697500Y-48209523D01*
X169507023Y-48019047D01*
X169411785Y-47638095D01*
X169411785Y-46971428D01*
X169507023Y-46590476D01*
X169697500Y-46400000D01*
X169887976Y-46304761D01*
X171602261Y-48304761D02*
X171602261Y-46304761D01*
X171602261Y-47257142D02*
X172745119Y-47257142D01*
X172745119Y-48304761D02*
X172745119Y-46304761D01*
X173697500Y-48304761D02*
X173697500Y-46304761D01*
X174364166Y-47733333D01*
X175030833Y-46304761D01*
X175030833Y-48304761D01*
X178459404Y-48304761D02*
X177507023Y-48304761D01*
X177507023Y-46304761D01*
X178935595Y-46304761D02*
X180173690Y-46304761D01*
X179507023Y-47066666D01*
X179792738Y-47066666D01*
X179983214Y-47161904D01*
X180078452Y-47257142D01*
X180173690Y-47447619D01*
X180173690Y-47923809D01*
X180078452Y-48114285D01*
X179983214Y-48209523D01*
X179792738Y-48304761D01*
X179221309Y-48304761D01*
X179030833Y-48209523D01*
X178935595Y-48114285D01*
X181030833Y-48114285D02*
X181126071Y-48209523D01*
X181030833Y-48304761D01*
X180935595Y-48209523D01*
X181030833Y-48114285D01*
X181030833Y-48304761D01*
X181030833Y-47066666D02*
X181126071Y-47161904D01*
X181030833Y-47257142D01*
X180935595Y-47161904D01*
X181030833Y-47066666D01*
X181030833Y-47257142D01*
X183887976Y-46304761D02*
X184078452Y-46304761D01*
X184268928Y-46400000D01*
X184364166Y-46495238D01*
X184459404Y-46685714D01*
X184554642Y-47066666D01*
X184554642Y-47542857D01*
X184459404Y-47923809D01*
X184364166Y-48114285D01*
X184268928Y-48209523D01*
X184078452Y-48304761D01*
X183887976Y-48304761D01*
X183697500Y-48209523D01*
X183602261Y-48114285D01*
X183507023Y-47923809D01*
X183411785Y-47542857D01*
X183411785Y-47066666D01*
X183507023Y-46685714D01*
X183602261Y-46495238D01*
X183697500Y-46400000D01*
X183887976Y-46304761D01*
X185411785Y-48114285D02*
X185507023Y-48209523D01*
X185411785Y-48304761D01*
X185316547Y-48209523D01*
X185411785Y-48114285D01*
X185411785Y-48304761D01*
X186268928Y-46495238D02*
X186364166Y-46400000D01*
X186554642Y-46304761D01*
X187030833Y-46304761D01*
X187221309Y-46400000D01*
X187316547Y-46495238D01*
X187411785Y-46685714D01*
X187411785Y-46876190D01*
X187316547Y-47161904D01*
X186173690Y-48304761D01*
X187411785Y-48304761D01*
X188078452Y-46304761D02*
X189316547Y-46304761D01*
X188649880Y-47066666D01*
X188935595Y-47066666D01*
X189126071Y-47161904D01*
X189221309Y-47257142D01*
X189316547Y-47447619D01*
X189316547Y-47923809D01*
X189221309Y-48114285D01*
X189126071Y-48209523D01*
X188935595Y-48304761D01*
X188364166Y-48304761D01*
X188173690Y-48209523D01*
X188078452Y-48114285D01*
X191697500Y-48304761D02*
X191697500Y-46971428D01*
X191697500Y-47161904D02*
X191792738Y-47066666D01*
X191983214Y-46971428D01*
X192268928Y-46971428D01*
X192459404Y-47066666D01*
X192554642Y-47257142D01*
X192554642Y-48304761D01*
X192554642Y-47257142D02*
X192649880Y-47066666D01*
X192840357Y-46971428D01*
X193126071Y-46971428D01*
X193316547Y-47066666D01*
X193411785Y-47257142D01*
X193411785Y-48304761D01*
X194364166Y-48304761D02*
X194364166Y-46971428D01*
X194364166Y-47161904D02*
X194459404Y-47066666D01*
X194649880Y-46971428D01*
X194935595Y-46971428D01*
X195126071Y-47066666D01*
X195221309Y-47257142D01*
X195221309Y-48304761D01*
X195221309Y-47257142D02*
X195316547Y-47066666D01*
X195507023Y-46971428D01*
X195792738Y-46971428D01*
X195983214Y-47066666D01*
X196078452Y-47257142D01*
X196078452Y-48304761D01*
X164268928Y-51454761D02*
X164649880Y-51454761D01*
X164840357Y-51359523D01*
X164935595Y-51264285D01*
X165126071Y-50978571D01*
X165221309Y-50597619D01*
X165221309Y-49835714D01*
X165126071Y-49645238D01*
X165030833Y-49550000D01*
X164840357Y-49454761D01*
X164459404Y-49454761D01*
X164268928Y-49550000D01*
X164173690Y-49645238D01*
X164078452Y-49835714D01*
X164078452Y-50311904D01*
X164173690Y-50502380D01*
X164268928Y-50597619D01*
X164459404Y-50692857D01*
X164840357Y-50692857D01*
X165030833Y-50597619D01*
X165126071Y-50502380D01*
X165221309Y-50311904D01*
X166459404Y-49454761D02*
X166649880Y-49454761D01*
X166840357Y-49550000D01*
X166935595Y-49645238D01*
X167030833Y-49835714D01*
X167126071Y-50216666D01*
X167126071Y-50692857D01*
X167030833Y-51073809D01*
X166935595Y-51264285D01*
X166840357Y-51359523D01*
X166649880Y-51454761D01*
X166459404Y-51454761D01*
X166268928Y-51359523D01*
X166173690Y-51264285D01*
X166078452Y-51073809D01*
X165983214Y-50692857D01*
X165983214Y-50216666D01*
X166078452Y-49835714D01*
X166173690Y-49645238D01*
X166268928Y-49550000D01*
X166459404Y-49454761D01*
X169887976Y-49454761D02*
X170268928Y-49454761D01*
X170459404Y-49550000D01*
X170649880Y-49740476D01*
X170745119Y-50121428D01*
X170745119Y-50788095D01*
X170649880Y-51169047D01*
X170459404Y-51359523D01*
X170268928Y-51454761D01*
X169887976Y-51454761D01*
X169697500Y-51359523D01*
X169507023Y-51169047D01*
X169411785Y-50788095D01*
X169411785Y-50121428D01*
X169507023Y-49740476D01*
X169697500Y-49550000D01*
X169887976Y-49454761D01*
X171602261Y-51454761D02*
X171602261Y-49454761D01*
X171602261Y-50407142D02*
X172745119Y-50407142D01*
X172745119Y-51454761D02*
X172745119Y-49454761D01*
X173697500Y-51454761D02*
X173697500Y-49454761D01*
X174364166Y-50883333D01*
X175030833Y-49454761D01*
X175030833Y-51454761D01*
X177507023Y-51454761D02*
X177507023Y-49454761D01*
X177983214Y-49454761D01*
X178268928Y-49550000D01*
X178459404Y-49740476D01*
X178554642Y-49930952D01*
X178649880Y-50311904D01*
X178649880Y-50597619D01*
X178554642Y-50978571D01*
X178459404Y-51169047D01*
X178268928Y-51359523D01*
X177983214Y-51454761D01*
X177507023Y-51454761D01*
X179507023Y-51454761D02*
X179507023Y-49454761D01*
X181126071Y-50407142D02*
X180459404Y-50407142D01*
X180459404Y-51454761D02*
X180459404Y-49454761D01*
X181411785Y-49454761D01*
X182840357Y-50407142D02*
X182173690Y-50407142D01*
X182173690Y-51454761D02*
X182173690Y-49454761D01*
X183126071Y-49454761D01*
X186364166Y-51454761D02*
X185411785Y-51454761D01*
X185411785Y-49454761D01*
X188078452Y-51454761D02*
X186935595Y-51454761D01*
X187507023Y-51454761D02*
X187507023Y-49454761D01*
X187316547Y-49740476D01*
X187126071Y-49930952D01*
X186935595Y-50026190D01*
X188935595Y-51264285D02*
X189030833Y-51359523D01*
X188935595Y-51454761D01*
X188840357Y-51359523D01*
X188935595Y-51264285D01*
X188935595Y-51454761D01*
X188935595Y-50216666D02*
X189030833Y-50311904D01*
X188935595Y-50407142D01*
X188840357Y-50311904D01*
X188935595Y-50216666D01*
X188935595Y-50407142D01*
X191792738Y-49454761D02*
X191983214Y-49454761D01*
X192173690Y-49550000D01*
X192268928Y-49645238D01*
X192364166Y-49835714D01*
X192459404Y-50216666D01*
X192459404Y-50692857D01*
X192364166Y-51073809D01*
X192268928Y-51264285D01*
X192173690Y-51359523D01*
X191983214Y-51454761D01*
X191792738Y-51454761D01*
X191602261Y-51359523D01*
X191507023Y-51264285D01*
X191411785Y-51073809D01*
X191316547Y-50692857D01*
X191316547Y-50216666D01*
X191411785Y-49835714D01*
X191507023Y-49645238D01*
X191602261Y-49550000D01*
X191792738Y-49454761D01*
X193316547Y-51264285D02*
X193411785Y-51359523D01*
X193316547Y-51454761D01*
X193221309Y-51359523D01*
X193316547Y-51264285D01*
X193316547Y-51454761D01*
X194173690Y-49645238D02*
X194268928Y-49550000D01*
X194459404Y-49454761D01*
X194935595Y-49454761D01*
X195126071Y-49550000D01*
X195221309Y-49645238D01*
X195316547Y-49835714D01*
X195316547Y-50026190D01*
X195221309Y-50311904D01*
X194078452Y-51454761D01*
X195316547Y-51454761D01*
X197126071Y-49454761D02*
X196173690Y-49454761D01*
X196078452Y-50407142D01*
X196173690Y-50311904D01*
X196364166Y-50216666D01*
X196840357Y-50216666D01*
X197030833Y-50311904D01*
X197126071Y-50407142D01*
X197221309Y-50597619D01*
X197221309Y-51073809D01*
X197126071Y-51264285D01*
X197030833Y-51359523D01*
X196840357Y-51454761D01*
X196364166Y-51454761D01*
X196173690Y-51359523D01*
X196078452Y-51264285D01*
X199507023Y-49359523D02*
X197792738Y-51930952D01*
X200554642Y-49454761D02*
X200745119Y-49454761D01*
X200935595Y-49550000D01*
X201030833Y-49645238D01*
X201126071Y-49835714D01*
X201221309Y-50216666D01*
X201221309Y-50692857D01*
X201126071Y-51073809D01*
X201030833Y-51264285D01*
X200935595Y-51359523D01*
X200745119Y-51454761D01*
X200554642Y-51454761D01*
X200364166Y-51359523D01*
X200268928Y-51264285D01*
X200173690Y-51073809D01*
X200078452Y-50692857D01*
X200078452Y-50216666D01*
X200173690Y-49835714D01*
X200268928Y-49645238D01*
X200364166Y-49550000D01*
X200554642Y-49454761D01*
X202078452Y-51264285D02*
X202173690Y-51359523D01*
X202078452Y-51454761D01*
X201983214Y-51359523D01*
X202078452Y-51264285D01*
X202078452Y-51454761D01*
X202935595Y-49645238D02*
X203030833Y-49550000D01*
X203221309Y-49454761D01*
X203697500Y-49454761D01*
X203887976Y-49550000D01*
X203983214Y-49645238D01*
X204078452Y-49835714D01*
X204078452Y-50026190D01*
X203983214Y-50311904D01*
X202840357Y-51454761D01*
X204078452Y-51454761D01*
X206459404Y-51454761D02*
X206459404Y-50121428D01*
X206459404Y-50311904D02*
X206554642Y-50216666D01*
X206745119Y-50121428D01*
X207030833Y-50121428D01*
X207221309Y-50216666D01*
X207316547Y-50407142D01*
X207316547Y-51454761D01*
X207316547Y-50407142D02*
X207411785Y-50216666D01*
X207602261Y-50121428D01*
X207887976Y-50121428D01*
X208078452Y-50216666D01*
X208173690Y-50407142D01*
X208173690Y-51454761D01*
X209126071Y-51454761D02*
X209126071Y-50121428D01*
X209126071Y-50311904D02*
X209221309Y-50216666D01*
X209411785Y-50121428D01*
X209697499Y-50121428D01*
X209887976Y-50216666D01*
X209983214Y-50407142D01*
X209983214Y-51454761D01*
X209983214Y-50407142D02*
X210078452Y-50216666D01*
X210268928Y-50121428D01*
X210554642Y-50121428D01*
X210745119Y-50216666D01*
X210840357Y-50407142D01*
X210840357Y-51454761D01*
X164268928Y-54604761D02*
X164649880Y-54604761D01*
X164840357Y-54509523D01*
X164935595Y-54414285D01*
X165126071Y-54128571D01*
X165221309Y-53747619D01*
X165221309Y-52985714D01*
X165126071Y-52795238D01*
X165030833Y-52700000D01*
X164840357Y-52604761D01*
X164459404Y-52604761D01*
X164268928Y-52700000D01*
X164173690Y-52795238D01*
X164078452Y-52985714D01*
X164078452Y-53461904D01*
X164173690Y-53652380D01*
X164268928Y-53747619D01*
X164459404Y-53842857D01*
X164840357Y-53842857D01*
X165030833Y-53747619D01*
X165126071Y-53652380D01*
X165221309Y-53461904D01*
X166459404Y-52604761D02*
X166649880Y-52604761D01*
X166840357Y-52700000D01*
X166935595Y-52795238D01*
X167030833Y-52985714D01*
X167126071Y-53366666D01*
X167126071Y-53842857D01*
X167030833Y-54223809D01*
X166935595Y-54414285D01*
X166840357Y-54509523D01*
X166649880Y-54604761D01*
X166459404Y-54604761D01*
X166268928Y-54509523D01*
X166173690Y-54414285D01*
X166078452Y-54223809D01*
X165983214Y-53842857D01*
X165983214Y-53366666D01*
X166078452Y-52985714D01*
X166173690Y-52795238D01*
X166268928Y-52700000D01*
X166459404Y-52604761D01*
X169887976Y-52604761D02*
X170268928Y-52604761D01*
X170459404Y-52700000D01*
X170649880Y-52890476D01*
X170745119Y-53271428D01*
X170745119Y-53938095D01*
X170649880Y-54319047D01*
X170459404Y-54509523D01*
X170268928Y-54604761D01*
X169887976Y-54604761D01*
X169697500Y-54509523D01*
X169507023Y-54319047D01*
X169411785Y-53938095D01*
X169411785Y-53271428D01*
X169507023Y-52890476D01*
X169697500Y-52700000D01*
X169887976Y-52604761D01*
X171602261Y-54604761D02*
X171602261Y-52604761D01*
X171602261Y-53557142D02*
X172745119Y-53557142D01*
X172745119Y-54604761D02*
X172745119Y-52604761D01*
X173697500Y-54604761D02*
X173697500Y-52604761D01*
X174364166Y-54033333D01*
X175030833Y-52604761D01*
X175030833Y-54604761D01*
X177507023Y-54604761D02*
X177507023Y-52604761D01*
X177983214Y-52604761D01*
X178268928Y-52700000D01*
X178459404Y-52890476D01*
X178554642Y-53080952D01*
X178649880Y-53461904D01*
X178649880Y-53747619D01*
X178554642Y-54128571D01*
X178459404Y-54319047D01*
X178268928Y-54509523D01*
X177983214Y-54604761D01*
X177507023Y-54604761D01*
X179507023Y-54604761D02*
X179507023Y-52604761D01*
X181126071Y-53557142D02*
X180459404Y-53557142D01*
X180459404Y-54604761D02*
X180459404Y-52604761D01*
X181411785Y-52604761D01*
X182840357Y-53557142D02*
X182173690Y-53557142D01*
X182173690Y-54604761D02*
X182173690Y-52604761D01*
X183126071Y-52604761D01*
X186364166Y-54604761D02*
X185411785Y-54604761D01*
X185411785Y-52604761D01*
X186840357Y-52604761D02*
X188078452Y-52604761D01*
X187411785Y-53366666D01*
X187697500Y-53366666D01*
X187887976Y-53461904D01*
X187983214Y-53557142D01*
X188078452Y-53747619D01*
X188078452Y-54223809D01*
X187983214Y-54414285D01*
X187887976Y-54509523D01*
X187697500Y-54604761D01*
X187126071Y-54604761D01*
X186935595Y-54509523D01*
X186840357Y-54414285D01*
X188935595Y-54414285D02*
X189030833Y-54509523D01*
X188935595Y-54604761D01*
X188840357Y-54509523D01*
X188935595Y-54414285D01*
X188935595Y-54604761D01*
X188935595Y-53366666D02*
X189030833Y-53461904D01*
X188935595Y-53557142D01*
X188840357Y-53461904D01*
X188935595Y-53366666D01*
X188935595Y-53557142D01*
X191792738Y-52604761D02*
X191983214Y-52604761D01*
X192173690Y-52700000D01*
X192268928Y-52795238D01*
X192364166Y-52985714D01*
X192459404Y-53366666D01*
X192459404Y-53842857D01*
X192364166Y-54223809D01*
X192268928Y-54414285D01*
X192173690Y-54509523D01*
X191983214Y-54604761D01*
X191792738Y-54604761D01*
X191602261Y-54509523D01*
X191507023Y-54414285D01*
X191411785Y-54223809D01*
X191316547Y-53842857D01*
X191316547Y-53366666D01*
X191411785Y-52985714D01*
X191507023Y-52795238D01*
X191602261Y-52700000D01*
X191792738Y-52604761D01*
X193316547Y-54414285D02*
X193411785Y-54509523D01*
X193316547Y-54604761D01*
X193221309Y-54509523D01*
X193316547Y-54414285D01*
X193316547Y-54604761D01*
X195316547Y-54604761D02*
X194173690Y-54604761D01*
X194745119Y-54604761D02*
X194745119Y-52604761D01*
X194554642Y-52890476D01*
X194364166Y-53080952D01*
X194173690Y-53176190D01*
X196459404Y-53461904D02*
X196268928Y-53366666D01*
X196173690Y-53271428D01*
X196078452Y-53080952D01*
X196078452Y-52985714D01*
X196173690Y-52795238D01*
X196268928Y-52700000D01*
X196459404Y-52604761D01*
X196840357Y-52604761D01*
X197030833Y-52700000D01*
X197126071Y-52795238D01*
X197221309Y-52985714D01*
X197221309Y-53080952D01*
X197126071Y-53271428D01*
X197030833Y-53366666D01*
X196840357Y-53461904D01*
X196459404Y-53461904D01*
X196268928Y-53557142D01*
X196173690Y-53652380D01*
X196078452Y-53842857D01*
X196078452Y-54223809D01*
X196173690Y-54414285D01*
X196268928Y-54509523D01*
X196459404Y-54604761D01*
X196840357Y-54604761D01*
X197030833Y-54509523D01*
X197126071Y-54414285D01*
X197221309Y-54223809D01*
X197221309Y-53842857D01*
X197126071Y-53652380D01*
X197030833Y-53557142D01*
X196840357Y-53461904D01*
X199507023Y-52509523D02*
X197792738Y-55080952D01*
X200554642Y-52604761D02*
X200745119Y-52604761D01*
X200935595Y-52700000D01*
X201030833Y-52795238D01*
X201126071Y-52985714D01*
X201221309Y-53366666D01*
X201221309Y-53842857D01*
X201126071Y-54223809D01*
X201030833Y-54414285D01*
X200935595Y-54509523D01*
X200745119Y-54604761D01*
X200554642Y-54604761D01*
X200364166Y-54509523D01*
X200268928Y-54414285D01*
X200173690Y-54223809D01*
X200078452Y-53842857D01*
X200078452Y-53366666D01*
X200173690Y-52985714D01*
X200268928Y-52795238D01*
X200364166Y-52700000D01*
X200554642Y-52604761D01*
X202078452Y-54414285D02*
X202173690Y-54509523D01*
X202078452Y-54604761D01*
X201983214Y-54509523D01*
X202078452Y-54414285D01*
X202078452Y-54604761D01*
X202935595Y-52795238D02*
X203030833Y-52700000D01*
X203221309Y-52604761D01*
X203697500Y-52604761D01*
X203887976Y-52700000D01*
X203983214Y-52795238D01*
X204078452Y-52985714D01*
X204078452Y-53176190D01*
X203983214Y-53461904D01*
X202840357Y-54604761D01*
X204078452Y-54604761D01*
X206459404Y-54604761D02*
X206459404Y-53271428D01*
X206459404Y-53461904D02*
X206554642Y-53366666D01*
X206745119Y-53271428D01*
X207030833Y-53271428D01*
X207221309Y-53366666D01*
X207316547Y-53557142D01*
X207316547Y-54604761D01*
X207316547Y-53557142D02*
X207411785Y-53366666D01*
X207602261Y-53271428D01*
X207887976Y-53271428D01*
X208078452Y-53366666D01*
X208173690Y-53557142D01*
X208173690Y-54604761D01*
X209126071Y-54604761D02*
X209126071Y-53271428D01*
X209126071Y-53461904D02*
X209221309Y-53366666D01*
X209411785Y-53271428D01*
X209697499Y-53271428D01*
X209887976Y-53366666D01*
X209983214Y-53557142D01*
X209983214Y-54604761D01*
X209983214Y-53557142D02*
X210078452Y-53366666D01*
X210268928Y-53271428D01*
X210554642Y-53271428D01*
X210745119Y-53366666D01*
X210840357Y-53557142D01*
X210840357Y-54604761D01*
X111926071Y-42604761D02*
X110973690Y-42604761D01*
X110973690Y-40604761D01*
X112497500Y-42033333D02*
X113449880Y-42033333D01*
X112307023Y-42604761D02*
X112973690Y-40604761D01*
X113640357Y-42604761D01*
X114687976Y-41652380D02*
X114687976Y-42604761D01*
X114021309Y-40604761D02*
X114687976Y-41652380D01*
X115354642Y-40604761D01*
X116021309Y-41557142D02*
X116687976Y-41557142D01*
X116973690Y-42604761D02*
X116021309Y-42604761D01*
X116021309Y-40604761D01*
X116973690Y-40604761D01*
X118973690Y-42604761D02*
X118307023Y-41652380D01*
X117830833Y-42604761D02*
X117830833Y-40604761D01*
X118592738Y-40604761D01*
X118783214Y-40700000D01*
X118878452Y-40795238D01*
X118973690Y-40985714D01*
X118973690Y-41271428D01*
X118878452Y-41461904D01*
X118783214Y-41557142D01*
X118592738Y-41652380D01*
X117830833Y-41652380D01*
X119735595Y-42509523D02*
X120021309Y-42604761D01*
X120497500Y-42604761D01*
X120687976Y-42509523D01*
X120783214Y-42414285D01*
X120878452Y-42223809D01*
X120878452Y-42033333D01*
X120783214Y-41842857D01*
X120687976Y-41747619D01*
X120497500Y-41652380D01*
X120116547Y-41557142D01*
X119926071Y-41461904D01*
X119830833Y-41366666D01*
X119735595Y-41176190D01*
X119735595Y-40985714D01*
X119830833Y-40795238D01*
X119926071Y-40700000D01*
X120116547Y-40604761D01*
X120592738Y-40604761D01*
X120878452Y-40700000D01*
X121735595Y-42414285D02*
X121830833Y-42509523D01*
X121735595Y-42604761D01*
X121640357Y-42509523D01*
X121735595Y-42414285D01*
X121735595Y-42604761D01*
X121735595Y-41366666D02*
X121830833Y-41461904D01*
X121735595Y-41557142D01*
X121640357Y-41461904D01*
X121735595Y-41366666D01*
X121735595Y-41557142D01*
X125068928Y-41271428D02*
X125068928Y-42604761D01*
X124592738Y-40509523D02*
X124116547Y-41938095D01*
X125354642Y-41938095D01*
X128592738Y-42604761D02*
X127640357Y-42604761D01*
X127640357Y-40604761D01*
X129164166Y-42033333D02*
X130116547Y-42033333D01*
X128973690Y-42604761D02*
X129640357Y-40604761D01*
X130307023Y-42604761D01*
X131354642Y-41652380D02*
X131354642Y-42604761D01*
X130687976Y-40604761D02*
X131354642Y-41652380D01*
X132021309Y-40604761D01*
X132687976Y-41557142D02*
X133354642Y-41557142D01*
X133640357Y-42604761D02*
X132687976Y-42604761D01*
X132687976Y-40604761D01*
X133640357Y-40604761D01*
X135640357Y-42604761D02*
X134973690Y-41652380D01*
X134497500Y-42604761D02*
X134497500Y-40604761D01*
X135259404Y-40604761D01*
X135449880Y-40700000D01*
X135545119Y-40795238D01*
X135640357Y-40985714D01*
X135640357Y-41271428D01*
X135545119Y-41461904D01*
X135449880Y-41557142D01*
X135259404Y-41652380D01*
X134497500Y-41652380D01*
X136402261Y-42509523D02*
X136687976Y-42604761D01*
X137164166Y-42604761D01*
X137354642Y-42509523D01*
X137449880Y-42414285D01*
X137545119Y-42223809D01*
X137545119Y-42033333D01*
X137449880Y-41842857D01*
X137354642Y-41747619D01*
X137164166Y-41652380D01*
X136783214Y-41557142D01*
X136592738Y-41461904D01*
X136497500Y-41366666D01*
X136402261Y-41176190D01*
X136402261Y-40985714D01*
X136497500Y-40795238D01*
X136592738Y-40700000D01*
X136783214Y-40604761D01*
X137259404Y-40604761D01*
X137545119Y-40700000D01*
X110973690Y-45754761D02*
X110973690Y-43754761D01*
X111640357Y-45183333D01*
X112307023Y-43754761D01*
X112307023Y-45754761D01*
X113259404Y-45754761D02*
X113259404Y-43754761D01*
X114211785Y-45754761D02*
X114211785Y-43754761D01*
X115354642Y-45754761D01*
X115354642Y-43754761D01*
X117545119Y-43754761D02*
X118687976Y-43754761D01*
X118116547Y-45754761D02*
X118116547Y-43754761D01*
X120497500Y-45754761D02*
X119830833Y-44802380D01*
X119354642Y-45754761D02*
X119354642Y-43754761D01*
X120116547Y-43754761D01*
X120307023Y-43850000D01*
X120402261Y-43945238D01*
X120497500Y-44135714D01*
X120497500Y-44421428D01*
X120402261Y-44611904D01*
X120307023Y-44707142D01*
X120116547Y-44802380D01*
X119354642Y-44802380D01*
X121259404Y-45183333D02*
X122211785Y-45183333D01*
X121068928Y-45754761D02*
X121735595Y-43754761D01*
X122402261Y-45754761D01*
X124211785Y-45564285D02*
X124116547Y-45659523D01*
X123830833Y-45754761D01*
X123640357Y-45754761D01*
X123354642Y-45659523D01*
X123164166Y-45469047D01*
X123068928Y-45278571D01*
X122973690Y-44897619D01*
X122973690Y-44611904D01*
X123068928Y-44230952D01*
X123164166Y-44040476D01*
X123354642Y-43850000D01*
X123640357Y-43754761D01*
X123830833Y-43754761D01*
X124116547Y-43850000D01*
X124211785Y-43945238D01*
X125068928Y-45754761D02*
X125068928Y-43754761D01*
X126211785Y-45754761D02*
X125354642Y-44611904D01*
X126211785Y-43754761D02*
X125068928Y-44897619D01*
X128497500Y-43659523D02*
X126783214Y-46230952D01*
X129068928Y-45659523D02*
X129354642Y-45754761D01*
X129830833Y-45754761D01*
X130021309Y-45659523D01*
X130116547Y-45564285D01*
X130211785Y-45373809D01*
X130211785Y-45183333D01*
X130116547Y-44992857D01*
X130021309Y-44897619D01*
X129830833Y-44802380D01*
X129449880Y-44707142D01*
X129259404Y-44611904D01*
X129164166Y-44516666D01*
X129068928Y-44326190D01*
X129068928Y-44135714D01*
X129164166Y-43945238D01*
X129259404Y-43850000D01*
X129449880Y-43754761D01*
X129926071Y-43754761D01*
X130211785Y-43850000D01*
X131068928Y-45754761D02*
X131068928Y-43754761D01*
X131830833Y-43754761D01*
X132021309Y-43850000D01*
X132116547Y-43945238D01*
X132211785Y-44135714D01*
X132211785Y-44421428D01*
X132116547Y-44611904D01*
X132021309Y-44707142D01*
X131830833Y-44802380D01*
X131068928Y-44802380D01*
X132973690Y-45183333D02*
X133926071Y-45183333D01*
X132783214Y-45754761D02*
X133449880Y-43754761D01*
X134116547Y-45754761D01*
X135926071Y-45564285D02*
X135830833Y-45659523D01*
X135545119Y-45754761D01*
X135354642Y-45754761D01*
X135068928Y-45659523D01*
X134878452Y-45469047D01*
X134783214Y-45278571D01*
X134687976Y-44897619D01*
X134687976Y-44611904D01*
X134783214Y-44230952D01*
X134878452Y-44040476D01*
X135068928Y-43850000D01*
X135354642Y-43754761D01*
X135545119Y-43754761D01*
X135830833Y-43850000D01*
X135926071Y-43945238D01*
X136783214Y-45754761D02*
X136783214Y-43754761D01*
X137735595Y-45754761D02*
X137735595Y-43754761D01*
X138878452Y-45754761D01*
X138878452Y-43754761D01*
X140878452Y-43850000D02*
X140687976Y-43754761D01*
X140402261Y-43754761D01*
X140116547Y-43850000D01*
X139926071Y-44040476D01*
X139830833Y-44230952D01*
X139735595Y-44611904D01*
X139735595Y-44897619D01*
X139830833Y-45278571D01*
X139926071Y-45469047D01*
X140116547Y-45659523D01*
X140402261Y-45754761D01*
X140592738Y-45754761D01*
X140878452Y-45659523D01*
X140973690Y-45564285D01*
X140973690Y-44897619D01*
X140592738Y-44897619D01*
X141830833Y-45564285D02*
X141926071Y-45659523D01*
X141830833Y-45754761D01*
X141735595Y-45659523D01*
X141830833Y-45564285D01*
X141830833Y-45754761D01*
X141830833Y-44516666D02*
X141926071Y-44611904D01*
X141830833Y-44707142D01*
X141735595Y-44611904D01*
X141830833Y-44516666D01*
X141830833Y-44707142D01*
X144687976Y-43754761D02*
X144878452Y-43754761D01*
X145068928Y-43850000D01*
X145164166Y-43945238D01*
X145259404Y-44135714D01*
X145354642Y-44516666D01*
X145354642Y-44992857D01*
X145259404Y-45373809D01*
X145164166Y-45564285D01*
X145068928Y-45659523D01*
X144878452Y-45754761D01*
X144687976Y-45754761D01*
X144497500Y-45659523D01*
X144402261Y-45564285D01*
X144307023Y-45373809D01*
X144211785Y-44992857D01*
X144211785Y-44516666D01*
X144307023Y-44135714D01*
X144402261Y-43945238D01*
X144497500Y-43850000D01*
X144687976Y-43754761D01*
X146211785Y-45564285D02*
X146307023Y-45659523D01*
X146211785Y-45754761D01*
X146116547Y-45659523D01*
X146211785Y-45564285D01*
X146211785Y-45754761D01*
X147068928Y-43945238D02*
X147164166Y-43850000D01*
X147354642Y-43754761D01*
X147830833Y-43754761D01*
X148021309Y-43850000D01*
X148116547Y-43945238D01*
X148211785Y-44135714D01*
X148211785Y-44326190D01*
X148116547Y-44611904D01*
X146973690Y-45754761D01*
X148211785Y-45754761D01*
X150592738Y-45754761D02*
X150592738Y-44421428D01*
X150592738Y-44611904D02*
X150687976Y-44516666D01*
X150878452Y-44421428D01*
X151164166Y-44421428D01*
X151354642Y-44516666D01*
X151449880Y-44707142D01*
X151449880Y-45754761D01*
X151449880Y-44707142D02*
X151545119Y-44516666D01*
X151735595Y-44421428D01*
X152021309Y-44421428D01*
X152211785Y-44516666D01*
X152307023Y-44707142D01*
X152307023Y-45754761D01*
X153259404Y-45754761D02*
X153259404Y-44421428D01*
X153259404Y-44611904D02*
X153354642Y-44516666D01*
X153545119Y-44421428D01*
X153830833Y-44421428D01*
X154021309Y-44516666D01*
X154116547Y-44707142D01*
X154116547Y-45754761D01*
X154116547Y-44707142D02*
X154211785Y-44516666D01*
X154402261Y-44421428D01*
X154687976Y-44421428D01*
X154878452Y-44516666D01*
X154973690Y-44707142D01*
X154973690Y-45754761D01*
X110973690Y-48904761D02*
X110973690Y-46904761D01*
X111640357Y-48333333D01*
X112307023Y-46904761D01*
X112307023Y-48904761D01*
X113259404Y-48904761D02*
X113259404Y-46904761D01*
X114211785Y-48904761D02*
X114211785Y-46904761D01*
X115354642Y-48904761D01*
X115354642Y-46904761D01*
X117830833Y-48904761D02*
X117830833Y-46904761D01*
X117830833Y-47857142D02*
X118973690Y-47857142D01*
X118973690Y-48904761D02*
X118973690Y-46904761D01*
X120307023Y-46904761D02*
X120687976Y-46904761D01*
X120878452Y-47000000D01*
X121068928Y-47190476D01*
X121164166Y-47571428D01*
X121164166Y-48238095D01*
X121068928Y-48619047D01*
X120878452Y-48809523D01*
X120687976Y-48904761D01*
X120307023Y-48904761D01*
X120116547Y-48809523D01*
X119926071Y-48619047D01*
X119830833Y-48238095D01*
X119830833Y-47571428D01*
X119926071Y-47190476D01*
X120116547Y-47000000D01*
X120307023Y-46904761D01*
X122973690Y-48904761D02*
X122021309Y-48904761D01*
X122021309Y-46904761D01*
X123640357Y-47857142D02*
X124307023Y-47857142D01*
X124592738Y-48904761D02*
X123640357Y-48904761D01*
X123640357Y-46904761D01*
X124592738Y-46904761D01*
X125449880Y-48714285D02*
X125545119Y-48809523D01*
X125449880Y-48904761D01*
X125354642Y-48809523D01*
X125449880Y-48714285D01*
X125449880Y-48904761D01*
X125449880Y-47666666D02*
X125545119Y-47761904D01*
X125449880Y-47857142D01*
X125354642Y-47761904D01*
X125449880Y-47666666D01*
X125449880Y-47857142D01*
X128307023Y-46904761D02*
X128497500Y-46904761D01*
X128687976Y-47000000D01*
X128783214Y-47095238D01*
X128878452Y-47285714D01*
X128973690Y-47666666D01*
X128973690Y-48142857D01*
X128878452Y-48523809D01*
X128783214Y-48714285D01*
X128687976Y-48809523D01*
X128497500Y-48904761D01*
X128307023Y-48904761D01*
X128116547Y-48809523D01*
X128021309Y-48714285D01*
X127926071Y-48523809D01*
X127830833Y-48142857D01*
X127830833Y-47666666D01*
X127926071Y-47285714D01*
X128021309Y-47095238D01*
X128116547Y-47000000D01*
X128307023Y-46904761D01*
X129830833Y-48714285D02*
X129926071Y-48809523D01*
X129830833Y-48904761D01*
X129735595Y-48809523D01*
X129830833Y-48714285D01*
X129830833Y-48904761D01*
X131640357Y-47571428D02*
X131640357Y-48904761D01*
X131164166Y-46809523D02*
X130687976Y-48238095D01*
X131926071Y-48238095D01*
X134211785Y-48904761D02*
X134211785Y-47571428D01*
X134211785Y-47761904D02*
X134307023Y-47666666D01*
X134497500Y-47571428D01*
X134783214Y-47571428D01*
X134973690Y-47666666D01*
X135068928Y-47857142D01*
X135068928Y-48904761D01*
X135068928Y-47857142D02*
X135164166Y-47666666D01*
X135354642Y-47571428D01*
X135640357Y-47571428D01*
X135830833Y-47666666D01*
X135926071Y-47857142D01*
X135926071Y-48904761D01*
X136878452Y-48904761D02*
X136878452Y-47571428D01*
X136878452Y-47761904D02*
X136973690Y-47666666D01*
X137164166Y-47571428D01*
X137449880Y-47571428D01*
X137640357Y-47666666D01*
X137735595Y-47857142D01*
X137735595Y-48904761D01*
X137735595Y-47857142D02*
X137830833Y-47666666D01*
X138021309Y-47571428D01*
X138307023Y-47571428D01*
X138497500Y-47666666D01*
X138592738Y-47857142D01*
X138592738Y-48904761D01*
X110878452Y-51959523D02*
X111164166Y-52054761D01*
X111640357Y-52054761D01*
X111830833Y-51959523D01*
X111926071Y-51864285D01*
X112021309Y-51673809D01*
X112021309Y-51483333D01*
X111926071Y-51292857D01*
X111830833Y-51197619D01*
X111640357Y-51102380D01*
X111259404Y-51007142D01*
X111068928Y-50911904D01*
X110973690Y-50816666D01*
X110878452Y-50626190D01*
X110878452Y-50435714D01*
X110973690Y-50245238D01*
X111068928Y-50150000D01*
X111259404Y-50054761D01*
X111735595Y-50054761D01*
X112021309Y-50150000D01*
X112878452Y-52054761D02*
X112878452Y-50054761D01*
X114783214Y-52054761D02*
X113830833Y-52054761D01*
X113830833Y-50054761D01*
X115449880Y-52054761D02*
X115449880Y-50054761D01*
X116592738Y-52054761D02*
X115735595Y-50911904D01*
X116592738Y-50054761D02*
X115449880Y-51197619D01*
X117354642Y-51959523D02*
X117640357Y-52054761D01*
X118116547Y-52054761D01*
X118307023Y-51959523D01*
X118402261Y-51864285D01*
X118497500Y-51673809D01*
X118497500Y-51483333D01*
X118402261Y-51292857D01*
X118307023Y-51197619D01*
X118116547Y-51102380D01*
X117735595Y-51007142D01*
X117545119Y-50911904D01*
X117449880Y-50816666D01*
X117354642Y-50626190D01*
X117354642Y-50435714D01*
X117449880Y-50245238D01*
X117545119Y-50150000D01*
X117735595Y-50054761D01*
X118211785Y-50054761D01*
X118497500Y-50150000D01*
X120497500Y-51864285D02*
X120402261Y-51959523D01*
X120116547Y-52054761D01*
X119926071Y-52054761D01*
X119640357Y-51959523D01*
X119449880Y-51769047D01*
X119354642Y-51578571D01*
X119259404Y-51197619D01*
X119259404Y-50911904D01*
X119354642Y-50530952D01*
X119449880Y-50340476D01*
X119640357Y-50150000D01*
X119926071Y-50054761D01*
X120116547Y-50054761D01*
X120402261Y-50150000D01*
X120497500Y-50245238D01*
X122497500Y-52054761D02*
X121830833Y-51102380D01*
X121354642Y-52054761D02*
X121354642Y-50054761D01*
X122116547Y-50054761D01*
X122307023Y-50150000D01*
X122402261Y-50245238D01*
X122497500Y-50435714D01*
X122497500Y-50721428D01*
X122402261Y-50911904D01*
X122307023Y-51007142D01*
X122116547Y-51102380D01*
X121354642Y-51102380D01*
X123354642Y-51007142D02*
X124021309Y-51007142D01*
X124307023Y-52054761D02*
X123354642Y-52054761D01*
X123354642Y-50054761D01*
X124307023Y-50054761D01*
X125164166Y-51007142D02*
X125830833Y-51007142D01*
X126116547Y-52054761D02*
X125164166Y-52054761D01*
X125164166Y-50054761D01*
X126116547Y-50054761D01*
X126973690Y-52054761D02*
X126973690Y-50054761D01*
X128116547Y-52054761D01*
X128116547Y-50054761D01*
X129068928Y-51864285D02*
X129164166Y-51959523D01*
X129068928Y-52054761D01*
X128973690Y-51959523D01*
X129068928Y-51864285D01*
X129068928Y-52054761D01*
X129068928Y-50816666D02*
X129164166Y-50911904D01*
X129068928Y-51007142D01*
X128973690Y-50911904D01*
X129068928Y-50816666D01*
X129068928Y-51007142D01*
X131545119Y-52054761D02*
X131545119Y-50054761D01*
X132687976Y-52054761D01*
X132687976Y-50054761D01*
X134021309Y-50054761D02*
X134402261Y-50054761D01*
X134592738Y-50150000D01*
X134783214Y-50340476D01*
X134878452Y-50721428D01*
X134878452Y-51388095D01*
X134783214Y-51769047D01*
X134592738Y-51959523D01*
X134402261Y-52054761D01*
X134021309Y-52054761D01*
X133830833Y-51959523D01*
X133640357Y-51769047D01*
X133545119Y-51388095D01*
X133545119Y-50721428D01*
X133640357Y-50340476D01*
X133830833Y-50150000D01*
X134021309Y-50054761D01*
X110878452Y-55109523D02*
X111164166Y-55204761D01*
X111640357Y-55204761D01*
X111830833Y-55109523D01*
X111926071Y-55014285D01*
X112021309Y-54823809D01*
X112021309Y-54633333D01*
X111926071Y-54442857D01*
X111830833Y-54347619D01*
X111640357Y-54252380D01*
X111259404Y-54157142D01*
X111068928Y-54061904D01*
X110973690Y-53966666D01*
X110878452Y-53776190D01*
X110878452Y-53585714D01*
X110973690Y-53395238D01*
X111068928Y-53300000D01*
X111259404Y-53204761D01*
X111735595Y-53204761D01*
X112021309Y-53300000D01*
X112878452Y-53204761D02*
X112878452Y-54823809D01*
X112973690Y-55014285D01*
X113068928Y-55109523D01*
X113259404Y-55204761D01*
X113640357Y-55204761D01*
X113830833Y-55109523D01*
X113926071Y-55014285D01*
X114021309Y-54823809D01*
X114021309Y-53204761D01*
X116116547Y-55204761D02*
X115449880Y-54252380D01*
X114973690Y-55204761D02*
X114973690Y-53204761D01*
X115735595Y-53204761D01*
X115926071Y-53300000D01*
X116021309Y-53395238D01*
X116116547Y-53585714D01*
X116116547Y-53871428D01*
X116021309Y-54061904D01*
X115926071Y-54157142D01*
X115735595Y-54252380D01*
X114973690Y-54252380D01*
X117640357Y-54157142D02*
X116973690Y-54157142D01*
X116973690Y-55204761D02*
X116973690Y-53204761D01*
X117926071Y-53204761D01*
X118592738Y-54633333D02*
X119545119Y-54633333D01*
X118402261Y-55204761D02*
X119068928Y-53204761D01*
X119735595Y-55204761D01*
X121545119Y-55014285D02*
X121449880Y-55109523D01*
X121164166Y-55204761D01*
X120973690Y-55204761D01*
X120687976Y-55109523D01*
X120497500Y-54919047D01*
X120402261Y-54728571D01*
X120307023Y-54347619D01*
X120307023Y-54061904D01*
X120402261Y-53680952D01*
X120497500Y-53490476D01*
X120687976Y-53300000D01*
X120973690Y-53204761D01*
X121164166Y-53204761D01*
X121449880Y-53300000D01*
X121545119Y-53395238D01*
X122402261Y-54157142D02*
X123068928Y-54157142D01*
X123354642Y-55204761D02*
X122402261Y-55204761D01*
X122402261Y-53204761D01*
X123354642Y-53204761D01*
X126402261Y-54157142D02*
X125735595Y-54157142D01*
X125735595Y-55204761D02*
X125735595Y-53204761D01*
X126687976Y-53204761D01*
X127449880Y-55204761D02*
X127449880Y-53204761D01*
X128402261Y-55204761D02*
X128402261Y-53204761D01*
X129545119Y-55204761D01*
X129545119Y-53204761D01*
X130497500Y-55204761D02*
X130497500Y-53204761D01*
X131354642Y-55109523D02*
X131640357Y-55204761D01*
X132116547Y-55204761D01*
X132307023Y-55109523D01*
X132402261Y-55014285D01*
X132497500Y-54823809D01*
X132497500Y-54633333D01*
X132402261Y-54442857D01*
X132307023Y-54347619D01*
X132116547Y-54252380D01*
X131735595Y-54157142D01*
X131545119Y-54061904D01*
X131449880Y-53966666D01*
X131354642Y-53776190D01*
X131354642Y-53585714D01*
X131449880Y-53395238D01*
X131545119Y-53300000D01*
X131735595Y-53204761D01*
X132211785Y-53204761D01*
X132497500Y-53300000D01*
X133354642Y-55204761D02*
X133354642Y-53204761D01*
X133354642Y-54157142D02*
X134497500Y-54157142D01*
X134497500Y-55204761D02*
X134497500Y-53204761D01*
X135449880Y-55014285D02*
X135545119Y-55109523D01*
X135449880Y-55204761D01*
X135354642Y-55109523D01*
X135449880Y-55014285D01*
X135449880Y-55204761D01*
X135449880Y-53966666D02*
X135545119Y-54061904D01*
X135449880Y-54157142D01*
X135354642Y-54061904D01*
X135449880Y-53966666D01*
X135449880Y-54157142D01*
X137926071Y-55204761D02*
X137926071Y-53204761D01*
X137926071Y-54157142D02*
X139068928Y-54157142D01*
X139068928Y-55204761D02*
X139068928Y-53204761D01*
X139926071Y-54633333D02*
X140878452Y-54633333D01*
X139735595Y-55204761D02*
X140402261Y-53204761D01*
X141068928Y-55204761D01*
X141640357Y-55109523D02*
X141926071Y-55204761D01*
X142402261Y-55204761D01*
X142592738Y-55109523D01*
X142687976Y-55014285D01*
X142783214Y-54823809D01*
X142783214Y-54633333D01*
X142687976Y-54442857D01*
X142592738Y-54347619D01*
X142402261Y-54252380D01*
X142021309Y-54157142D01*
X141830833Y-54061904D01*
X141735595Y-53966666D01*
X141640357Y-53776190D01*
X141640357Y-53585714D01*
X141735595Y-53395238D01*
X141830833Y-53300000D01*
X142021309Y-53204761D01*
X142497500Y-53204761D01*
X142783214Y-53300000D01*
X144592738Y-55204761D02*
X143640357Y-55204761D01*
X143640357Y-53204761D01*
X19273690Y-57329761D02*
X19273690Y-55329761D01*
X20416547Y-57329761D01*
X20416547Y-55329761D01*
X21654642Y-57329761D02*
X21464166Y-57234523D01*
X21368928Y-57139285D01*
X21273690Y-56948809D01*
X21273690Y-56377380D01*
X21368928Y-56186904D01*
X21464166Y-56091666D01*
X21654642Y-55996428D01*
X21940357Y-55996428D01*
X22130833Y-56091666D01*
X22226071Y-56186904D01*
X22321309Y-56377380D01*
X22321309Y-56948809D01*
X22226071Y-57139285D01*
X22130833Y-57234523D01*
X21940357Y-57329761D01*
X21654642Y-57329761D01*
X22892738Y-55996428D02*
X23654642Y-55996428D01*
X23178452Y-55329761D02*
X23178452Y-57044047D01*
X23273690Y-57234523D01*
X23464166Y-57329761D01*
X23654642Y-57329761D01*
X25178452Y-57329761D02*
X25178452Y-56282142D01*
X25083214Y-56091666D01*
X24892738Y-55996428D01*
X24511785Y-55996428D01*
X24321309Y-56091666D01*
X25178452Y-57234523D02*
X24987976Y-57329761D01*
X24511785Y-57329761D01*
X24321309Y-57234523D01*
X24226071Y-57044047D01*
X24226071Y-56853571D01*
X24321309Y-56663095D01*
X24511785Y-56567857D01*
X24987976Y-56567857D01*
X25178452Y-56472619D01*
X26130833Y-57139285D02*
X26226071Y-57234523D01*
X26130833Y-57329761D01*
X26035595Y-57234523D01*
X26130833Y-57139285D01*
X26130833Y-57329761D01*
X26130833Y-56091666D02*
X26226071Y-56186904D01*
X26130833Y-56282142D01*
X26035595Y-56186904D01*
X26130833Y-56091666D01*
X26130833Y-56282142D01*
X28607023Y-57329761D02*
X28607023Y-55329761D01*
X29368928Y-55329761D01*
X29559404Y-55425000D01*
X29654642Y-55520238D01*
X29749880Y-55710714D01*
X29749880Y-55996428D01*
X29654642Y-56186904D01*
X29559404Y-56282142D01*
X29368928Y-56377380D01*
X28607023Y-56377380D01*
X31464166Y-55996428D02*
X31464166Y-57329761D01*
X30607023Y-55996428D02*
X30607023Y-57044047D01*
X30702261Y-57234523D01*
X30892738Y-57329761D01*
X31178452Y-57329761D01*
X31368928Y-57234523D01*
X31464166Y-57139285D01*
X32321309Y-57234523D02*
X32511785Y-57329761D01*
X32892738Y-57329761D01*
X33083214Y-57234523D01*
X33178452Y-57044047D01*
X33178452Y-56948809D01*
X33083214Y-56758333D01*
X32892738Y-56663095D01*
X32607023Y-56663095D01*
X32416547Y-56567857D01*
X32321309Y-56377380D01*
X32321309Y-56282142D01*
X32416547Y-56091666D01*
X32607023Y-55996428D01*
X32892738Y-55996428D01*
X33083214Y-56091666D01*
X34797500Y-57234523D02*
X34607023Y-57329761D01*
X34226071Y-57329761D01*
X34035595Y-57234523D01*
X33940357Y-57044047D01*
X33940357Y-56282142D01*
X34035595Y-56091666D01*
X34226071Y-55996428D01*
X34607023Y-55996428D01*
X34797500Y-56091666D01*
X34892738Y-56282142D01*
X34892738Y-56472619D01*
X33940357Y-56663095D01*
X37559404Y-57329761D02*
X37368928Y-57234523D01*
X37273690Y-57044047D01*
X37273690Y-55329761D01*
X38607023Y-57329761D02*
X38416547Y-57234523D01*
X38321309Y-57139285D01*
X38226071Y-56948809D01*
X38226071Y-56377380D01*
X38321309Y-56186904D01*
X38416547Y-56091666D01*
X38607023Y-55996428D01*
X38892738Y-55996428D01*
X39083214Y-56091666D01*
X39178452Y-56186904D01*
X39273690Y-56377380D01*
X39273690Y-56948809D01*
X39178452Y-57139285D01*
X39083214Y-57234523D01*
X38892738Y-57329761D01*
X38607023Y-57329761D01*
X40035595Y-57234523D02*
X40226071Y-57329761D01*
X40607023Y-57329761D01*
X40797500Y-57234523D01*
X40892738Y-57044047D01*
X40892738Y-56948809D01*
X40797500Y-56758333D01*
X40607023Y-56663095D01*
X40321309Y-56663095D01*
X40130833Y-56567857D01*
X40035595Y-56377380D01*
X40035595Y-56282142D01*
X40130833Y-56091666D01*
X40321309Y-55996428D01*
X40607023Y-55996428D01*
X40797500Y-56091666D01*
X43273690Y-55996428D02*
X43273690Y-57996428D01*
X43273690Y-56091666D02*
X43464166Y-55996428D01*
X43845119Y-55996428D01*
X44035595Y-56091666D01*
X44130833Y-56186904D01*
X44226071Y-56377380D01*
X44226071Y-56948809D01*
X44130833Y-57139285D01*
X44035595Y-57234523D01*
X43845119Y-57329761D01*
X43464166Y-57329761D01*
X43273690Y-57234523D01*
X45368928Y-57329761D02*
X45178452Y-57234523D01*
X45083214Y-57044047D01*
X45083214Y-55329761D01*
X46987976Y-57329761D02*
X46987976Y-56282142D01*
X46892738Y-56091666D01*
X46702261Y-55996428D01*
X46321309Y-55996428D01*
X46130833Y-56091666D01*
X46987976Y-57234523D02*
X46797500Y-57329761D01*
X46321309Y-57329761D01*
X46130833Y-57234523D01*
X46035595Y-57044047D01*
X46035595Y-56853571D01*
X46130833Y-56663095D01*
X46321309Y-56567857D01*
X46797500Y-56567857D01*
X46987976Y-56472619D01*
X47940357Y-55996428D02*
X47940357Y-57329761D01*
X47940357Y-56186904D02*
X48035595Y-56091666D01*
X48226071Y-55996428D01*
X48511785Y-55996428D01*
X48702261Y-56091666D01*
X48797500Y-56282142D01*
X48797500Y-57329761D01*
X50035595Y-57329761D02*
X49845119Y-57234523D01*
X49749880Y-57139285D01*
X49654642Y-56948809D01*
X49654642Y-56377380D01*
X49749880Y-56186904D01*
X49845119Y-56091666D01*
X50035595Y-55996428D01*
X50321309Y-55996428D01*
X50511785Y-56091666D01*
X50607023Y-56186904D01*
X50702261Y-56377380D01*
X50702261Y-56948809D01*
X50607023Y-57139285D01*
X50511785Y-57234523D01*
X50321309Y-57329761D01*
X50035595Y-57329761D01*
X51464166Y-57234523D02*
X51654642Y-57329761D01*
X52035595Y-57329761D01*
X52226071Y-57234523D01*
X52321309Y-57044047D01*
X52321309Y-56948809D01*
X52226071Y-56758333D01*
X52035595Y-56663095D01*
X51749880Y-56663095D01*
X51559404Y-56567857D01*
X51464166Y-56377380D01*
X51464166Y-56282142D01*
X51559404Y-56091666D01*
X51749880Y-55996428D01*
X52035595Y-55996428D01*
X52226071Y-56091666D01*
X54702261Y-57329761D02*
X54702261Y-55996428D01*
X54702261Y-55329761D02*
X54607023Y-55425000D01*
X54702261Y-55520238D01*
X54797500Y-55425000D01*
X54702261Y-55329761D01*
X54702261Y-55520238D01*
X55654642Y-55996428D02*
X55654642Y-57329761D01*
X55654642Y-56186904D02*
X55749880Y-56091666D01*
X55940357Y-55996428D01*
X56226071Y-55996428D01*
X56416547Y-56091666D01*
X56511785Y-56282142D01*
X56511785Y-57329761D01*
X57178452Y-55996428D02*
X57940357Y-55996428D01*
X57464166Y-55329761D02*
X57464166Y-57044047D01*
X57559404Y-57234523D01*
X57749880Y-57329761D01*
X57940357Y-57329761D01*
X59368928Y-57234523D02*
X59178452Y-57329761D01*
X58797499Y-57329761D01*
X58607023Y-57234523D01*
X58511785Y-57044047D01*
X58511785Y-56282142D01*
X58607023Y-56091666D01*
X58797499Y-55996428D01*
X59178452Y-55996428D01*
X59368928Y-56091666D01*
X59464166Y-56282142D01*
X59464166Y-56472619D01*
X58511785Y-56663095D01*
X60321309Y-57329761D02*
X60321309Y-55996428D01*
X60321309Y-56377380D02*
X60416547Y-56186904D01*
X60511785Y-56091666D01*
X60702261Y-55996428D01*
X60892738Y-55996428D01*
X61559404Y-55996428D02*
X61559404Y-57329761D01*
X61559404Y-56186904D02*
X61654642Y-56091666D01*
X61845119Y-55996428D01*
X62130833Y-55996428D01*
X62321309Y-56091666D01*
X62416547Y-56282142D01*
X62416547Y-57329761D01*
X63654642Y-57329761D02*
X63464166Y-57234523D01*
X63368928Y-57139285D01*
X63273690Y-56948809D01*
X63273690Y-56377380D01*
X63368928Y-56186904D01*
X63464166Y-56091666D01*
X63654642Y-55996428D01*
X63940357Y-55996428D01*
X64130833Y-56091666D01*
X64226071Y-56186904D01*
X64321309Y-56377380D01*
X64321309Y-56948809D01*
X64226071Y-57139285D01*
X64130833Y-57234523D01*
X63940357Y-57329761D01*
X63654642Y-57329761D01*
X65083214Y-57234523D02*
X65273690Y-57329761D01*
X65654642Y-57329761D01*
X65845119Y-57234523D01*
X65940357Y-57044047D01*
X65940357Y-56948809D01*
X65845119Y-56758333D01*
X65654642Y-56663095D01*
X65368928Y-56663095D01*
X65178452Y-56567857D01*
X65083214Y-56377380D01*
X65083214Y-56282142D01*
X65178452Y-56091666D01*
X65368928Y-55996428D01*
X65654642Y-55996428D01*
X65845119Y-56091666D01*
X69178452Y-57329761D02*
X69178452Y-55329761D01*
X69178452Y-57234523D02*
X68987976Y-57329761D01*
X68607023Y-57329761D01*
X68416547Y-57234523D01*
X68321309Y-57139285D01*
X68226071Y-56948809D01*
X68226071Y-56377380D01*
X68321309Y-56186904D01*
X68416547Y-56091666D01*
X68607023Y-55996428D01*
X68987976Y-55996428D01*
X69178452Y-56091666D01*
X70892738Y-57234523D02*
X70702261Y-57329761D01*
X70321309Y-57329761D01*
X70130833Y-57234523D01*
X70035595Y-57044047D01*
X70035595Y-56282142D01*
X70130833Y-56091666D01*
X70321309Y-55996428D01*
X70702261Y-55996428D01*
X70892738Y-56091666D01*
X70987976Y-56282142D01*
X70987976Y-56472619D01*
X70035595Y-56663095D01*
X74416547Y-57329761D02*
X73273690Y-57329761D01*
X73845119Y-57329761D02*
X73845119Y-55329761D01*
X73654642Y-55615476D01*
X73464166Y-55805952D01*
X73273690Y-55901190D01*
X76702261Y-55234523D02*
X74987976Y-57805952D01*
X77273690Y-55520238D02*
X77368928Y-55425000D01*
X77559404Y-55329761D01*
X78035595Y-55329761D01*
X78226071Y-55425000D01*
X78321309Y-55520238D01*
X78416547Y-55710714D01*
X78416547Y-55901190D01*
X78321309Y-56186904D01*
X77178452Y-57329761D01*
X78416547Y-57329761D01*
X81083214Y-57329761D02*
X80892738Y-57234523D01*
X80797499Y-57139285D01*
X80702261Y-56948809D01*
X80702261Y-56377380D01*
X80797499Y-56186904D01*
X80892738Y-56091666D01*
X81083214Y-55996428D01*
X81368928Y-55996428D01*
X81559404Y-56091666D01*
X81654642Y-56186904D01*
X81749880Y-56377380D01*
X81749880Y-56948809D01*
X81654642Y-57139285D01*
X81559404Y-57234523D01*
X81368928Y-57329761D01*
X81083214Y-57329761D01*
X82416547Y-55996428D02*
X83464166Y-55996428D01*
X82416547Y-57329761D01*
X83464166Y-57329761D01*
X85749880Y-55996428D02*
X85749880Y-57996428D01*
X85749880Y-56091666D02*
X85940357Y-55996428D01*
X86321309Y-55996428D01*
X86511785Y-56091666D01*
X86607023Y-56186904D01*
X86702261Y-56377380D01*
X86702261Y-56948809D01*
X86607023Y-57139285D01*
X86511785Y-57234523D01*
X86321309Y-57329761D01*
X85940357Y-57329761D01*
X85749880Y-57234523D01*
X87845119Y-57329761D02*
X87654642Y-57234523D01*
X87559404Y-57139285D01*
X87464166Y-56948809D01*
X87464166Y-56377380D01*
X87559404Y-56186904D01*
X87654642Y-56091666D01*
X87845119Y-55996428D01*
X88130833Y-55996428D01*
X88321309Y-56091666D01*
X88416547Y-56186904D01*
X88511785Y-56377380D01*
X88511785Y-56948809D01*
X88416547Y-57139285D01*
X88321309Y-57234523D01*
X88130833Y-57329761D01*
X87845119Y-57329761D01*
X89368928Y-57329761D02*
X89368928Y-55996428D01*
X89368928Y-56377380D02*
X89464166Y-56186904D01*
X89559404Y-56091666D01*
X89749880Y-55996428D01*
X89940357Y-55996428D01*
X91464166Y-55996428D02*
X91464166Y-57996428D01*
X91464166Y-57234523D02*
X91273690Y-57329761D01*
X90892738Y-57329761D01*
X90702261Y-57234523D01*
X90607023Y-57139285D01*
X90511785Y-56948809D01*
X90511785Y-56377380D01*
X90607023Y-56186904D01*
X90702261Y-56091666D01*
X90892738Y-55996428D01*
X91273690Y-55996428D01*
X91464166Y-56091666D01*
X93273690Y-55996428D02*
X93273690Y-57329761D01*
X92416547Y-55996428D02*
X92416547Y-57044047D01*
X92511785Y-57234523D01*
X92702261Y-57329761D01*
X92987976Y-57329761D01*
X93178452Y-57234523D01*
X93273690Y-57139285D01*
X94987976Y-57234523D02*
X94797499Y-57329761D01*
X94416547Y-57329761D01*
X94226071Y-57234523D01*
X94130833Y-57044047D01*
X94130833Y-56282142D01*
X94226071Y-56091666D01*
X94416547Y-55996428D01*
X94797499Y-55996428D01*
X94987976Y-56091666D01*
X95083214Y-56282142D01*
X95083214Y-56472619D01*
X94130833Y-56663095D01*
X19273690Y-60479761D02*
X19273690Y-58479761D01*
X19940357Y-59908333D01*
X20607023Y-58479761D01*
X20607023Y-60479761D01*
X22416547Y-60479761D02*
X22416547Y-59432142D01*
X22321309Y-59241666D01*
X22130833Y-59146428D01*
X21749880Y-59146428D01*
X21559404Y-59241666D01*
X22416547Y-60384523D02*
X22226071Y-60479761D01*
X21749880Y-60479761D01*
X21559404Y-60384523D01*
X21464166Y-60194047D01*
X21464166Y-60003571D01*
X21559404Y-59813095D01*
X21749880Y-59717857D01*
X22226071Y-59717857D01*
X22416547Y-59622619D01*
X23368928Y-60479761D02*
X23368928Y-59146428D01*
X23368928Y-59527380D02*
X23464166Y-59336904D01*
X23559404Y-59241666D01*
X23749880Y-59146428D01*
X23940357Y-59146428D01*
X25464166Y-60384523D02*
X25273690Y-60479761D01*
X24892738Y-60479761D01*
X24702261Y-60384523D01*
X24607023Y-60289285D01*
X24511785Y-60098809D01*
X24511785Y-59527380D01*
X24607023Y-59336904D01*
X24702261Y-59241666D01*
X24892738Y-59146428D01*
X25273690Y-59146428D01*
X25464166Y-59241666D01*
X26607023Y-60479761D02*
X26416547Y-60384523D01*
X26321309Y-60289285D01*
X26226071Y-60098809D01*
X26226071Y-59527380D01*
X26321309Y-59336904D01*
X26416547Y-59241666D01*
X26607023Y-59146428D01*
X26892738Y-59146428D01*
X27083214Y-59241666D01*
X27178452Y-59336904D01*
X27273690Y-59527380D01*
X27273690Y-60098809D01*
X27178452Y-60289285D01*
X27083214Y-60384523D01*
X26892738Y-60479761D01*
X26607023Y-60479761D01*
X28035595Y-60384523D02*
X28226071Y-60479761D01*
X28607023Y-60479761D01*
X28797500Y-60384523D01*
X28892738Y-60194047D01*
X28892738Y-60098809D01*
X28797500Y-59908333D01*
X28607023Y-59813095D01*
X28321309Y-59813095D01*
X28130833Y-59717857D01*
X28035595Y-59527380D01*
X28035595Y-59432142D01*
X28130833Y-59241666D01*
X28321309Y-59146428D01*
X28607023Y-59146428D01*
X28797500Y-59241666D01*
X31273690Y-60479761D02*
X31273690Y-58479761D01*
X31940357Y-59908333D01*
X32607023Y-58479761D01*
X32607023Y-60479761D01*
X34416547Y-60479761D02*
X34416547Y-59432142D01*
X34321309Y-59241666D01*
X34130833Y-59146428D01*
X33749880Y-59146428D01*
X33559404Y-59241666D01*
X34416547Y-60384523D02*
X34226071Y-60479761D01*
X33749880Y-60479761D01*
X33559404Y-60384523D01*
X33464166Y-60194047D01*
X33464166Y-60003571D01*
X33559404Y-59813095D01*
X33749880Y-59717857D01*
X34226071Y-59717857D01*
X34416547Y-59622619D01*
X35178452Y-59146428D02*
X35654642Y-60479761D01*
X36130833Y-59146428D02*
X35654642Y-60479761D01*
X35464166Y-60955952D01*
X35368928Y-61051190D01*
X35178452Y-61146428D01*
X37654642Y-60384523D02*
X37464166Y-60479761D01*
X37083214Y-60479761D01*
X36892738Y-60384523D01*
X36797500Y-60194047D01*
X36797500Y-59432142D01*
X36892738Y-59241666D01*
X37083214Y-59146428D01*
X37464166Y-59146428D01*
X37654642Y-59241666D01*
X37749880Y-59432142D01*
X37749880Y-59622619D01*
X36797500Y-59813095D01*
X38607023Y-60479761D02*
X38607023Y-59146428D01*
X38607023Y-59527380D02*
X38702261Y-59336904D01*
X38797500Y-59241666D01*
X38987976Y-59146428D01*
X39178452Y-59146428D01*
X42226071Y-60479761D02*
X42226071Y-58479761D01*
X42226071Y-60384523D02*
X42035595Y-60479761D01*
X41654642Y-60479761D01*
X41464166Y-60384523D01*
X41368928Y-60289285D01*
X41273690Y-60098809D01*
X41273690Y-59527380D01*
X41368928Y-59336904D01*
X41464166Y-59241666D01*
X41654642Y-59146428D01*
X42035595Y-59146428D01*
X42226071Y-59241666D01*
X43178452Y-60479761D02*
X43178452Y-59146428D01*
X43178452Y-58479761D02*
X43083214Y-58575000D01*
X43178452Y-58670238D01*
X43273690Y-58575000D01*
X43178452Y-58479761D01*
X43178452Y-58670238D01*
X44130833Y-59146428D02*
X44130833Y-60860714D01*
X44035595Y-61051190D01*
X43845119Y-61146428D01*
X43749880Y-61146428D01*
X44130833Y-58479761D02*
X44035595Y-58575000D01*
X44130833Y-58670238D01*
X44226071Y-58575000D01*
X44130833Y-58479761D01*
X44130833Y-58670238D01*
X45368928Y-60479761D02*
X45178452Y-60384523D01*
X45083214Y-60289285D01*
X44987976Y-60098809D01*
X44987976Y-59527380D01*
X45083214Y-59336904D01*
X45178452Y-59241666D01*
X45368928Y-59146428D01*
X45654642Y-59146428D01*
X45845119Y-59241666D01*
X45940357Y-59336904D01*
X46035595Y-59527380D01*
X46035595Y-60098809D01*
X45940357Y-60289285D01*
X45845119Y-60384523D01*
X45654642Y-60479761D01*
X45368928Y-60479761D01*
X49273690Y-59146428D02*
X49273690Y-61146428D01*
X49273690Y-60384523D02*
X49083214Y-60479761D01*
X48702261Y-60479761D01*
X48511785Y-60384523D01*
X48416547Y-60289285D01*
X48321309Y-60098809D01*
X48321309Y-59527380D01*
X48416547Y-59336904D01*
X48511785Y-59241666D01*
X48702261Y-59146428D01*
X49083214Y-59146428D01*
X49273690Y-59241666D01*
X51083214Y-59146428D02*
X51083214Y-60479761D01*
X50226071Y-59146428D02*
X50226071Y-60194047D01*
X50321309Y-60384523D01*
X50511785Y-60479761D01*
X50797500Y-60479761D01*
X50987976Y-60384523D01*
X51083214Y-60289285D01*
X52797499Y-60384523D02*
X52607023Y-60479761D01*
X52226071Y-60479761D01*
X52035595Y-60384523D01*
X51940357Y-60194047D01*
X51940357Y-59432142D01*
X52035595Y-59241666D01*
X52226071Y-59146428D01*
X52607023Y-59146428D01*
X52797499Y-59241666D01*
X52892738Y-59432142D01*
X52892738Y-59622619D01*
X51940357Y-59813095D01*
X55273690Y-59146428D02*
X55273690Y-60479761D01*
X55273690Y-59336904D02*
X55368928Y-59241666D01*
X55559404Y-59146428D01*
X55845119Y-59146428D01*
X56035595Y-59241666D01*
X56130833Y-59432142D01*
X56130833Y-60479761D01*
X57368928Y-60479761D02*
X57178452Y-60384523D01*
X57083214Y-60289285D01*
X56987976Y-60098809D01*
X56987976Y-59527380D01*
X57083214Y-59336904D01*
X57178452Y-59241666D01*
X57368928Y-59146428D01*
X57654642Y-59146428D01*
X57845119Y-59241666D01*
X57940357Y-59336904D01*
X58035595Y-59527380D01*
X58035595Y-60098809D01*
X57940357Y-60289285D01*
X57845119Y-60384523D01*
X57654642Y-60479761D01*
X57368928Y-60479761D01*
X60130833Y-59146428D02*
X60892738Y-59146428D01*
X60416547Y-58479761D02*
X60416547Y-60194047D01*
X60511785Y-60384523D01*
X60702261Y-60479761D01*
X60892738Y-60479761D01*
X61559404Y-60479761D02*
X61559404Y-59146428D01*
X61559404Y-58479761D02*
X61464166Y-58575000D01*
X61559404Y-58670238D01*
X61654642Y-58575000D01*
X61559404Y-58479761D01*
X61559404Y-58670238D01*
X63273690Y-60384523D02*
X63083214Y-60479761D01*
X62702261Y-60479761D01*
X62511785Y-60384523D01*
X62416547Y-60194047D01*
X62416547Y-59432142D01*
X62511785Y-59241666D01*
X62702261Y-59146428D01*
X63083214Y-59146428D01*
X63273690Y-59241666D01*
X63368928Y-59432142D01*
X63368928Y-59622619D01*
X62416547Y-59813095D01*
X64226071Y-59146428D02*
X64226071Y-60479761D01*
X64226071Y-59336904D02*
X64321309Y-59241666D01*
X64511785Y-59146428D01*
X64797499Y-59146428D01*
X64987976Y-59241666D01*
X65083214Y-59432142D01*
X65083214Y-60479761D01*
X66797499Y-60384523D02*
X66607023Y-60479761D01*
X66226071Y-60479761D01*
X66035595Y-60384523D01*
X65940357Y-60194047D01*
X65940357Y-59432142D01*
X66035595Y-59241666D01*
X66226071Y-59146428D01*
X66607023Y-59146428D01*
X66797499Y-59241666D01*
X66892738Y-59432142D01*
X66892738Y-59622619D01*
X65940357Y-59813095D01*
X67749880Y-59146428D02*
X67749880Y-60479761D01*
X67749880Y-59336904D02*
X67845119Y-59241666D01*
X68035595Y-59146428D01*
X68321309Y-59146428D01*
X68511785Y-59241666D01*
X68607023Y-59432142D01*
X68607023Y-60479761D01*
X71940357Y-60384523D02*
X71749880Y-60479761D01*
X71368928Y-60479761D01*
X71178452Y-60384523D01*
X71083214Y-60289285D01*
X70987976Y-60098809D01*
X70987976Y-59527380D01*
X71083214Y-59336904D01*
X71178452Y-59241666D01*
X71368928Y-59146428D01*
X71749880Y-59146428D01*
X71940357Y-59241666D01*
X73083214Y-60479761D02*
X72892738Y-60384523D01*
X72797499Y-60289285D01*
X72702261Y-60098809D01*
X72702261Y-59527380D01*
X72797499Y-59336904D01*
X72892738Y-59241666D01*
X73083214Y-59146428D01*
X73368928Y-59146428D01*
X73559404Y-59241666D01*
X73654642Y-59336904D01*
X73749880Y-59527380D01*
X73749880Y-60098809D01*
X73654642Y-60289285D01*
X73559404Y-60384523D01*
X73368928Y-60479761D01*
X73083214Y-60479761D01*
X74607023Y-60479761D02*
X74607023Y-59146428D01*
X74607023Y-59527380D02*
X74702261Y-59336904D01*
X74797499Y-59241666D01*
X74987976Y-59146428D01*
X75178452Y-59146428D01*
X76607023Y-60384523D02*
X76416547Y-60479761D01*
X76035595Y-60479761D01*
X75845119Y-60384523D01*
X75749880Y-60194047D01*
X75749880Y-59432142D01*
X75845119Y-59241666D01*
X76035595Y-59146428D01*
X76416547Y-59146428D01*
X76607023Y-59241666D01*
X76702261Y-59432142D01*
X76702261Y-59622619D01*
X75749880Y-59813095D01*
X79940357Y-60479761D02*
X79940357Y-58479761D01*
X79940357Y-60384523D02*
X79749880Y-60479761D01*
X79368928Y-60479761D01*
X79178452Y-60384523D01*
X79083214Y-60289285D01*
X78987976Y-60098809D01*
X78987976Y-59527380D01*
X79083214Y-59336904D01*
X79178452Y-59241666D01*
X79368928Y-59146428D01*
X79749880Y-59146428D01*
X79940357Y-59241666D01*
X81654642Y-60384523D02*
X81464166Y-60479761D01*
X81083214Y-60479761D01*
X80892738Y-60384523D01*
X80797499Y-60194047D01*
X80797499Y-59432142D01*
X80892738Y-59241666D01*
X81083214Y-59146428D01*
X81464166Y-59146428D01*
X81654642Y-59241666D01*
X81749880Y-59432142D01*
X81749880Y-59622619D01*
X80797499Y-59813095D01*
X85178452Y-60479761D02*
X84035595Y-60479761D01*
X84607023Y-60479761D02*
X84607023Y-58479761D01*
X84416547Y-58765476D01*
X84226071Y-58955952D01*
X84035595Y-59051190D01*
X87845119Y-60479761D02*
X87654642Y-60384523D01*
X87559404Y-60289285D01*
X87464166Y-60098809D01*
X87464166Y-59527380D01*
X87559404Y-59336904D01*
X87654642Y-59241666D01*
X87845119Y-59146428D01*
X88130833Y-59146428D01*
X88321309Y-59241666D01*
X88416547Y-59336904D01*
X88511785Y-59527380D01*
X88511785Y-60098809D01*
X88416547Y-60289285D01*
X88321309Y-60384523D01*
X88130833Y-60479761D01*
X87845119Y-60479761D01*
X89178452Y-59146428D02*
X90226071Y-59146428D01*
X89178452Y-60479761D01*
X90226071Y-60479761D01*
X90987976Y-60289285D02*
X91083214Y-60384523D01*
X90987976Y-60479761D01*
X90892738Y-60384523D01*
X90987976Y-60289285D01*
X90987976Y-60479761D01*
D12*
X44607142Y-47419238D02*
X44607142Y-45387238D01*
X45187714Y-45387238D01*
X45332857Y-45484000D01*
X45405428Y-45580761D01*
X45478000Y-45774285D01*
X45478000Y-46064571D01*
X45405428Y-46258095D01*
X45332857Y-46354857D01*
X45187714Y-46451619D01*
X44607142Y-46451619D01*
X46131142Y-47419238D02*
X46131142Y-46064571D01*
X46131142Y-46451619D02*
X46203714Y-46258095D01*
X46276285Y-46161333D01*
X46421428Y-46064571D01*
X46566571Y-46064571D01*
X47655142Y-47322476D02*
X47510000Y-47419238D01*
X47219714Y-47419238D01*
X47074571Y-47322476D01*
X47002000Y-47128952D01*
X47002000Y-46354857D01*
X47074571Y-46161333D01*
X47219714Y-46064571D01*
X47510000Y-46064571D01*
X47655142Y-46161333D01*
X47727714Y-46354857D01*
X47727714Y-46548380D01*
X47002000Y-46741904D01*
X48380857Y-46064571D02*
X48380857Y-48096571D01*
X48380857Y-46161333D02*
X48526000Y-46064571D01*
X48816285Y-46064571D01*
X48961428Y-46161333D01*
X49034000Y-46258095D01*
X49106571Y-46451619D01*
X49106571Y-47032190D01*
X49034000Y-47225714D01*
X48961428Y-47322476D01*
X48816285Y-47419238D01*
X48526000Y-47419238D01*
X48380857Y-47322476D01*
X49759714Y-47419238D02*
X49759714Y-46064571D01*
X49759714Y-46451619D02*
X49832285Y-46258095D01*
X49904857Y-46161333D01*
X50050000Y-46064571D01*
X50195142Y-46064571D01*
X51283714Y-47322476D02*
X51138571Y-47419238D01*
X50848285Y-47419238D01*
X50703142Y-47322476D01*
X50630571Y-47128952D01*
X50630571Y-46354857D01*
X50703142Y-46161333D01*
X50848285Y-46064571D01*
X51138571Y-46064571D01*
X51283714Y-46161333D01*
X51356285Y-46354857D01*
X51356285Y-46548380D01*
X50630571Y-46741904D01*
X52662571Y-46064571D02*
X52662571Y-47709523D01*
X52590000Y-47903047D01*
X52517428Y-47999809D01*
X52372285Y-48096571D01*
X52154571Y-48096571D01*
X52009428Y-47999809D01*
X52662571Y-47322476D02*
X52517428Y-47419238D01*
X52227142Y-47419238D01*
X52082000Y-47322476D01*
X52009428Y-47225714D01*
X51936857Y-47032190D01*
X51936857Y-46451619D01*
X52009428Y-46258095D01*
X52082000Y-46161333D01*
X52227142Y-46064571D01*
X52517428Y-46064571D01*
X52662571Y-46161333D01*
X55347714Y-47419238D02*
X54476857Y-47419238D01*
X54912285Y-47419238D02*
X54912285Y-45387238D01*
X54767142Y-45677523D01*
X54622000Y-45871047D01*
X54476857Y-45967809D01*
X55855714Y-47419238D02*
X56654000Y-46064571D01*
X55855714Y-46064571D02*
X56654000Y-47419238D01*
X58250571Y-45387238D02*
X59266571Y-45387238D01*
X58613428Y-47419238D01*
X60500285Y-45387238D02*
X60210000Y-45387238D01*
X60064857Y-45484000D01*
X59992285Y-45580761D01*
X59847142Y-45871047D01*
X59774571Y-46258095D01*
X59774571Y-47032190D01*
X59847142Y-47225714D01*
X59919714Y-47322476D01*
X60064857Y-47419238D01*
X60355142Y-47419238D01*
X60500285Y-47322476D01*
X60572857Y-47225714D01*
X60645428Y-47032190D01*
X60645428Y-46548380D01*
X60572857Y-46354857D01*
X60500285Y-46258095D01*
X60355142Y-46161333D01*
X60064857Y-46161333D01*
X59919714Y-46258095D01*
X59847142Y-46354857D01*
X59774571Y-46548380D01*
X61226000Y-45580761D02*
X61298571Y-45484000D01*
X61443714Y-45387238D01*
X61806571Y-45387238D01*
X61951714Y-45484000D01*
X62024285Y-45580761D01*
X62096857Y-45774285D01*
X62096857Y-45967809D01*
X62024285Y-46258095D01*
X61153428Y-47419238D01*
X62096857Y-47419238D01*
X62967714Y-46258095D02*
X62822571Y-46161333D01*
X62750000Y-46064571D01*
X62677428Y-45871047D01*
X62677428Y-45774285D01*
X62750000Y-45580761D01*
X62822571Y-45484000D01*
X62967714Y-45387238D01*
X63258000Y-45387238D01*
X63403142Y-45484000D01*
X63475714Y-45580761D01*
X63548285Y-45774285D01*
X63548285Y-45871047D01*
X63475714Y-46064571D01*
X63403142Y-46161333D01*
X63258000Y-46258095D01*
X62967714Y-46258095D01*
X62822571Y-46354857D01*
X62750000Y-46451619D01*
X62677428Y-46645142D01*
X62677428Y-47032190D01*
X62750000Y-47225714D01*
X62822571Y-47322476D01*
X62967714Y-47419238D01*
X63258000Y-47419238D01*
X63403142Y-47322476D01*
X63475714Y-47225714D01*
X63548285Y-47032190D01*
X63548285Y-46645142D01*
X63475714Y-46451619D01*
X63403142Y-46354857D01*
X63258000Y-46258095D01*
X65362571Y-47419238D02*
X65362571Y-45387238D01*
X66233428Y-47419238D01*
X66233428Y-45387238D01*
X67612285Y-47419238D02*
X67612285Y-46354857D01*
X67539714Y-46161333D01*
X67394571Y-46064571D01*
X67104285Y-46064571D01*
X66959142Y-46161333D01*
X67612285Y-47322476D02*
X67467142Y-47419238D01*
X67104285Y-47419238D01*
X66959142Y-47322476D01*
X66886571Y-47128952D01*
X66886571Y-46935428D01*
X66959142Y-46741904D01*
X67104285Y-46645142D01*
X67467142Y-46645142D01*
X67612285Y-46548380D01*
X68338000Y-46064571D02*
X68338000Y-47419238D01*
X68338000Y-46258095D02*
X68410571Y-46161333D01*
X68555714Y-46064571D01*
X68773428Y-46064571D01*
X68918571Y-46161333D01*
X68991142Y-46354857D01*
X68991142Y-47419238D01*
X69571714Y-46064571D02*
X69934571Y-47419238D01*
X70297428Y-46064571D02*
X69934571Y-47419238D01*
X69789428Y-47903047D01*
X69716857Y-47999809D01*
X69571714Y-48096571D01*
X71531142Y-47419238D02*
X71531142Y-46354857D01*
X71458571Y-46161333D01*
X71313428Y-46064571D01*
X71023142Y-46064571D01*
X70878000Y-46161333D01*
X71531142Y-47322476D02*
X71386000Y-47419238D01*
X71023142Y-47419238D01*
X70878000Y-47322476D01*
X70805428Y-47128952D01*
X70805428Y-46935428D01*
X70878000Y-46741904D01*
X71023142Y-46645142D01*
X71386000Y-46645142D01*
X71531142Y-46548380D01*
X73418000Y-47419238D02*
X73418000Y-45387238D01*
X74288857Y-47419238D01*
X74288857Y-45387238D01*
X75304857Y-46451619D02*
X75304857Y-47419238D01*
X74796857Y-45387238D02*
X75304857Y-46451619D01*
X75812857Y-45387238D01*
X77119142Y-47419238D02*
X76248285Y-47419238D01*
X76683714Y-47419238D02*
X76683714Y-45387238D01*
X76538571Y-45677523D01*
X76393428Y-45871047D01*
X76248285Y-45967809D01*
X78570571Y-47419238D02*
X77699714Y-47419238D01*
X78135142Y-47419238D02*
X78135142Y-45387238D01*
X77990000Y-45677523D01*
X77844857Y-45871047D01*
X77699714Y-45967809D01*
X79876857Y-46064571D02*
X79876857Y-47419238D01*
X79514000Y-45290476D02*
X79151142Y-46741904D01*
X80094571Y-46741904D01*
X80965428Y-45387238D02*
X81110571Y-45387238D01*
X81255714Y-45484000D01*
X81328285Y-45580761D01*
X81400857Y-45774285D01*
X81473428Y-46161333D01*
X81473428Y-46645142D01*
X81400857Y-47032190D01*
X81328285Y-47225714D01*
X81255714Y-47322476D01*
X81110571Y-47419238D01*
X80965428Y-47419238D01*
X80820285Y-47322476D01*
X80747714Y-47225714D01*
X80675142Y-47032190D01*
X80602571Y-46645142D01*
X80602571Y-46161333D01*
X80675142Y-45774285D01*
X80747714Y-45580761D01*
X80820285Y-45484000D01*
X80965428Y-45387238D01*
X82126571Y-47225714D02*
X82199142Y-47322476D01*
X82126571Y-47419238D01*
X82054000Y-47322476D01*
X82126571Y-47225714D01*
X82126571Y-47419238D01*
X82126571Y-46161333D02*
X82199142Y-46258095D01*
X82126571Y-46354857D01*
X82054000Y-46258095D01*
X82126571Y-46161333D01*
X82126571Y-46354857D01*
X84303714Y-45387238D02*
X84448857Y-45387238D01*
X84594000Y-45484000D01*
X84666571Y-45580761D01*
X84739142Y-45774285D01*
X84811714Y-46161333D01*
X84811714Y-46645142D01*
X84739142Y-47032190D01*
X84666571Y-47225714D01*
X84594000Y-47322476D01*
X84448857Y-47419238D01*
X84303714Y-47419238D01*
X84158571Y-47322476D01*
X84086000Y-47225714D01*
X84013428Y-47032190D01*
X83940857Y-46645142D01*
X83940857Y-46161333D01*
X84013428Y-45774285D01*
X84086000Y-45580761D01*
X84158571Y-45484000D01*
X84303714Y-45387238D01*
X85537428Y-47322476D02*
X85537428Y-47419238D01*
X85464857Y-47612761D01*
X85392285Y-47709523D01*
X86988857Y-47419238D02*
X86118000Y-47419238D01*
X86553428Y-47419238D02*
X86553428Y-45387238D01*
X86408285Y-45677523D01*
X86263142Y-45871047D01*
X86118000Y-45967809D01*
X87714571Y-47419238D02*
X88004857Y-47419238D01*
X88150000Y-47322476D01*
X88222571Y-47225714D01*
X88367714Y-46935428D01*
X88440285Y-46548380D01*
X88440285Y-45774285D01*
X88367714Y-45580761D01*
X88295142Y-45484000D01*
X88150000Y-45387238D01*
X87859714Y-45387238D01*
X87714571Y-45484000D01*
X87642000Y-45580761D01*
X87569428Y-45774285D01*
X87569428Y-46258095D01*
X87642000Y-46451619D01*
X87714571Y-46548380D01*
X87859714Y-46645142D01*
X88150000Y-46645142D01*
X88295142Y-46548380D01*
X88367714Y-46451619D01*
X88440285Y-46258095D01*
X90254571Y-47419238D02*
X90254571Y-46064571D01*
X90254571Y-46258095D02*
X90327142Y-46161333D01*
X90472285Y-46064571D01*
X90690000Y-46064571D01*
X90835142Y-46161333D01*
X90907714Y-46354857D01*
X90907714Y-47419238D01*
X90907714Y-46354857D02*
X90980285Y-46161333D01*
X91125428Y-46064571D01*
X91343142Y-46064571D01*
X91488285Y-46161333D01*
X91560857Y-46354857D01*
X91560857Y-47419238D01*
X92286571Y-47419238D02*
X92286571Y-46064571D01*
X92286571Y-46258095D02*
X92359142Y-46161333D01*
X92504285Y-46064571D01*
X92722000Y-46064571D01*
X92867142Y-46161333D01*
X92939714Y-46354857D01*
X92939714Y-47419238D01*
X92939714Y-46354857D02*
X93012285Y-46161333D01*
X93157428Y-46064571D01*
X93375142Y-46064571D01*
X93520285Y-46161333D01*
X93592857Y-46354857D01*
X93592857Y-47419238D01*
X43857142Y-33039238D02*
X43857142Y-31007238D01*
X44437714Y-31007238D01*
X44582857Y-31104000D01*
X44655428Y-31200761D01*
X44728000Y-31394285D01*
X44728000Y-31684571D01*
X44655428Y-31878095D01*
X44582857Y-31974857D01*
X44437714Y-32071619D01*
X43857142Y-32071619D01*
X45381142Y-33039238D02*
X45381142Y-31684571D01*
X45381142Y-32071619D02*
X45453714Y-31878095D01*
X45526285Y-31781333D01*
X45671428Y-31684571D01*
X45816571Y-31684571D01*
X46905142Y-32942476D02*
X46760000Y-33039238D01*
X46469714Y-33039238D01*
X46324571Y-32942476D01*
X46252000Y-32748952D01*
X46252000Y-31974857D01*
X46324571Y-31781333D01*
X46469714Y-31684571D01*
X46760000Y-31684571D01*
X46905142Y-31781333D01*
X46977714Y-31974857D01*
X46977714Y-32168380D01*
X46252000Y-32361904D01*
X47630857Y-31684571D02*
X47630857Y-33716571D01*
X47630857Y-31781333D02*
X47776000Y-31684571D01*
X48066285Y-31684571D01*
X48211428Y-31781333D01*
X48284000Y-31878095D01*
X48356571Y-32071619D01*
X48356571Y-32652190D01*
X48284000Y-32845714D01*
X48211428Y-32942476D01*
X48066285Y-33039238D01*
X47776000Y-33039238D01*
X47630857Y-32942476D01*
X49009714Y-33039238D02*
X49009714Y-31684571D01*
X49009714Y-32071619D02*
X49082285Y-31878095D01*
X49154857Y-31781333D01*
X49300000Y-31684571D01*
X49445142Y-31684571D01*
X50533714Y-32942476D02*
X50388571Y-33039238D01*
X50098285Y-33039238D01*
X49953142Y-32942476D01*
X49880571Y-32748952D01*
X49880571Y-31974857D01*
X49953142Y-31781333D01*
X50098285Y-31684571D01*
X50388571Y-31684571D01*
X50533714Y-31781333D01*
X50606285Y-31974857D01*
X50606285Y-32168380D01*
X49880571Y-32361904D01*
X51912571Y-31684571D02*
X51912571Y-33329523D01*
X51840000Y-33523047D01*
X51767428Y-33619809D01*
X51622285Y-33716571D01*
X51404571Y-33716571D01*
X51259428Y-33619809D01*
X51912571Y-32942476D02*
X51767428Y-33039238D01*
X51477142Y-33039238D01*
X51332000Y-32942476D01*
X51259428Y-32845714D01*
X51186857Y-32652190D01*
X51186857Y-32071619D01*
X51259428Y-31878095D01*
X51332000Y-31781333D01*
X51477142Y-31684571D01*
X51767428Y-31684571D01*
X51912571Y-31781333D01*
X54597714Y-33039238D02*
X53726857Y-33039238D01*
X54162285Y-33039238D02*
X54162285Y-31007238D01*
X54017142Y-31297523D01*
X53872000Y-31491047D01*
X53726857Y-31587809D01*
X55105714Y-33039238D02*
X55904000Y-31684571D01*
X55105714Y-31684571D02*
X55904000Y-33039238D01*
X57500571Y-31007238D02*
X58516571Y-31007238D01*
X57863428Y-33039238D01*
X59750285Y-31007238D02*
X59460000Y-31007238D01*
X59314857Y-31104000D01*
X59242285Y-31200761D01*
X59097142Y-31491047D01*
X59024571Y-31878095D01*
X59024571Y-32652190D01*
X59097142Y-32845714D01*
X59169714Y-32942476D01*
X59314857Y-33039238D01*
X59605142Y-33039238D01*
X59750285Y-32942476D01*
X59822857Y-32845714D01*
X59895428Y-32652190D01*
X59895428Y-32168380D01*
X59822857Y-31974857D01*
X59750285Y-31878095D01*
X59605142Y-31781333D01*
X59314857Y-31781333D01*
X59169714Y-31878095D01*
X59097142Y-31974857D01*
X59024571Y-32168380D01*
X60476000Y-31200761D02*
X60548571Y-31104000D01*
X60693714Y-31007238D01*
X61056571Y-31007238D01*
X61201714Y-31104000D01*
X61274285Y-31200761D01*
X61346857Y-31394285D01*
X61346857Y-31587809D01*
X61274285Y-31878095D01*
X60403428Y-33039238D01*
X61346857Y-33039238D01*
X62217714Y-31878095D02*
X62072571Y-31781333D01*
X62000000Y-31684571D01*
X61927428Y-31491047D01*
X61927428Y-31394285D01*
X62000000Y-31200761D01*
X62072571Y-31104000D01*
X62217714Y-31007238D01*
X62508000Y-31007238D01*
X62653142Y-31104000D01*
X62725714Y-31200761D01*
X62798285Y-31394285D01*
X62798285Y-31491047D01*
X62725714Y-31684571D01*
X62653142Y-31781333D01*
X62508000Y-31878095D01*
X62217714Y-31878095D01*
X62072571Y-31974857D01*
X62000000Y-32071619D01*
X61927428Y-32265142D01*
X61927428Y-32652190D01*
X62000000Y-32845714D01*
X62072571Y-32942476D01*
X62217714Y-33039238D01*
X62508000Y-33039238D01*
X62653142Y-32942476D01*
X62725714Y-32845714D01*
X62798285Y-32652190D01*
X62798285Y-32265142D01*
X62725714Y-32071619D01*
X62653142Y-31974857D01*
X62508000Y-31878095D01*
X64612571Y-33039238D02*
X64612571Y-31007238D01*
X65483428Y-33039238D01*
X65483428Y-31007238D01*
X66862285Y-33039238D02*
X66862285Y-31974857D01*
X66789714Y-31781333D01*
X66644571Y-31684571D01*
X66354285Y-31684571D01*
X66209142Y-31781333D01*
X66862285Y-32942476D02*
X66717142Y-33039238D01*
X66354285Y-33039238D01*
X66209142Y-32942476D01*
X66136571Y-32748952D01*
X66136571Y-32555428D01*
X66209142Y-32361904D01*
X66354285Y-32265142D01*
X66717142Y-32265142D01*
X66862285Y-32168380D01*
X67588000Y-31684571D02*
X67588000Y-33039238D01*
X67588000Y-31878095D02*
X67660571Y-31781333D01*
X67805714Y-31684571D01*
X68023428Y-31684571D01*
X68168571Y-31781333D01*
X68241142Y-31974857D01*
X68241142Y-33039238D01*
X68821714Y-31684571D02*
X69184571Y-33039238D01*
X69547428Y-31684571D02*
X69184571Y-33039238D01*
X69039428Y-33523047D01*
X68966857Y-33619809D01*
X68821714Y-33716571D01*
X70781142Y-33039238D02*
X70781142Y-31974857D01*
X70708571Y-31781333D01*
X70563428Y-31684571D01*
X70273142Y-31684571D01*
X70128000Y-31781333D01*
X70781142Y-32942476D02*
X70636000Y-33039238D01*
X70273142Y-33039238D01*
X70128000Y-32942476D01*
X70055428Y-32748952D01*
X70055428Y-32555428D01*
X70128000Y-32361904D01*
X70273142Y-32265142D01*
X70636000Y-32265142D01*
X70781142Y-32168380D01*
X72668000Y-33039238D02*
X72668000Y-31007238D01*
X73538857Y-33039238D01*
X73538857Y-31007238D01*
X74554857Y-32071619D02*
X74554857Y-33039238D01*
X74046857Y-31007238D02*
X74554857Y-32071619D01*
X75062857Y-31007238D01*
X76369142Y-33039238D02*
X75498285Y-33039238D01*
X75933714Y-33039238D02*
X75933714Y-31007238D01*
X75788571Y-31297523D01*
X75643428Y-31491047D01*
X75498285Y-31587809D01*
X77820571Y-33039238D02*
X76949714Y-33039238D01*
X77385142Y-33039238D02*
X77385142Y-31007238D01*
X77240000Y-31297523D01*
X77094857Y-31491047D01*
X76949714Y-31587809D01*
X79126857Y-31684571D02*
X79126857Y-33039238D01*
X78764000Y-30910476D02*
X78401142Y-32361904D01*
X79344571Y-32361904D01*
X80215428Y-31007238D02*
X80360571Y-31007238D01*
X80505714Y-31104000D01*
X80578285Y-31200761D01*
X80650857Y-31394285D01*
X80723428Y-31781333D01*
X80723428Y-32265142D01*
X80650857Y-32652190D01*
X80578285Y-32845714D01*
X80505714Y-32942476D01*
X80360571Y-33039238D01*
X80215428Y-33039238D01*
X80070285Y-32942476D01*
X79997714Y-32845714D01*
X79925142Y-32652190D01*
X79852571Y-32265142D01*
X79852571Y-31781333D01*
X79925142Y-31394285D01*
X79997714Y-31200761D01*
X80070285Y-31104000D01*
X80215428Y-31007238D01*
X81376571Y-32845714D02*
X81449142Y-32942476D01*
X81376571Y-33039238D01*
X81304000Y-32942476D01*
X81376571Y-32845714D01*
X81376571Y-33039238D01*
X81376571Y-31781333D02*
X81449142Y-31878095D01*
X81376571Y-31974857D01*
X81304000Y-31878095D01*
X81376571Y-31781333D01*
X81376571Y-31974857D01*
X83553714Y-31007238D02*
X83698857Y-31007238D01*
X83844000Y-31104000D01*
X83916571Y-31200761D01*
X83989142Y-31394285D01*
X84061714Y-31781333D01*
X84061714Y-32265142D01*
X83989142Y-32652190D01*
X83916571Y-32845714D01*
X83844000Y-32942476D01*
X83698857Y-33039238D01*
X83553714Y-33039238D01*
X83408571Y-32942476D01*
X83336000Y-32845714D01*
X83263428Y-32652190D01*
X83190857Y-32265142D01*
X83190857Y-31781333D01*
X83263428Y-31394285D01*
X83336000Y-31200761D01*
X83408571Y-31104000D01*
X83553714Y-31007238D01*
X84787428Y-32942476D02*
X84787428Y-33039238D01*
X84714857Y-33232761D01*
X84642285Y-33329523D01*
X86238857Y-33039238D02*
X85368000Y-33039238D01*
X85803428Y-33039238D02*
X85803428Y-31007238D01*
X85658285Y-31297523D01*
X85513142Y-31491047D01*
X85368000Y-31587809D01*
X86964571Y-33039238D02*
X87254857Y-33039238D01*
X87400000Y-32942476D01*
X87472571Y-32845714D01*
X87617714Y-32555428D01*
X87690285Y-32168380D01*
X87690285Y-31394285D01*
X87617714Y-31200761D01*
X87545142Y-31104000D01*
X87400000Y-31007238D01*
X87109714Y-31007238D01*
X86964571Y-31104000D01*
X86892000Y-31200761D01*
X86819428Y-31394285D01*
X86819428Y-31878095D01*
X86892000Y-32071619D01*
X86964571Y-32168380D01*
X87109714Y-32265142D01*
X87400000Y-32265142D01*
X87545142Y-32168380D01*
X87617714Y-32071619D01*
X87690285Y-31878095D01*
X89504571Y-33039238D02*
X89504571Y-31684571D01*
X89504571Y-31878095D02*
X89577142Y-31781333D01*
X89722285Y-31684571D01*
X89940000Y-31684571D01*
X90085142Y-31781333D01*
X90157714Y-31974857D01*
X90157714Y-33039238D01*
X90157714Y-31974857D02*
X90230285Y-31781333D01*
X90375428Y-31684571D01*
X90593142Y-31684571D01*
X90738285Y-31781333D01*
X90810857Y-31974857D01*
X90810857Y-33039238D01*
X91536571Y-33039238D02*
X91536571Y-31684571D01*
X91536571Y-31878095D02*
X91609142Y-31781333D01*
X91754285Y-31684571D01*
X91972000Y-31684571D01*
X92117142Y-31781333D01*
X92189714Y-31974857D01*
X92189714Y-33039238D01*
X92189714Y-31974857D02*
X92262285Y-31781333D01*
X92407428Y-31684571D01*
X92625142Y-31684571D01*
X92770285Y-31781333D01*
X92842857Y-31974857D01*
X92842857Y-33039238D01*
X48396857Y-43322476D02*
X48614571Y-43419238D01*
X48977428Y-43419238D01*
X49122571Y-43322476D01*
X49195142Y-43225714D01*
X49267714Y-43032190D01*
X49267714Y-42838666D01*
X49195142Y-42645142D01*
X49122571Y-42548380D01*
X48977428Y-42451619D01*
X48687142Y-42354857D01*
X48542000Y-42258095D01*
X48469428Y-42161333D01*
X48396857Y-41967809D01*
X48396857Y-41774285D01*
X48469428Y-41580761D01*
X48542000Y-41484000D01*
X48687142Y-41387238D01*
X49050000Y-41387238D01*
X49267714Y-41484000D01*
X49703142Y-42064571D02*
X50283714Y-42064571D01*
X49920857Y-41387238D02*
X49920857Y-43128952D01*
X49993428Y-43322476D01*
X50138571Y-43419238D01*
X50283714Y-43419238D01*
X50791714Y-43419238D02*
X50791714Y-42064571D01*
X50791714Y-42451619D02*
X50864285Y-42258095D01*
X50936857Y-42161333D01*
X51082000Y-42064571D01*
X51227142Y-42064571D01*
X51735142Y-43419238D02*
X51735142Y-42064571D01*
X51735142Y-41387238D02*
X51662571Y-41484000D01*
X51735142Y-41580761D01*
X51807714Y-41484000D01*
X51735142Y-41387238D01*
X51735142Y-41580761D01*
X52460857Y-42064571D02*
X52460857Y-44096571D01*
X52460857Y-42161333D02*
X52606000Y-42064571D01*
X52896285Y-42064571D01*
X53041428Y-42161333D01*
X53114000Y-42258095D01*
X53186571Y-42451619D01*
X53186571Y-43032190D01*
X53114000Y-43225714D01*
X53041428Y-43322476D01*
X52896285Y-43419238D01*
X52606000Y-43419238D01*
X52460857Y-43322476D01*
X54057428Y-43419238D02*
X53912285Y-43322476D01*
X53839714Y-43128952D01*
X53839714Y-41387238D01*
X54638000Y-43419238D02*
X54638000Y-42064571D01*
X54638000Y-41387238D02*
X54565428Y-41484000D01*
X54638000Y-41580761D01*
X54710571Y-41484000D01*
X54638000Y-41387238D01*
X54638000Y-41580761D01*
X55363714Y-42064571D02*
X55363714Y-43419238D01*
X55363714Y-42258095D02*
X55436285Y-42161333D01*
X55581428Y-42064571D01*
X55799142Y-42064571D01*
X55944285Y-42161333D01*
X56016857Y-42354857D01*
X56016857Y-43419238D01*
X57323142Y-43322476D02*
X57178000Y-43419238D01*
X56887714Y-43419238D01*
X56742571Y-43322476D01*
X56670000Y-43128952D01*
X56670000Y-42354857D01*
X56742571Y-42161333D01*
X56887714Y-42064571D01*
X57178000Y-42064571D01*
X57323142Y-42161333D01*
X57395714Y-42354857D01*
X57395714Y-42548380D01*
X56670000Y-42741904D01*
X60298571Y-41290476D02*
X58992285Y-43903047D01*
X61967714Y-42354857D02*
X62475714Y-42354857D01*
X62693428Y-43419238D02*
X61967714Y-43419238D01*
X61967714Y-41387238D01*
X62693428Y-41387238D01*
X63999714Y-43419238D02*
X63999714Y-41387238D01*
X63999714Y-43322476D02*
X63854571Y-43419238D01*
X63564285Y-43419238D01*
X63419142Y-43322476D01*
X63346571Y-43225714D01*
X63273999Y-43032190D01*
X63273999Y-42451619D01*
X63346571Y-42258095D01*
X63419142Y-42161333D01*
X63564285Y-42064571D01*
X63854571Y-42064571D01*
X63999714Y-42161333D01*
X65378571Y-42064571D02*
X65378571Y-43709523D01*
X65305999Y-43903047D01*
X65233428Y-43999809D01*
X65088285Y-44096571D01*
X64870571Y-44096571D01*
X64725428Y-43999809D01*
X65378571Y-43322476D02*
X65233428Y-43419238D01*
X64943142Y-43419238D01*
X64797999Y-43322476D01*
X64725428Y-43225714D01*
X64652857Y-43032190D01*
X64652857Y-42451619D01*
X64725428Y-42258095D01*
X64797999Y-42161333D01*
X64943142Y-42064571D01*
X65233428Y-42064571D01*
X65378571Y-42161333D01*
X66684857Y-43322476D02*
X66539714Y-43419238D01*
X66249428Y-43419238D01*
X66104285Y-43322476D01*
X66031714Y-43128952D01*
X66031714Y-42354857D01*
X66104285Y-42161333D01*
X66249428Y-42064571D01*
X66539714Y-42064571D01*
X66684857Y-42161333D01*
X66757428Y-42354857D01*
X66757428Y-42548380D01*
X66031714Y-42741904D01*
X69442571Y-43225714D02*
X69370000Y-43322476D01*
X69152285Y-43419238D01*
X69007142Y-43419238D01*
X68789428Y-43322476D01*
X68644285Y-43128952D01*
X68571714Y-42935428D01*
X68499142Y-42548380D01*
X68499142Y-42258095D01*
X68571714Y-41871047D01*
X68644285Y-41677523D01*
X68789428Y-41484000D01*
X69007142Y-41387238D01*
X69152285Y-41387238D01*
X69370000Y-41484000D01*
X69442571Y-41580761D01*
X70313428Y-43419238D02*
X70168285Y-43322476D01*
X70095714Y-43225714D01*
X70023142Y-43032190D01*
X70023142Y-42451619D01*
X70095714Y-42258095D01*
X70168285Y-42161333D01*
X70313428Y-42064571D01*
X70531142Y-42064571D01*
X70676285Y-42161333D01*
X70748857Y-42258095D01*
X70821428Y-42451619D01*
X70821428Y-43032190D01*
X70748857Y-43225714D01*
X70676285Y-43322476D01*
X70531142Y-43419238D01*
X70313428Y-43419238D01*
X72127714Y-42064571D02*
X72127714Y-43419238D01*
X71474571Y-42064571D02*
X71474571Y-43128952D01*
X71547142Y-43322476D01*
X71692285Y-43419238D01*
X71909999Y-43419238D01*
X72055142Y-43322476D01*
X72127714Y-43225714D01*
X72853428Y-42064571D02*
X72853428Y-44096571D01*
X72853428Y-42161333D02*
X72998571Y-42064571D01*
X73288857Y-42064571D01*
X73433999Y-42161333D01*
X73506571Y-42258095D01*
X73579142Y-42451619D01*
X73579142Y-43032190D01*
X73506571Y-43225714D01*
X73433999Y-43322476D01*
X73288857Y-43419238D01*
X72998571Y-43419238D01*
X72853428Y-43322476D01*
X74449999Y-43419238D02*
X74304857Y-43322476D01*
X74232285Y-43128952D01*
X74232285Y-41387238D01*
X75611142Y-43322476D02*
X75465999Y-43419238D01*
X75175714Y-43419238D01*
X75030571Y-43322476D01*
X74957999Y-43128952D01*
X74957999Y-42354857D01*
X75030571Y-42161333D01*
X75175714Y-42064571D01*
X75465999Y-42064571D01*
X75611142Y-42161333D01*
X75683714Y-42354857D01*
X75683714Y-42548380D01*
X74957999Y-42741904D01*
X76989999Y-43419238D02*
X76989999Y-41387238D01*
X76989999Y-43322476D02*
X76844857Y-43419238D01*
X76554571Y-43419238D01*
X76409428Y-43322476D01*
X76336857Y-43225714D01*
X76264285Y-43032190D01*
X76264285Y-42451619D01*
X76336857Y-42258095D01*
X76409428Y-42161333D01*
X76554571Y-42064571D01*
X76844857Y-42064571D01*
X76989999Y-42161333D01*
X78804285Y-43322476D02*
X79021999Y-43419238D01*
X79384857Y-43419238D01*
X79529999Y-43322476D01*
X79602571Y-43225714D01*
X79675142Y-43032190D01*
X79675142Y-42838666D01*
X79602571Y-42645142D01*
X79529999Y-42548380D01*
X79384857Y-42451619D01*
X79094571Y-42354857D01*
X78949428Y-42258095D01*
X78876857Y-42161333D01*
X78804285Y-41967809D01*
X78804285Y-41774285D01*
X78876857Y-41580761D01*
X78949428Y-41484000D01*
X79094571Y-41387238D01*
X79457428Y-41387238D01*
X79675142Y-41484000D01*
X80110571Y-42064571D02*
X80691142Y-42064571D01*
X80328285Y-41387238D02*
X80328285Y-43128952D01*
X80400857Y-43322476D01*
X80545999Y-43419238D01*
X80691142Y-43419238D01*
X81199142Y-43419238D02*
X81199142Y-42064571D01*
X81199142Y-42451619D02*
X81271714Y-42258095D01*
X81344285Y-42161333D01*
X81489428Y-42064571D01*
X81634571Y-42064571D01*
X82142571Y-43419238D02*
X82142571Y-42064571D01*
X82142571Y-41387238D02*
X82069999Y-41484000D01*
X82142571Y-41580761D01*
X82215142Y-41484000D01*
X82142571Y-41387238D01*
X82142571Y-41580761D01*
X82868285Y-42064571D02*
X82868285Y-44096571D01*
X82868285Y-42161333D02*
X83013428Y-42064571D01*
X83303714Y-42064571D01*
X83448857Y-42161333D01*
X83521428Y-42258095D01*
X83593999Y-42451619D01*
X83593999Y-43032190D01*
X83521428Y-43225714D01*
X83448857Y-43322476D01*
X83303714Y-43419238D01*
X83013428Y-43419238D01*
X82868285Y-43322476D01*
X84464857Y-43419238D02*
X84319714Y-43322476D01*
X84247142Y-43128952D01*
X84247142Y-41387238D01*
X85045428Y-43419238D02*
X85045428Y-42064571D01*
X85045428Y-41387238D02*
X84972857Y-41484000D01*
X85045428Y-41580761D01*
X85117999Y-41484000D01*
X85045428Y-41387238D01*
X85045428Y-41580761D01*
X85771142Y-42064571D02*
X85771142Y-43419238D01*
X85771142Y-42258095D02*
X85843714Y-42161333D01*
X85988857Y-42064571D01*
X86206571Y-42064571D01*
X86351714Y-42161333D01*
X86424285Y-42354857D01*
X86424285Y-43419238D01*
X87730571Y-43322476D02*
X87585428Y-43419238D01*
X87295142Y-43419238D01*
X87149999Y-43322476D01*
X87077428Y-43128952D01*
X87077428Y-42354857D01*
X87149999Y-42161333D01*
X87295142Y-42064571D01*
X87585428Y-42064571D01*
X87730571Y-42161333D01*
X87803142Y-42354857D01*
X87803142Y-42548380D01*
X87077428Y-42741904D01*
D11*
X111473690Y-21079761D02*
X111473690Y-19079761D01*
X112616547Y-21079761D01*
X112616547Y-19079761D01*
X113854642Y-21079761D02*
X113664166Y-20984523D01*
X113568928Y-20889285D01*
X113473690Y-20698809D01*
X113473690Y-20127380D01*
X113568928Y-19936904D01*
X113664166Y-19841666D01*
X113854642Y-19746428D01*
X114140357Y-19746428D01*
X114330833Y-19841666D01*
X114426071Y-19936904D01*
X114521309Y-20127380D01*
X114521309Y-20698809D01*
X114426071Y-20889285D01*
X114330833Y-20984523D01*
X114140357Y-21079761D01*
X113854642Y-21079761D01*
X115092738Y-19746428D02*
X115854642Y-19746428D01*
X115378452Y-19079761D02*
X115378452Y-20794047D01*
X115473690Y-20984523D01*
X115664166Y-21079761D01*
X115854642Y-21079761D01*
X117378452Y-21079761D02*
X117378452Y-20032142D01*
X117283214Y-19841666D01*
X117092738Y-19746428D01*
X116711785Y-19746428D01*
X116521309Y-19841666D01*
X117378452Y-20984523D02*
X117187976Y-21079761D01*
X116711785Y-21079761D01*
X116521309Y-20984523D01*
X116426071Y-20794047D01*
X116426071Y-20603571D01*
X116521309Y-20413095D01*
X116711785Y-20317857D01*
X117187976Y-20317857D01*
X117378452Y-20222619D01*
X118235595Y-20984523D02*
X118426071Y-21079761D01*
X118807023Y-21079761D01*
X118997500Y-20984523D01*
X119092738Y-20794047D01*
X119092738Y-20698809D01*
X118997500Y-20508333D01*
X118807023Y-20413095D01*
X118521309Y-20413095D01*
X118330833Y-20317857D01*
X118235595Y-20127380D01*
X118235595Y-20032142D01*
X118330833Y-19841666D01*
X118521309Y-19746428D01*
X118807023Y-19746428D01*
X118997500Y-19841666D01*
X119949880Y-20889285D02*
X120045119Y-20984523D01*
X119949880Y-21079761D01*
X119854642Y-20984523D01*
X119949880Y-20889285D01*
X119949880Y-21079761D01*
X119949880Y-19841666D02*
X120045119Y-19936904D01*
X119949880Y-20032142D01*
X119854642Y-19936904D01*
X119949880Y-19841666D01*
X119949880Y-20032142D01*
X111473690Y-23182142D02*
X112140357Y-23182142D01*
X112426071Y-24229761D02*
X111473690Y-24229761D01*
X111473690Y-22229761D01*
X112426071Y-22229761D01*
X113187976Y-24134523D02*
X113378452Y-24229761D01*
X113759404Y-24229761D01*
X113949880Y-24134523D01*
X114045119Y-23944047D01*
X114045119Y-23848809D01*
X113949880Y-23658333D01*
X113759404Y-23563095D01*
X113473690Y-23563095D01*
X113283214Y-23467857D01*
X113187976Y-23277380D01*
X113187976Y-23182142D01*
X113283214Y-22991666D01*
X113473690Y-22896428D01*
X113759404Y-22896428D01*
X113949880Y-22991666D01*
X114616547Y-22896428D02*
X115378452Y-22896428D01*
X114902261Y-22229761D02*
X114902261Y-23944047D01*
X114997500Y-24134523D01*
X115187976Y-24229761D01*
X115378452Y-24229761D01*
X116807023Y-24134523D02*
X116616547Y-24229761D01*
X116235595Y-24229761D01*
X116045119Y-24134523D01*
X115949880Y-23944047D01*
X115949880Y-23182142D01*
X116045119Y-22991666D01*
X116235595Y-22896428D01*
X116616547Y-22896428D01*
X116807023Y-22991666D01*
X116902261Y-23182142D01*
X116902261Y-23372619D01*
X115949880Y-23563095D01*
X120140357Y-24134523D02*
X119949880Y-24229761D01*
X119568928Y-24229761D01*
X119378452Y-24134523D01*
X119283214Y-24039285D01*
X119187976Y-23848809D01*
X119187976Y-23277380D01*
X119283214Y-23086904D01*
X119378452Y-22991666D01*
X119568928Y-22896428D01*
X119949880Y-22896428D01*
X120140357Y-22991666D01*
X121854642Y-22896428D02*
X121854642Y-24229761D01*
X120997500Y-22896428D02*
X120997500Y-23944047D01*
X121092738Y-24134523D01*
X121283214Y-24229761D01*
X121568928Y-24229761D01*
X121759404Y-24134523D01*
X121854642Y-24039285D01*
X122807023Y-22896428D02*
X122807023Y-24896428D01*
X122807023Y-22991666D02*
X122997500Y-22896428D01*
X123378452Y-22896428D01*
X123568928Y-22991666D01*
X123664166Y-23086904D01*
X123759404Y-23277380D01*
X123759404Y-23848809D01*
X123664166Y-24039285D01*
X123568928Y-24134523D01*
X123378452Y-24229761D01*
X122997500Y-24229761D01*
X122807023Y-24134523D01*
X124902261Y-24229761D02*
X124711785Y-24134523D01*
X124616547Y-24039285D01*
X124521309Y-23848809D01*
X124521309Y-23277380D01*
X124616547Y-23086904D01*
X124711785Y-22991666D01*
X124902261Y-22896428D01*
X125187976Y-22896428D01*
X125378452Y-22991666D01*
X125473690Y-23086904D01*
X125568928Y-23277380D01*
X125568928Y-23848809D01*
X125473690Y-24039285D01*
X125378452Y-24134523D01*
X125187976Y-24229761D01*
X124902261Y-24229761D01*
X125283214Y-22134523D02*
X124997500Y-22420238D01*
X126426071Y-22896428D02*
X126426071Y-24229761D01*
X126426071Y-23086904D02*
X126521309Y-22991666D01*
X126711785Y-22896428D01*
X126997500Y-22896428D01*
X127187976Y-22991666D01*
X127283214Y-23182142D01*
X127283214Y-24229761D01*
X129473690Y-22896428D02*
X130235595Y-22896428D01*
X129759404Y-24229761D02*
X129759404Y-22515476D01*
X129854642Y-22325000D01*
X130045119Y-22229761D01*
X130235595Y-22229761D01*
X131759404Y-22896428D02*
X131759404Y-24229761D01*
X130902261Y-22896428D02*
X130902261Y-23944047D01*
X130997500Y-24134523D01*
X131187976Y-24229761D01*
X131473690Y-24229761D01*
X131664166Y-24134523D01*
X131759404Y-24039285D01*
X133473690Y-24134523D02*
X133283214Y-24229761D01*
X132902261Y-24229761D01*
X132711785Y-24134523D01*
X132616547Y-23944047D01*
X132616547Y-23182142D01*
X132711785Y-22991666D01*
X132902261Y-22896428D01*
X133283214Y-22896428D01*
X133473690Y-22991666D01*
X133568928Y-23182142D01*
X133568928Y-23372619D01*
X132616547Y-23563095D01*
X136807023Y-24229761D02*
X136807023Y-22229761D01*
X136807023Y-24134523D02*
X136616547Y-24229761D01*
X136235595Y-24229761D01*
X136045119Y-24134523D01*
X135949880Y-24039285D01*
X135854642Y-23848809D01*
X135854642Y-23277380D01*
X135949880Y-23086904D01*
X136045119Y-22991666D01*
X136235595Y-22896428D01*
X136616547Y-22896428D01*
X136807023Y-22991666D01*
X137759404Y-24229761D02*
X137759404Y-22896428D01*
X137759404Y-22229761D02*
X137664166Y-22325000D01*
X137759404Y-22420238D01*
X137854642Y-22325000D01*
X137759404Y-22229761D01*
X137759404Y-22420238D01*
X138616547Y-24134523D02*
X138807023Y-24229761D01*
X139187976Y-24229761D01*
X139378452Y-24134523D01*
X139473690Y-23944047D01*
X139473690Y-23848809D01*
X139378452Y-23658333D01*
X139187976Y-23563095D01*
X138902261Y-23563095D01*
X138711785Y-23467857D01*
X138616547Y-23277380D01*
X138616547Y-23182142D01*
X138711785Y-22991666D01*
X138902261Y-22896428D01*
X139187976Y-22896428D01*
X139378452Y-22991666D01*
X141092738Y-24134523D02*
X140902261Y-24229761D01*
X140521309Y-24229761D01*
X140330833Y-24134523D01*
X140235595Y-23944047D01*
X140235595Y-23182142D01*
X140330833Y-22991666D01*
X140521309Y-22896428D01*
X140902261Y-22896428D01*
X141092738Y-22991666D01*
X141187976Y-23182142D01*
X141187976Y-23372619D01*
X140235595Y-23563095D01*
X142045119Y-22896428D02*
X142045119Y-24229761D01*
X142045119Y-23086904D02*
X142140357Y-22991666D01*
X142330833Y-22896428D01*
X142616547Y-22896428D01*
X142807023Y-22991666D01*
X142902261Y-23182142D01*
X142902261Y-24229761D01*
X141949880Y-22420238D02*
X142045119Y-22325000D01*
X142235595Y-22229761D01*
X142616547Y-22420238D01*
X142807023Y-22325000D01*
X142902261Y-22229761D01*
X144711785Y-24229761D02*
X144711785Y-23182142D01*
X144616547Y-22991666D01*
X144426071Y-22896428D01*
X144045119Y-22896428D01*
X143854642Y-22991666D01*
X144711785Y-24134523D02*
X144521309Y-24229761D01*
X144045119Y-24229761D01*
X143854642Y-24134523D01*
X143759404Y-23944047D01*
X143759404Y-23753571D01*
X143854642Y-23563095D01*
X144045119Y-23467857D01*
X144521309Y-23467857D01*
X144711785Y-23372619D01*
X146521309Y-24229761D02*
X146521309Y-22229761D01*
X146521309Y-24134523D02*
X146330833Y-24229761D01*
X145949880Y-24229761D01*
X145759404Y-24134523D01*
X145664166Y-24039285D01*
X145568928Y-23848809D01*
X145568928Y-23277380D01*
X145664166Y-23086904D01*
X145759404Y-22991666D01*
X145949880Y-22896428D01*
X146330833Y-22896428D01*
X146521309Y-22991666D01*
X147759404Y-24229761D02*
X147568928Y-24134523D01*
X147473690Y-24039285D01*
X147378452Y-23848809D01*
X147378452Y-23277380D01*
X147473690Y-23086904D01*
X147568928Y-22991666D01*
X147759404Y-22896428D01*
X148045119Y-22896428D01*
X148235595Y-22991666D01*
X148330833Y-23086904D01*
X148426071Y-23277380D01*
X148426071Y-23848809D01*
X148330833Y-24039285D01*
X148235595Y-24134523D01*
X148045119Y-24229761D01*
X147759404Y-24229761D01*
X150807023Y-22896428D02*
X150807023Y-24896428D01*
X150807023Y-22991666D02*
X150997500Y-22896428D01*
X151378452Y-22896428D01*
X151568928Y-22991666D01*
X151664166Y-23086904D01*
X151759404Y-23277380D01*
X151759404Y-23848809D01*
X151664166Y-24039285D01*
X151568928Y-24134523D01*
X151378452Y-24229761D01*
X150997500Y-24229761D01*
X150807023Y-24134523D01*
X153473690Y-24229761D02*
X153473690Y-23182142D01*
X153378452Y-22991666D01*
X153187976Y-22896428D01*
X152807023Y-22896428D01*
X152616547Y-22991666D01*
X153473690Y-24134523D02*
X153283214Y-24229761D01*
X152807023Y-24229761D01*
X152616547Y-24134523D01*
X152521309Y-23944047D01*
X152521309Y-23753571D01*
X152616547Y-23563095D01*
X152807023Y-23467857D01*
X153283214Y-23467857D01*
X153473690Y-23372619D01*
X154426071Y-24229761D02*
X154426071Y-22896428D01*
X154426071Y-23277380D02*
X154521309Y-23086904D01*
X154616547Y-22991666D01*
X154807023Y-22896428D01*
X154997499Y-22896428D01*
X156521309Y-24229761D02*
X156521309Y-23182142D01*
X156426071Y-22991666D01*
X156235595Y-22896428D01*
X155854642Y-22896428D01*
X155664166Y-22991666D01*
X156521309Y-24134523D02*
X156330833Y-24229761D01*
X155854642Y-24229761D01*
X155664166Y-24134523D01*
X155568928Y-23944047D01*
X155568928Y-23753571D01*
X155664166Y-23563095D01*
X155854642Y-23467857D01*
X156330833Y-23467857D01*
X156521309Y-23372619D01*
X158902261Y-24134523D02*
X159092738Y-24229761D01*
X159473690Y-24229761D01*
X159664166Y-24134523D01*
X159759404Y-23944047D01*
X159759404Y-23848809D01*
X159664166Y-23658333D01*
X159473690Y-23563095D01*
X159187976Y-23563095D01*
X158997499Y-23467857D01*
X158902261Y-23277380D01*
X158902261Y-23182142D01*
X158997499Y-22991666D01*
X159187976Y-22896428D01*
X159473690Y-22896428D01*
X159664166Y-22991666D01*
X161378452Y-24134523D02*
X161187976Y-24229761D01*
X160807023Y-24229761D01*
X160616547Y-24134523D01*
X160521309Y-23944047D01*
X160521309Y-23182142D01*
X160616547Y-22991666D01*
X160807023Y-22896428D01*
X161187976Y-22896428D01*
X161378452Y-22991666D01*
X161473690Y-23182142D01*
X161473690Y-23372619D01*
X160521309Y-23563095D01*
X162330833Y-24229761D02*
X162330833Y-22896428D01*
X162330833Y-23277380D02*
X162426071Y-23086904D01*
X162521309Y-22991666D01*
X162711785Y-22896428D01*
X162902261Y-22896428D01*
X165092738Y-24229761D02*
X165092738Y-22896428D01*
X165092738Y-23086904D02*
X165187976Y-22991666D01*
X165378452Y-22896428D01*
X165664166Y-22896428D01*
X165854642Y-22991666D01*
X165949880Y-23182142D01*
X165949880Y-24229761D01*
X165949880Y-23182142D02*
X166045119Y-22991666D01*
X166235595Y-22896428D01*
X166521309Y-22896428D01*
X166711785Y-22991666D01*
X166807023Y-23182142D01*
X166807023Y-24229761D01*
X168521309Y-24134523D02*
X168330833Y-24229761D01*
X167949880Y-24229761D01*
X167759404Y-24134523D01*
X167664166Y-23944047D01*
X167664166Y-23182142D01*
X167759404Y-22991666D01*
X167949880Y-22896428D01*
X168330833Y-22896428D01*
X168521309Y-22991666D01*
X168616547Y-23182142D01*
X168616547Y-23372619D01*
X167664166Y-23563095D01*
X170330833Y-24229761D02*
X170330833Y-22229761D01*
X170330833Y-24134523D02*
X170140357Y-24229761D01*
X169759404Y-24229761D01*
X169568928Y-24134523D01*
X169473690Y-24039285D01*
X169378452Y-23848809D01*
X169378452Y-23277380D01*
X169473690Y-23086904D01*
X169568928Y-22991666D01*
X169759404Y-22896428D01*
X170140357Y-22896428D01*
X170330833Y-22991666D01*
X171283214Y-24229761D02*
X171283214Y-22896428D01*
X171283214Y-22229761D02*
X171187976Y-22325000D01*
X171283214Y-22420238D01*
X171378452Y-22325000D01*
X171283214Y-22229761D01*
X171283214Y-22420238D01*
X173092738Y-24229761D02*
X173092738Y-22229761D01*
X173092738Y-24134523D02*
X172902261Y-24229761D01*
X172521309Y-24229761D01*
X172330833Y-24134523D01*
X172235595Y-24039285D01*
X172140357Y-23848809D01*
X172140357Y-23277380D01*
X172235595Y-23086904D01*
X172330833Y-22991666D01*
X172521309Y-22896428D01*
X172902261Y-22896428D01*
X173092738Y-22991666D01*
X174330833Y-24229761D02*
X174140357Y-24134523D01*
X174045119Y-24039285D01*
X173949880Y-23848809D01*
X173949880Y-23277380D01*
X174045119Y-23086904D01*
X174140357Y-22991666D01*
X174330833Y-22896428D01*
X174616547Y-22896428D01*
X174807023Y-22991666D01*
X174902261Y-23086904D01*
X174997499Y-23277380D01*
X174997499Y-23848809D01*
X174902261Y-24039285D01*
X174807023Y-24134523D01*
X174616547Y-24229761D01*
X174330833Y-24229761D01*
X178235595Y-24134523D02*
X178045119Y-24229761D01*
X177664166Y-24229761D01*
X177473690Y-24134523D01*
X177378452Y-24039285D01*
X177283214Y-23848809D01*
X177283214Y-23277380D01*
X177378452Y-23086904D01*
X177473690Y-22991666D01*
X177664166Y-22896428D01*
X178045119Y-22896428D01*
X178235595Y-22991666D01*
X179378452Y-24229761D02*
X179187976Y-24134523D01*
X179092738Y-24039285D01*
X178997499Y-23848809D01*
X178997499Y-23277380D01*
X179092738Y-23086904D01*
X179187976Y-22991666D01*
X179378452Y-22896428D01*
X179664166Y-22896428D01*
X179854642Y-22991666D01*
X179949880Y-23086904D01*
X180045119Y-23277380D01*
X180045119Y-23848809D01*
X179949880Y-24039285D01*
X179854642Y-24134523D01*
X179664166Y-24229761D01*
X179378452Y-24229761D01*
X180902261Y-22896428D02*
X180902261Y-24229761D01*
X180902261Y-23086904D02*
X180997499Y-22991666D01*
X181187976Y-22896428D01*
X181473690Y-22896428D01*
X181664166Y-22991666D01*
X181759404Y-23182142D01*
X181759404Y-24229761D01*
X184521309Y-24229761D02*
X184330833Y-24134523D01*
X184235595Y-23944047D01*
X184235595Y-22229761D01*
X186140357Y-24229761D02*
X186140357Y-23182142D01*
X186045119Y-22991666D01*
X185854642Y-22896428D01*
X185473690Y-22896428D01*
X185283214Y-22991666D01*
X186140357Y-24134523D02*
X185949880Y-24229761D01*
X185473690Y-24229761D01*
X185283214Y-24134523D01*
X185187976Y-23944047D01*
X185187976Y-23753571D01*
X185283214Y-23563095D01*
X185473690Y-23467857D01*
X185949880Y-23467857D01*
X186140357Y-23372619D01*
X186997499Y-24134523D02*
X187187976Y-24229761D01*
X187568928Y-24229761D01*
X187759404Y-24134523D01*
X187854642Y-23944047D01*
X187854642Y-23848809D01*
X187759404Y-23658333D01*
X187568928Y-23563095D01*
X187283214Y-23563095D01*
X187092738Y-23467857D01*
X186997499Y-23277380D01*
X186997499Y-23182142D01*
X187092738Y-22991666D01*
X187283214Y-22896428D01*
X187568928Y-22896428D01*
X187759404Y-22991666D01*
X190140357Y-24134523D02*
X190330833Y-24229761D01*
X190711785Y-24229761D01*
X190902261Y-24134523D01*
X190997499Y-23944047D01*
X190997499Y-23848809D01*
X190902261Y-23658333D01*
X190711785Y-23563095D01*
X190426071Y-23563095D01*
X190235595Y-23467857D01*
X190140357Y-23277380D01*
X190140357Y-23182142D01*
X190235595Y-22991666D01*
X190426071Y-22896428D01*
X190711785Y-22896428D01*
X190902261Y-22991666D01*
X191854642Y-24229761D02*
X191854642Y-22896428D01*
X191854642Y-22229761D02*
X191759404Y-22325000D01*
X191854642Y-22420238D01*
X191949880Y-22325000D01*
X191854642Y-22229761D01*
X191854642Y-22420238D01*
X193664166Y-22896428D02*
X193664166Y-24515476D01*
X193568928Y-24705952D01*
X193473690Y-24801190D01*
X193283214Y-24896428D01*
X192997499Y-24896428D01*
X192807023Y-24801190D01*
X193664166Y-24134523D02*
X193473690Y-24229761D01*
X193092738Y-24229761D01*
X192902261Y-24134523D01*
X192807023Y-24039285D01*
X192711785Y-23848809D01*
X192711785Y-23277380D01*
X192807023Y-23086904D01*
X192902261Y-22991666D01*
X193092738Y-22896428D01*
X193473690Y-22896428D01*
X193664166Y-22991666D01*
X195473690Y-22896428D02*
X195473690Y-24229761D01*
X194616547Y-22896428D02*
X194616547Y-23944047D01*
X194711785Y-24134523D01*
X194902261Y-24229761D01*
X195187976Y-24229761D01*
X195378452Y-24134523D01*
X195473690Y-24039285D01*
X196426071Y-24229761D02*
X196426071Y-22896428D01*
X196426071Y-22229761D02*
X196330833Y-22325000D01*
X196426071Y-22420238D01*
X196521309Y-22325000D01*
X196426071Y-22229761D01*
X196426071Y-22420238D01*
X198140357Y-24134523D02*
X197949880Y-24229761D01*
X197568928Y-24229761D01*
X197378452Y-24134523D01*
X197283214Y-23944047D01*
X197283214Y-23182142D01*
X197378452Y-22991666D01*
X197568928Y-22896428D01*
X197949880Y-22896428D01*
X198140357Y-22991666D01*
X198235595Y-23182142D01*
X198235595Y-23372619D01*
X197283214Y-23563095D01*
X199092738Y-22896428D02*
X199092738Y-24229761D01*
X199092738Y-23086904D02*
X199187976Y-22991666D01*
X199378452Y-22896428D01*
X199664166Y-22896428D01*
X199854642Y-22991666D01*
X199949880Y-23182142D01*
X199949880Y-24229761D01*
X200616547Y-22896428D02*
X201378452Y-22896428D01*
X200902261Y-22229761D02*
X200902261Y-23944047D01*
X200997499Y-24134523D01*
X201187976Y-24229761D01*
X201378452Y-24229761D01*
X202807023Y-24134523D02*
X202616547Y-24229761D01*
X202235595Y-24229761D01*
X202045119Y-24134523D01*
X201949880Y-23944047D01*
X201949880Y-23182142D01*
X202045119Y-22991666D01*
X202235595Y-22896428D01*
X202616547Y-22896428D01*
X202807023Y-22991666D01*
X202902261Y-23182142D01*
X202902261Y-23372619D01*
X201949880Y-23563095D01*
X203664166Y-24134523D02*
X203854642Y-24229761D01*
X204235595Y-24229761D01*
X204426071Y-24134523D01*
X204521309Y-23944047D01*
X204521309Y-23848809D01*
X204426071Y-23658333D01*
X204235595Y-23563095D01*
X203949880Y-23563095D01*
X203759404Y-23467857D01*
X203664166Y-23277380D01*
X203664166Y-23182142D01*
X203759404Y-22991666D01*
X203949880Y-22896428D01*
X204235595Y-22896428D01*
X204426071Y-22991666D01*
X206902261Y-22896428D02*
X206902261Y-24896428D01*
X206902261Y-22991666D02*
X207092738Y-22896428D01*
X207473690Y-22896428D01*
X207664166Y-22991666D01*
X207759404Y-23086904D01*
X207854642Y-23277380D01*
X207854642Y-23848809D01*
X207759404Y-24039285D01*
X207664166Y-24134523D01*
X207473690Y-24229761D01*
X207092738Y-24229761D01*
X206902261Y-24134523D01*
X209568928Y-22896428D02*
X209568928Y-24229761D01*
X208711785Y-22896428D02*
X208711785Y-23944047D01*
X208807023Y-24134523D01*
X208997499Y-24229761D01*
X209283214Y-24229761D01*
X209473690Y-24134523D01*
X209568928Y-24039285D01*
X210521309Y-22896428D02*
X210521309Y-24229761D01*
X210521309Y-23086904D02*
X210616547Y-22991666D01*
X210807023Y-22896428D01*
X211092738Y-22896428D01*
X211283214Y-22991666D01*
X211378452Y-23182142D01*
X211378452Y-24229761D01*
X212045119Y-22896428D02*
X212807023Y-22896428D01*
X212330833Y-22229761D02*
X212330833Y-23944047D01*
X212426071Y-24134523D01*
X212616547Y-24229761D01*
X212807023Y-24229761D01*
X214330833Y-24229761D02*
X214330833Y-23182142D01*
X214235595Y-22991666D01*
X214045119Y-22896428D01*
X213664166Y-22896428D01*
X213473690Y-22991666D01*
X214330833Y-24134523D02*
X214140357Y-24229761D01*
X213664166Y-24229761D01*
X213473690Y-24134523D01*
X213378452Y-23944047D01*
X213378452Y-23753571D01*
X213473690Y-23563095D01*
X213664166Y-23467857D01*
X214140357Y-23467857D01*
X214330833Y-23372619D01*
X215187976Y-24134523D02*
X215378452Y-24229761D01*
X215759404Y-24229761D01*
X215949880Y-24134523D01*
X216045119Y-23944047D01*
X216045119Y-23848809D01*
X215949880Y-23658333D01*
X215759404Y-23563095D01*
X215473690Y-23563095D01*
X215283214Y-23467857D01*
X215187976Y-23277380D01*
X215187976Y-23182142D01*
X215283214Y-22991666D01*
X215473690Y-22896428D01*
X215759404Y-22896428D01*
X215949880Y-22991666D01*
X216902261Y-24039285D02*
X216997499Y-24134523D01*
X216902261Y-24229761D01*
X216807023Y-24134523D01*
X216902261Y-24039285D01*
X216902261Y-24229761D01*
X216902261Y-22991666D02*
X216997499Y-23086904D01*
X216902261Y-23182142D01*
X216807023Y-23086904D01*
X216902261Y-22991666D01*
X216902261Y-23182142D01*
X111759404Y-25379761D02*
X111759404Y-25855952D01*
X111283214Y-25665476D02*
X111759404Y-25855952D01*
X112235595Y-25665476D01*
X111473690Y-26236904D02*
X111759404Y-25855952D01*
X112045119Y-26236904D01*
X114521309Y-27379761D02*
X114521309Y-25379761D01*
X115283214Y-25379761D01*
X115473690Y-25475000D01*
X115568928Y-25570238D01*
X115664166Y-25760714D01*
X115664166Y-26046428D01*
X115568928Y-26236904D01*
X115473690Y-26332142D01*
X115283214Y-26427380D01*
X114521309Y-26427380D01*
X117378452Y-26046428D02*
X117378452Y-27379761D01*
X116521309Y-26046428D02*
X116521309Y-27094047D01*
X116616547Y-27284523D01*
X116807023Y-27379761D01*
X117092738Y-27379761D01*
X117283214Y-27284523D01*
X117378452Y-27189285D01*
X118330833Y-26046428D02*
X118330833Y-27379761D01*
X118330833Y-26236904D02*
X118426071Y-26141666D01*
X118616547Y-26046428D01*
X118902261Y-26046428D01*
X119092738Y-26141666D01*
X119187976Y-26332142D01*
X119187976Y-27379761D01*
X119854642Y-26046428D02*
X120616547Y-26046428D01*
X120140357Y-25379761D02*
X120140357Y-27094047D01*
X120235595Y-27284523D01*
X120426071Y-27379761D01*
X120616547Y-27379761D01*
X122140357Y-27379761D02*
X122140357Y-26332142D01*
X122045119Y-26141666D01*
X121854642Y-26046428D01*
X121473690Y-26046428D01*
X121283214Y-26141666D01*
X122140357Y-27284523D02*
X121949880Y-27379761D01*
X121473690Y-27379761D01*
X121283214Y-27284523D01*
X121187976Y-27094047D01*
X121187976Y-26903571D01*
X121283214Y-26713095D01*
X121473690Y-26617857D01*
X121949880Y-26617857D01*
X122140357Y-26522619D01*
X124521309Y-27284523D02*
X124711785Y-27379761D01*
X125092738Y-27379761D01*
X125283214Y-27284523D01*
X125378452Y-27094047D01*
X125378452Y-26998809D01*
X125283214Y-26808333D01*
X125092738Y-26713095D01*
X124807023Y-26713095D01*
X124616547Y-26617857D01*
X124521309Y-26427380D01*
X124521309Y-26332142D01*
X124616547Y-26141666D01*
X124807023Y-26046428D01*
X125092738Y-26046428D01*
X125283214Y-26141666D01*
X126235595Y-27379761D02*
X126235595Y-26046428D01*
X126235595Y-25379761D02*
X126140357Y-25475000D01*
X126235595Y-25570238D01*
X126330833Y-25475000D01*
X126235595Y-25379761D01*
X126235595Y-25570238D01*
X127187976Y-26046428D02*
X127187976Y-27379761D01*
X127187976Y-26236904D02*
X127283214Y-26141666D01*
X127473690Y-26046428D01*
X127759404Y-26046428D01*
X127949880Y-26141666D01*
X128045119Y-26332142D01*
X128045119Y-27379761D01*
X129854642Y-26046428D02*
X129854642Y-27665476D01*
X129759404Y-27855952D01*
X129664166Y-27951190D01*
X129473690Y-28046428D01*
X129187976Y-28046428D01*
X128997500Y-27951190D01*
X129854642Y-27284523D02*
X129664166Y-27379761D01*
X129283214Y-27379761D01*
X129092738Y-27284523D01*
X128997500Y-27189285D01*
X128902261Y-26998809D01*
X128902261Y-26427380D01*
X128997500Y-26236904D01*
X129092738Y-26141666D01*
X129283214Y-26046428D01*
X129664166Y-26046428D01*
X129854642Y-26141666D01*
X131092738Y-27379761D02*
X130902261Y-27284523D01*
X130807023Y-27094047D01*
X130807023Y-25379761D01*
X132616547Y-27284523D02*
X132426071Y-27379761D01*
X132045119Y-27379761D01*
X131854642Y-27284523D01*
X131759404Y-27094047D01*
X131759404Y-26332142D01*
X131854642Y-26141666D01*
X132045119Y-26046428D01*
X132426071Y-26046428D01*
X132616547Y-26141666D01*
X132711785Y-26332142D01*
X132711785Y-26522619D01*
X131759404Y-26713095D01*
X135854642Y-27284523D02*
X135664166Y-27379761D01*
X135283214Y-27379761D01*
X135092738Y-27284523D01*
X134997500Y-27094047D01*
X134997500Y-26332142D01*
X135092738Y-26141666D01*
X135283214Y-26046428D01*
X135664166Y-26046428D01*
X135854642Y-26141666D01*
X135949880Y-26332142D01*
X135949880Y-26522619D01*
X134997500Y-26713095D01*
X136807023Y-26046428D02*
X136807023Y-27379761D01*
X136807023Y-26236904D02*
X136902261Y-26141666D01*
X137092738Y-26046428D01*
X137378452Y-26046428D01*
X137568928Y-26141666D01*
X137664166Y-26332142D01*
X137664166Y-27379761D01*
X139473690Y-27379761D02*
X139473690Y-25379761D01*
X139473690Y-27284523D02*
X139283214Y-27379761D01*
X138902261Y-27379761D01*
X138711785Y-27284523D01*
X138616547Y-27189285D01*
X138521309Y-26998809D01*
X138521309Y-26427380D01*
X138616547Y-26236904D01*
X138711785Y-26141666D01*
X138902261Y-26046428D01*
X139283214Y-26046428D01*
X139473690Y-26141666D01*
X141187976Y-27284523D02*
X140997500Y-27379761D01*
X140616547Y-27379761D01*
X140426071Y-27284523D01*
X140330833Y-27094047D01*
X140330833Y-26332142D01*
X140426071Y-26141666D01*
X140616547Y-26046428D01*
X140997500Y-26046428D01*
X141187976Y-26141666D01*
X141283214Y-26332142D01*
X141283214Y-26522619D01*
X140330833Y-26713095D01*
X142997500Y-27379761D02*
X142997500Y-25379761D01*
X142997500Y-27284523D02*
X142807023Y-27379761D01*
X142426071Y-27379761D01*
X142235595Y-27284523D01*
X142140357Y-27189285D01*
X142045119Y-26998809D01*
X142045119Y-26427380D01*
X142140357Y-26236904D01*
X142235595Y-26141666D01*
X142426071Y-26046428D01*
X142807023Y-26046428D01*
X142997500Y-26141666D01*
X143949880Y-27189285D02*
X144045119Y-27284523D01*
X143949880Y-27379761D01*
X143854642Y-27284523D01*
X143949880Y-27189285D01*
X143949880Y-27379761D01*
X143949880Y-26141666D02*
X144045119Y-26236904D01*
X143949880Y-26332142D01*
X143854642Y-26236904D01*
X143949880Y-26141666D01*
X143949880Y-26332142D01*
X146140357Y-25379761D02*
X147283214Y-25379761D01*
X146711785Y-27379761D02*
X146711785Y-25379761D01*
X148711785Y-27284523D02*
X148521309Y-27379761D01*
X148140357Y-27379761D01*
X147949880Y-27284523D01*
X147854642Y-27094047D01*
X147854642Y-26332142D01*
X147949880Y-26141666D01*
X148140357Y-26046428D01*
X148521309Y-26046428D01*
X148711785Y-26141666D01*
X148807023Y-26332142D01*
X148807023Y-26522619D01*
X147854642Y-26713095D01*
X149664166Y-27379761D02*
X149664166Y-25379761D01*
X149854642Y-26617857D02*
X150426071Y-27379761D01*
X150426071Y-26046428D02*
X149664166Y-26808333D01*
X150997500Y-26046428D02*
X151759404Y-26046428D01*
X151283214Y-25379761D02*
X151283214Y-27094047D01*
X151378452Y-27284523D01*
X151568928Y-27379761D01*
X151759404Y-27379761D01*
X152426071Y-27379761D02*
X152426071Y-26046428D01*
X152426071Y-26427380D02*
X152521309Y-26236904D01*
X152616547Y-26141666D01*
X152807023Y-26046428D01*
X152997500Y-26046428D01*
X153949880Y-27379761D02*
X153759404Y-27284523D01*
X153664166Y-27189285D01*
X153568928Y-26998809D01*
X153568928Y-26427380D01*
X153664166Y-26236904D01*
X153759404Y-26141666D01*
X153949880Y-26046428D01*
X154235595Y-26046428D01*
X154426071Y-26141666D01*
X154521309Y-26236904D01*
X154616547Y-26427380D01*
X154616547Y-26998809D01*
X154521309Y-27189285D01*
X154426071Y-27284523D01*
X154235595Y-27379761D01*
X153949880Y-27379761D01*
X155473690Y-26046428D02*
X155473690Y-27379761D01*
X155473690Y-26236904D02*
X155568928Y-26141666D01*
X155759404Y-26046428D01*
X156045119Y-26046428D01*
X156235595Y-26141666D01*
X156330833Y-26332142D01*
X156330833Y-27379761D01*
X157283214Y-27379761D02*
X157283214Y-26046428D01*
X157283214Y-25379761D02*
X157187976Y-25475000D01*
X157283214Y-25570238D01*
X157378452Y-25475000D01*
X157283214Y-25379761D01*
X157283214Y-25570238D01*
X158045119Y-27379761D02*
X159092738Y-26046428D01*
X158045119Y-26046428D02*
X159092738Y-27379761D01*
X161378452Y-27379761D02*
X161378452Y-25379761D01*
X162140357Y-25379761D01*
X162330833Y-25475000D01*
X162426071Y-25570238D01*
X162521309Y-25760714D01*
X162521309Y-26046428D01*
X162426071Y-26236904D01*
X162330833Y-26332142D01*
X162140357Y-26427380D01*
X161378452Y-26427380D01*
X163664166Y-26236904D02*
X163473690Y-26141666D01*
X163378452Y-26046428D01*
X163283214Y-25855952D01*
X163283214Y-25760714D01*
X163378452Y-25570238D01*
X163473690Y-25475000D01*
X163664166Y-25379761D01*
X164045119Y-25379761D01*
X164235595Y-25475000D01*
X164330833Y-25570238D01*
X164426071Y-25760714D01*
X164426071Y-25855952D01*
X164330833Y-26046428D01*
X164235595Y-26141666D01*
X164045119Y-26236904D01*
X163664166Y-26236904D01*
X163473690Y-26332142D01*
X163378452Y-26427380D01*
X163283214Y-26617857D01*
X163283214Y-26998809D01*
X163378452Y-27189285D01*
X163473690Y-27284523D01*
X163664166Y-27379761D01*
X164045119Y-27379761D01*
X164235595Y-27284523D01*
X164330833Y-27189285D01*
X164426071Y-26998809D01*
X164426071Y-26617857D01*
X164330833Y-26427380D01*
X164235595Y-26332142D01*
X164045119Y-26236904D01*
X165664166Y-25379761D02*
X165854642Y-25379761D01*
X166045119Y-25475000D01*
X166140357Y-25570238D01*
X166235595Y-25760714D01*
X166330833Y-26141666D01*
X166330833Y-26617857D01*
X166235595Y-26998809D01*
X166140357Y-27189285D01*
X166045119Y-27284523D01*
X165854642Y-27379761D01*
X165664166Y-27379761D01*
X165473690Y-27284523D01*
X165378452Y-27189285D01*
X165283214Y-26998809D01*
X165187976Y-26617857D01*
X165187976Y-26141666D01*
X165283214Y-25760714D01*
X165378452Y-25570238D01*
X165473690Y-25475000D01*
X165664166Y-25379761D01*
X168235595Y-27379761D02*
X167092738Y-27379761D01*
X167664166Y-27379761D02*
X167664166Y-25379761D01*
X167473690Y-25665476D01*
X167283214Y-25855952D01*
X167092738Y-25951190D01*
X169378452Y-26236904D02*
X169187976Y-26141666D01*
X169092738Y-26046428D01*
X168997500Y-25855952D01*
X168997500Y-25760714D01*
X169092738Y-25570238D01*
X169187976Y-25475000D01*
X169378452Y-25379761D01*
X169759404Y-25379761D01*
X169949880Y-25475000D01*
X170045119Y-25570238D01*
X170140357Y-25760714D01*
X170140357Y-25855952D01*
X170045119Y-26046428D01*
X169949880Y-26141666D01*
X169759404Y-26236904D01*
X169378452Y-26236904D01*
X169187976Y-26332142D01*
X169092738Y-26427380D01*
X168997500Y-26617857D01*
X168997500Y-26998809D01*
X169092738Y-27189285D01*
X169187976Y-27284523D01*
X169378452Y-27379761D01*
X169759404Y-27379761D01*
X169949880Y-27284523D01*
X170045119Y-27189285D01*
X170140357Y-26998809D01*
X170140357Y-26617857D01*
X170045119Y-26427380D01*
X169949880Y-26332142D01*
X169759404Y-26236904D01*
X172521309Y-27379761D02*
X172521309Y-25379761D01*
X173283214Y-25379761D01*
X173473690Y-25475000D01*
X173568928Y-25570238D01*
X173664166Y-25760714D01*
X173664166Y-26046428D01*
X173568928Y-26236904D01*
X173473690Y-26332142D01*
X173283214Y-26427380D01*
X172521309Y-26427380D01*
X174521309Y-27379761D02*
X174521309Y-26046428D01*
X174521309Y-25379761D02*
X174426071Y-25475000D01*
X174521309Y-25570238D01*
X174616547Y-25475000D01*
X174521309Y-25379761D01*
X174521309Y-25570238D01*
X175187976Y-26046428D02*
X175949880Y-26046428D01*
X175473690Y-25379761D02*
X175473690Y-27094047D01*
X175568928Y-27284523D01*
X175759404Y-27379761D01*
X175949880Y-27379761D01*
X177473690Y-27284523D02*
X177283214Y-27379761D01*
X176902261Y-27379761D01*
X176711785Y-27284523D01*
X176616547Y-27189285D01*
X176521309Y-26998809D01*
X176521309Y-26427380D01*
X176616547Y-26236904D01*
X176711785Y-26141666D01*
X176902261Y-26046428D01*
X177283214Y-26046428D01*
X177473690Y-26141666D01*
X178330833Y-27379761D02*
X178330833Y-25379761D01*
X179187976Y-27379761D02*
X179187976Y-26332142D01*
X179092738Y-26141666D01*
X178902261Y-26046428D01*
X178616547Y-26046428D01*
X178426071Y-26141666D01*
X178330833Y-26236904D01*
X182711785Y-27379761D02*
X181568928Y-27379761D01*
X182140357Y-27379761D02*
X182140357Y-25379761D01*
X181949880Y-25665476D01*
X181759404Y-25855952D01*
X181568928Y-25951190D01*
X183568928Y-27189285D02*
X183664166Y-27284523D01*
X183568928Y-27379761D01*
X183473690Y-27284523D01*
X183568928Y-27189285D01*
X183568928Y-27379761D01*
X184807023Y-26236904D02*
X184616547Y-26141666D01*
X184521309Y-26046428D01*
X184426071Y-25855952D01*
X184426071Y-25760714D01*
X184521309Y-25570238D01*
X184616547Y-25475000D01*
X184807023Y-25379761D01*
X185187976Y-25379761D01*
X185378452Y-25475000D01*
X185473690Y-25570238D01*
X185568928Y-25760714D01*
X185568928Y-25855952D01*
X185473690Y-26046428D01*
X185378452Y-26141666D01*
X185187976Y-26236904D01*
X184807023Y-26236904D01*
X184616547Y-26332142D01*
X184521309Y-26427380D01*
X184426071Y-26617857D01*
X184426071Y-26998809D01*
X184521309Y-27189285D01*
X184616547Y-27284523D01*
X184807023Y-27379761D01*
X185187976Y-27379761D01*
X185378452Y-27284523D01*
X185473690Y-27189285D01*
X185568928Y-26998809D01*
X185568928Y-26617857D01*
X185473690Y-26427380D01*
X185378452Y-26332142D01*
X185187976Y-26236904D01*
X187949880Y-27379761D02*
X187949880Y-26046428D01*
X187949880Y-26236904D02*
X188045119Y-26141666D01*
X188235595Y-26046428D01*
X188521309Y-26046428D01*
X188711785Y-26141666D01*
X188807023Y-26332142D01*
X188807023Y-27379761D01*
X188807023Y-26332142D02*
X188902261Y-26141666D01*
X189092738Y-26046428D01*
X189378452Y-26046428D01*
X189568928Y-26141666D01*
X189664166Y-26332142D01*
X189664166Y-27379761D01*
X190616547Y-27379761D02*
X190616547Y-26046428D01*
X190616547Y-26236904D02*
X190711785Y-26141666D01*
X190902261Y-26046428D01*
X191187976Y-26046428D01*
X191378452Y-26141666D01*
X191473690Y-26332142D01*
X191473690Y-27379761D01*
X191473690Y-26332142D02*
X191568928Y-26141666D01*
X191759404Y-26046428D01*
X192045119Y-26046428D01*
X192235595Y-26141666D01*
X192330833Y-26332142D01*
X192330833Y-27379761D01*
X111759404Y-28529761D02*
X111759404Y-29005952D01*
X111283214Y-28815476D02*
X111759404Y-29005952D01*
X112235595Y-28815476D01*
X111473690Y-29386904D02*
X111759404Y-29005952D01*
X112045119Y-29386904D01*
X114521309Y-30529761D02*
X114521309Y-28529761D01*
X115283214Y-28529761D01*
X115473690Y-28625000D01*
X115568928Y-28720238D01*
X115664166Y-28910714D01*
X115664166Y-29196428D01*
X115568928Y-29386904D01*
X115473690Y-29482142D01*
X115283214Y-29577380D01*
X114521309Y-29577380D01*
X117378452Y-29196428D02*
X117378452Y-30529761D01*
X116521309Y-29196428D02*
X116521309Y-30244047D01*
X116616547Y-30434523D01*
X116807023Y-30529761D01*
X117092738Y-30529761D01*
X117283214Y-30434523D01*
X117378452Y-30339285D01*
X118330833Y-29196428D02*
X118330833Y-30529761D01*
X118330833Y-29386904D02*
X118426071Y-29291666D01*
X118616547Y-29196428D01*
X118902261Y-29196428D01*
X119092738Y-29291666D01*
X119187976Y-29482142D01*
X119187976Y-30529761D01*
X119854642Y-29196428D02*
X120616547Y-29196428D01*
X120140357Y-28529761D02*
X120140357Y-30244047D01*
X120235595Y-30434523D01*
X120426071Y-30529761D01*
X120616547Y-30529761D01*
X122140357Y-30529761D02*
X122140357Y-29482142D01*
X122045119Y-29291666D01*
X121854642Y-29196428D01*
X121473690Y-29196428D01*
X121283214Y-29291666D01*
X122140357Y-30434523D02*
X121949880Y-30529761D01*
X121473690Y-30529761D01*
X121283214Y-30434523D01*
X121187976Y-30244047D01*
X121187976Y-30053571D01*
X121283214Y-29863095D01*
X121473690Y-29767857D01*
X121949880Y-29767857D01*
X122140357Y-29672619D01*
X125473690Y-30529761D02*
X125473690Y-28529761D01*
X125473690Y-30434523D02*
X125283214Y-30529761D01*
X124902261Y-30529761D01*
X124711785Y-30434523D01*
X124616547Y-30339285D01*
X124521309Y-30148809D01*
X124521309Y-29577380D01*
X124616547Y-29386904D01*
X124711785Y-29291666D01*
X124902261Y-29196428D01*
X125283214Y-29196428D01*
X125473690Y-29291666D01*
X126426071Y-30529761D02*
X126426071Y-29196428D01*
X126426071Y-28529761D02*
X126330833Y-28625000D01*
X126426071Y-28720238D01*
X126521309Y-28625000D01*
X126426071Y-28529761D01*
X126426071Y-28720238D01*
X127092738Y-29196428D02*
X127854642Y-29196428D01*
X127378452Y-30529761D02*
X127378452Y-28815476D01*
X127473690Y-28625000D01*
X127664166Y-28529761D01*
X127854642Y-28529761D01*
X129283214Y-30434523D02*
X129092738Y-30529761D01*
X128711785Y-30529761D01*
X128521309Y-30434523D01*
X128426071Y-30244047D01*
X128426071Y-29482142D01*
X128521309Y-29291666D01*
X128711785Y-29196428D01*
X129092738Y-29196428D01*
X129283214Y-29291666D01*
X129378452Y-29482142D01*
X129378452Y-29672619D01*
X128426071Y-29863095D01*
X130235595Y-30529761D02*
X130235595Y-29196428D01*
X130235595Y-29577380D02*
X130330833Y-29386904D01*
X130426071Y-29291666D01*
X130616547Y-29196428D01*
X130807023Y-29196428D01*
X132235595Y-30434523D02*
X132045119Y-30529761D01*
X131664166Y-30529761D01*
X131473690Y-30434523D01*
X131378452Y-30244047D01*
X131378452Y-29482142D01*
X131473690Y-29291666D01*
X131664166Y-29196428D01*
X132045119Y-29196428D01*
X132235595Y-29291666D01*
X132330833Y-29482142D01*
X132330833Y-29672619D01*
X131378452Y-29863095D01*
X133187976Y-29196428D02*
X133187976Y-30529761D01*
X133187976Y-29386904D02*
X133283214Y-29291666D01*
X133473690Y-29196428D01*
X133759404Y-29196428D01*
X133949880Y-29291666D01*
X134045119Y-29482142D01*
X134045119Y-30529761D01*
X135854642Y-30434523D02*
X135664166Y-30529761D01*
X135283214Y-30529761D01*
X135092738Y-30434523D01*
X134997500Y-30339285D01*
X134902261Y-30148809D01*
X134902261Y-29577380D01*
X134997500Y-29386904D01*
X135092738Y-29291666D01*
X135283214Y-29196428D01*
X135664166Y-29196428D01*
X135854642Y-29291666D01*
X136711785Y-30529761D02*
X136711785Y-29196428D01*
X136711785Y-28529761D02*
X136616547Y-28625000D01*
X136711785Y-28720238D01*
X136807023Y-28625000D01*
X136711785Y-28529761D01*
X136711785Y-28720238D01*
X138521309Y-30529761D02*
X138521309Y-29482142D01*
X138426071Y-29291666D01*
X138235595Y-29196428D01*
X137854642Y-29196428D01*
X137664166Y-29291666D01*
X138521309Y-30434523D02*
X138330833Y-30529761D01*
X137854642Y-30529761D01*
X137664166Y-30434523D01*
X137568928Y-30244047D01*
X137568928Y-30053571D01*
X137664166Y-29863095D01*
X137854642Y-29767857D01*
X138330833Y-29767857D01*
X138521309Y-29672619D01*
X139759404Y-30529761D02*
X139568928Y-30434523D01*
X139473690Y-30244047D01*
X139473690Y-28529761D01*
X140521309Y-30339285D02*
X140616547Y-30434523D01*
X140521309Y-30529761D01*
X140426071Y-30434523D01*
X140521309Y-30339285D01*
X140521309Y-30529761D01*
X140521309Y-29291666D02*
X140616547Y-29386904D01*
X140521309Y-29482142D01*
X140426071Y-29386904D01*
X140521309Y-29291666D01*
X140521309Y-29482142D01*
X142711785Y-28529761D02*
X143854642Y-28529761D01*
X143283214Y-30529761D02*
X143283214Y-28529761D01*
X145283214Y-30434523D02*
X145092738Y-30529761D01*
X144711785Y-30529761D01*
X144521309Y-30434523D01*
X144426071Y-30244047D01*
X144426071Y-29482142D01*
X144521309Y-29291666D01*
X144711785Y-29196428D01*
X145092738Y-29196428D01*
X145283214Y-29291666D01*
X145378452Y-29482142D01*
X145378452Y-29672619D01*
X144426071Y-29863095D01*
X146235595Y-30529761D02*
X146235595Y-28529761D01*
X146426071Y-29767857D02*
X146997500Y-30529761D01*
X146997500Y-29196428D02*
X146235595Y-29958333D01*
X147568928Y-29196428D02*
X148330833Y-29196428D01*
X147854642Y-28529761D02*
X147854642Y-30244047D01*
X147949880Y-30434523D01*
X148140357Y-30529761D01*
X148330833Y-30529761D01*
X148997500Y-30529761D02*
X148997500Y-29196428D01*
X148997500Y-29577380D02*
X149092738Y-29386904D01*
X149187976Y-29291666D01*
X149378452Y-29196428D01*
X149568928Y-29196428D01*
X150521309Y-30529761D02*
X150330833Y-30434523D01*
X150235595Y-30339285D01*
X150140357Y-30148809D01*
X150140357Y-29577380D01*
X150235595Y-29386904D01*
X150330833Y-29291666D01*
X150521309Y-29196428D01*
X150807023Y-29196428D01*
X150997500Y-29291666D01*
X151092738Y-29386904D01*
X151187976Y-29577380D01*
X151187976Y-30148809D01*
X151092738Y-30339285D01*
X150997500Y-30434523D01*
X150807023Y-30529761D01*
X150521309Y-30529761D01*
X152045119Y-29196428D02*
X152045119Y-30529761D01*
X152045119Y-29386904D02*
X152140357Y-29291666D01*
X152330833Y-29196428D01*
X152616547Y-29196428D01*
X152807023Y-29291666D01*
X152902261Y-29482142D01*
X152902261Y-30529761D01*
X153854642Y-30529761D02*
X153854642Y-29196428D01*
X153854642Y-28529761D02*
X153759404Y-28625000D01*
X153854642Y-28720238D01*
X153949880Y-28625000D01*
X153854642Y-28529761D01*
X153854642Y-28720238D01*
X154616547Y-30529761D02*
X155664166Y-29196428D01*
X154616547Y-29196428D02*
X155664166Y-30529761D01*
X157949880Y-30529761D02*
X157949880Y-28529761D01*
X158711785Y-28529761D01*
X158902261Y-28625000D01*
X158997500Y-28720238D01*
X159092738Y-28910714D01*
X159092738Y-29196428D01*
X158997500Y-29386904D01*
X158902261Y-29482142D01*
X158711785Y-29577380D01*
X157949880Y-29577380D01*
X160235595Y-29386904D02*
X160045119Y-29291666D01*
X159949880Y-29196428D01*
X159854642Y-29005952D01*
X159854642Y-28910714D01*
X159949880Y-28720238D01*
X160045119Y-28625000D01*
X160235595Y-28529761D01*
X160616547Y-28529761D01*
X160807023Y-28625000D01*
X160902261Y-28720238D01*
X160997500Y-28910714D01*
X160997500Y-29005952D01*
X160902261Y-29196428D01*
X160807023Y-29291666D01*
X160616547Y-29386904D01*
X160235595Y-29386904D01*
X160045119Y-29482142D01*
X159949880Y-29577380D01*
X159854642Y-29767857D01*
X159854642Y-30148809D01*
X159949880Y-30339285D01*
X160045119Y-30434523D01*
X160235595Y-30529761D01*
X160616547Y-30529761D01*
X160807023Y-30434523D01*
X160902261Y-30339285D01*
X160997500Y-30148809D01*
X160997500Y-29767857D01*
X160902261Y-29577380D01*
X160807023Y-29482142D01*
X160616547Y-29386904D01*
X162235595Y-28529761D02*
X162426071Y-28529761D01*
X162616547Y-28625000D01*
X162711785Y-28720238D01*
X162807023Y-28910714D01*
X162902261Y-29291666D01*
X162902261Y-29767857D01*
X162807023Y-30148809D01*
X162711785Y-30339285D01*
X162616547Y-30434523D01*
X162426071Y-30529761D01*
X162235595Y-30529761D01*
X162045119Y-30434523D01*
X161949880Y-30339285D01*
X161854642Y-30148809D01*
X161759404Y-29767857D01*
X161759404Y-29291666D01*
X161854642Y-28910714D01*
X161949880Y-28720238D01*
X162045119Y-28625000D01*
X162235595Y-28529761D01*
X163568928Y-28529761D02*
X164807023Y-28529761D01*
X164140357Y-29291666D01*
X164426071Y-29291666D01*
X164616547Y-29386904D01*
X164711785Y-29482142D01*
X164807023Y-29672619D01*
X164807023Y-30148809D01*
X164711785Y-30339285D01*
X164616547Y-30434523D01*
X164426071Y-30529761D01*
X163854642Y-30529761D01*
X163664166Y-30434523D01*
X163568928Y-30339285D01*
X166711785Y-30529761D02*
X165568928Y-30529761D01*
X166140357Y-30529761D02*
X166140357Y-28529761D01*
X165949880Y-28815476D01*
X165759404Y-29005952D01*
X165568928Y-29101190D01*
X167854642Y-29386904D02*
X167664166Y-29291666D01*
X167568928Y-29196428D01*
X167473690Y-29005952D01*
X167473690Y-28910714D01*
X167568928Y-28720238D01*
X167664166Y-28625000D01*
X167854642Y-28529761D01*
X168235595Y-28529761D01*
X168426071Y-28625000D01*
X168521309Y-28720238D01*
X168616547Y-28910714D01*
X168616547Y-29005952D01*
X168521309Y-29196428D01*
X168426071Y-29291666D01*
X168235595Y-29386904D01*
X167854642Y-29386904D01*
X167664166Y-29482142D01*
X167568928Y-29577380D01*
X167473690Y-29767857D01*
X167473690Y-30148809D01*
X167568928Y-30339285D01*
X167664166Y-30434523D01*
X167854642Y-30529761D01*
X168235595Y-30529761D01*
X168426071Y-30434523D01*
X168521309Y-30339285D01*
X168616547Y-30148809D01*
X168616547Y-29767857D01*
X168521309Y-29577380D01*
X168426071Y-29482142D01*
X168235595Y-29386904D01*
X170997499Y-30529761D02*
X170997499Y-28529761D01*
X171759404Y-28529761D01*
X171949880Y-28625000D01*
X172045119Y-28720238D01*
X172140357Y-28910714D01*
X172140357Y-29196428D01*
X172045119Y-29386904D01*
X171949880Y-29482142D01*
X171759404Y-29577380D01*
X170997499Y-29577380D01*
X172997499Y-30529761D02*
X172997499Y-29196428D01*
X172997499Y-28529761D02*
X172902261Y-28625000D01*
X172997499Y-28720238D01*
X173092738Y-28625000D01*
X172997499Y-28529761D01*
X172997499Y-28720238D01*
X173664166Y-29196428D02*
X174426071Y-29196428D01*
X173949880Y-28529761D02*
X173949880Y-30244047D01*
X174045119Y-30434523D01*
X174235595Y-30529761D01*
X174426071Y-30529761D01*
X175949880Y-30434523D02*
X175759404Y-30529761D01*
X175378452Y-30529761D01*
X175187976Y-30434523D01*
X175092738Y-30339285D01*
X174997499Y-30148809D01*
X174997499Y-29577380D01*
X175092738Y-29386904D01*
X175187976Y-29291666D01*
X175378452Y-29196428D01*
X175759404Y-29196428D01*
X175949880Y-29291666D01*
X176807023Y-30529761D02*
X176807023Y-28529761D01*
X177664166Y-30529761D02*
X177664166Y-29482142D01*
X177568928Y-29291666D01*
X177378452Y-29196428D01*
X177092738Y-29196428D01*
X176902261Y-29291666D01*
X176807023Y-29386904D01*
X180997499Y-30529761D02*
X180997499Y-29482142D01*
X180902261Y-29291666D01*
X180711785Y-29196428D01*
X180330833Y-29196428D01*
X180140357Y-29291666D01*
X180997499Y-30434523D02*
X180807023Y-30529761D01*
X180330833Y-30529761D01*
X180140357Y-30434523D01*
X180045119Y-30244047D01*
X180045119Y-30053571D01*
X180140357Y-29863095D01*
X180330833Y-29767857D01*
X180807023Y-29767857D01*
X180997499Y-29672619D01*
X181949880Y-29196428D02*
X181949880Y-30910714D01*
X181854642Y-31101190D01*
X181664166Y-31196428D01*
X181568928Y-31196428D01*
X181949880Y-28529761D02*
X181854642Y-28625000D01*
X181949880Y-28720238D01*
X182045119Y-28625000D01*
X181949880Y-28529761D01*
X181949880Y-28720238D01*
X183759404Y-29196428D02*
X183759404Y-30529761D01*
X182902261Y-29196428D02*
X182902261Y-30244047D01*
X182997499Y-30434523D01*
X183187976Y-30529761D01*
X183473690Y-30529761D01*
X183664166Y-30434523D01*
X183759404Y-30339285D01*
X184616547Y-30434523D02*
X184807023Y-30529761D01*
X185187976Y-30529761D01*
X185378452Y-30434523D01*
X185473690Y-30244047D01*
X185473690Y-30148809D01*
X185378452Y-29958333D01*
X185187976Y-29863095D01*
X184902261Y-29863095D01*
X184711785Y-29767857D01*
X184616547Y-29577380D01*
X184616547Y-29482142D01*
X184711785Y-29291666D01*
X184902261Y-29196428D01*
X185187976Y-29196428D01*
X185378452Y-29291666D01*
X186045119Y-29196428D02*
X186807023Y-29196428D01*
X186330833Y-28529761D02*
X186330833Y-30244047D01*
X186426071Y-30434523D01*
X186616547Y-30529761D01*
X186807023Y-30529761D01*
X188330833Y-30529761D02*
X188330833Y-29482142D01*
X188235595Y-29291666D01*
X188045119Y-29196428D01*
X187664166Y-29196428D01*
X187473690Y-29291666D01*
X188330833Y-30434523D02*
X188140357Y-30529761D01*
X187664166Y-30529761D01*
X187473690Y-30434523D01*
X187378452Y-30244047D01*
X187378452Y-30053571D01*
X187473690Y-29863095D01*
X187664166Y-29767857D01*
X188140357Y-29767857D01*
X188330833Y-29672619D01*
X189283214Y-30529761D02*
X189283214Y-28529761D01*
X189283214Y-29291666D02*
X189473690Y-29196428D01*
X189854642Y-29196428D01*
X190045119Y-29291666D01*
X190140357Y-29386904D01*
X190235595Y-29577380D01*
X190235595Y-30148809D01*
X190140357Y-30339285D01*
X190045119Y-30434523D01*
X189854642Y-30529761D01*
X189473690Y-30529761D01*
X189283214Y-30434523D01*
X191378452Y-30529761D02*
X191187976Y-30434523D01*
X191092738Y-30244047D01*
X191092738Y-28529761D01*
X192902261Y-30434523D02*
X192711785Y-30529761D01*
X192330833Y-30529761D01*
X192140357Y-30434523D01*
X192045119Y-30244047D01*
X192045119Y-29482142D01*
X192140357Y-29291666D01*
X192330833Y-29196428D01*
X192711785Y-29196428D01*
X192902261Y-29291666D01*
X192997499Y-29482142D01*
X192997499Y-29672619D01*
X192045119Y-29863095D01*
X195759404Y-28529761D02*
X195949880Y-28529761D01*
X196140357Y-28625000D01*
X196235595Y-28720238D01*
X196330833Y-28910714D01*
X196426071Y-29291666D01*
X196426071Y-29767857D01*
X196330833Y-30148809D01*
X196235595Y-30339285D01*
X196140357Y-30434523D01*
X195949880Y-30529761D01*
X195759404Y-30529761D01*
X195568928Y-30434523D01*
X195473690Y-30339285D01*
X195378452Y-30148809D01*
X195283214Y-29767857D01*
X195283214Y-29291666D01*
X195378452Y-28910714D01*
X195473690Y-28720238D01*
X195568928Y-28625000D01*
X195759404Y-28529761D01*
X197283214Y-30339285D02*
X197378452Y-30434523D01*
X197283214Y-30529761D01*
X197187976Y-30434523D01*
X197283214Y-30339285D01*
X197283214Y-30529761D01*
X199187976Y-28529761D02*
X198235595Y-28529761D01*
X198140357Y-29482142D01*
X198235595Y-29386904D01*
X198426071Y-29291666D01*
X198902261Y-29291666D01*
X199092738Y-29386904D01*
X199187976Y-29482142D01*
X199283214Y-29672619D01*
X199283214Y-30148809D01*
X199187976Y-30339285D01*
X199092738Y-30434523D01*
X198902261Y-30529761D01*
X198426071Y-30529761D01*
X198235595Y-30434523D01*
X198140357Y-30339285D01*
X201664166Y-30529761D02*
X201664166Y-29196428D01*
X201664166Y-29386904D02*
X201759404Y-29291666D01*
X201949880Y-29196428D01*
X202235595Y-29196428D01*
X202426071Y-29291666D01*
X202521309Y-29482142D01*
X202521309Y-30529761D01*
X202521309Y-29482142D02*
X202616547Y-29291666D01*
X202807023Y-29196428D01*
X203092738Y-29196428D01*
X203283214Y-29291666D01*
X203378452Y-29482142D01*
X203378452Y-30529761D01*
X204330833Y-30529761D02*
X204330833Y-29196428D01*
X204330833Y-29386904D02*
X204426071Y-29291666D01*
X204616547Y-29196428D01*
X204902261Y-29196428D01*
X205092738Y-29291666D01*
X205187976Y-29482142D01*
X205187976Y-30529761D01*
X205187976Y-29482142D02*
X205283214Y-29291666D01*
X205473690Y-29196428D01*
X205759404Y-29196428D01*
X205949880Y-29291666D01*
X206045119Y-29482142D01*
X206045119Y-30529761D01*
X209378452Y-30529761D02*
X209378452Y-29482142D01*
X209283214Y-29291666D01*
X209092738Y-29196428D01*
X208711785Y-29196428D01*
X208521309Y-29291666D01*
X209378452Y-30434523D02*
X209187976Y-30529761D01*
X208711785Y-30529761D01*
X208521309Y-30434523D01*
X208426071Y-30244047D01*
X208426071Y-30053571D01*
X208521309Y-29863095D01*
X208711785Y-29767857D01*
X209187976Y-29767857D01*
X209378452Y-29672619D01*
X212711785Y-29196428D02*
X212711785Y-30529761D01*
X212235595Y-28434523D02*
X211759404Y-29863095D01*
X212997499Y-29863095D01*
X213759404Y-30339285D02*
X213854642Y-30434523D01*
X213759404Y-30529761D01*
X213664166Y-30434523D01*
X213759404Y-30339285D01*
X213759404Y-30529761D01*
X214616547Y-28720238D02*
X214711785Y-28625000D01*
X214902261Y-28529761D01*
X215378452Y-28529761D01*
X215568928Y-28625000D01*
X215664166Y-28720238D01*
X215759404Y-28910714D01*
X215759404Y-29101190D01*
X215664166Y-29386904D01*
X214521309Y-30529761D01*
X215759404Y-30529761D01*
X218140357Y-30529761D02*
X218140357Y-29196428D01*
X218140357Y-29386904D02*
X218235595Y-29291666D01*
X218426071Y-29196428D01*
X218711785Y-29196428D01*
X218902261Y-29291666D01*
X218997500Y-29482142D01*
X218997500Y-30529761D01*
X218997500Y-29482142D02*
X219092738Y-29291666D01*
X219283214Y-29196428D01*
X219568928Y-29196428D01*
X219759404Y-29291666D01*
X219854642Y-29482142D01*
X219854642Y-30529761D01*
X220807023Y-30529761D02*
X220807023Y-29196428D01*
X220807023Y-29386904D02*
X220902261Y-29291666D01*
X221092738Y-29196428D01*
X221378452Y-29196428D01*
X221568928Y-29291666D01*
X221664166Y-29482142D01*
X221664166Y-30529761D01*
X221664166Y-29482142D02*
X221759404Y-29291666D01*
X221949880Y-29196428D01*
X222235595Y-29196428D01*
X222426071Y-29291666D01*
X222521309Y-29482142D01*
X222521309Y-30529761D01*
D13*
X18820000Y-52440000D02*
X18820000Y-18150000D01*
X96290000Y-52440000D02*
X18820000Y-52440000D01*
X96290000Y-18150000D02*
X96290000Y-52440000D01*
X18820000Y-18150000D02*
X96290000Y-18150000D01*
X79700000Y-47770000D02*
X92400000Y-47770000D01*
X79700000Y-43960000D02*
X92400000Y-43960000D01*
X79780000Y-33390000D02*
X92480000Y-33390000D01*
X79780000Y-29580000D02*
X92480000Y-29580000D01*
X44140000Y-47770000D02*
X79700000Y-47770000D01*
X44220000Y-29580000D02*
X79780000Y-29580000D01*
X44140000Y-43960000D02*
X79700000Y-43960000D01*
X44220000Y-33390000D02*
X79780000Y-33390000D01*
D12*
X67660571Y-49517238D02*
X68531428Y-49517238D01*
X68096000Y-51549238D02*
X68096000Y-49517238D01*
X69257142Y-51549238D02*
X69112000Y-51452476D01*
X69039428Y-51355714D01*
X68966857Y-51162190D01*
X68966857Y-50581619D01*
X69039428Y-50388095D01*
X69112000Y-50291333D01*
X69257142Y-50194571D01*
X69474857Y-50194571D01*
X69620000Y-50291333D01*
X69692571Y-50388095D01*
X69765142Y-50581619D01*
X69765142Y-51162190D01*
X69692571Y-51355714D01*
X69620000Y-51452476D01*
X69474857Y-51549238D01*
X69257142Y-51549238D01*
X70200571Y-50194571D02*
X70781142Y-50194571D01*
X70418285Y-49517238D02*
X70418285Y-51258952D01*
X70490857Y-51452476D01*
X70636000Y-51549238D01*
X70781142Y-51549238D01*
X71942285Y-51549238D02*
X71942285Y-50484857D01*
X71869714Y-50291333D01*
X71724571Y-50194571D01*
X71434285Y-50194571D01*
X71289142Y-50291333D01*
X71942285Y-51452476D02*
X71797142Y-51549238D01*
X71434285Y-51549238D01*
X71289142Y-51452476D01*
X71216571Y-51258952D01*
X71216571Y-51065428D01*
X71289142Y-50871904D01*
X71434285Y-50775142D01*
X71797142Y-50775142D01*
X71942285Y-50678380D01*
X72885714Y-51549238D02*
X72740571Y-51452476D01*
X72668000Y-51258952D01*
X72668000Y-49517238D01*
X75280571Y-51549238D02*
X75280571Y-50484857D01*
X75208000Y-50291333D01*
X75062857Y-50194571D01*
X74772571Y-50194571D01*
X74627428Y-50291333D01*
X75280571Y-51452476D02*
X75135428Y-51549238D01*
X74772571Y-51549238D01*
X74627428Y-51452476D01*
X74554857Y-51258952D01*
X74554857Y-51065428D01*
X74627428Y-50871904D01*
X74772571Y-50775142D01*
X75135428Y-50775142D01*
X75280571Y-50678380D01*
X76006285Y-50194571D02*
X76006285Y-52226571D01*
X76006285Y-50291333D02*
X76151428Y-50194571D01*
X76441714Y-50194571D01*
X76586857Y-50291333D01*
X76659428Y-50388095D01*
X76732000Y-50581619D01*
X76732000Y-51162190D01*
X76659428Y-51355714D01*
X76586857Y-51452476D01*
X76441714Y-51549238D01*
X76151428Y-51549238D01*
X76006285Y-51452476D01*
X77385142Y-51549238D02*
X77385142Y-50194571D01*
X77385142Y-50581619D02*
X77457714Y-50388095D01*
X77530285Y-50291333D01*
X77675428Y-50194571D01*
X77820571Y-50194571D01*
X78546285Y-51549238D02*
X78401142Y-51452476D01*
X78328571Y-51355714D01*
X78256000Y-51162190D01*
X78256000Y-50581619D01*
X78328571Y-50388095D01*
X78401142Y-50291333D01*
X78546285Y-50194571D01*
X78764000Y-50194571D01*
X78909142Y-50291333D01*
X78981714Y-50388095D01*
X79054285Y-50581619D01*
X79054285Y-51162190D01*
X78981714Y-51355714D01*
X78909142Y-51452476D01*
X78764000Y-51549238D01*
X78546285Y-51549238D01*
X79562285Y-51549238D02*
X80360571Y-50194571D01*
X79562285Y-50194571D02*
X80360571Y-51549238D01*
X80941142Y-51355714D02*
X81013714Y-51452476D01*
X80941142Y-51549238D01*
X80868571Y-51452476D01*
X80941142Y-51355714D01*
X80941142Y-51549238D01*
X81666857Y-51355714D02*
X81739428Y-51452476D01*
X81666857Y-51549238D01*
X81594285Y-51452476D01*
X81666857Y-51355714D01*
X81666857Y-51549238D01*
X81666857Y-50291333D02*
X81739428Y-50388095D01*
X81666857Y-50484857D01*
X81594285Y-50388095D01*
X81666857Y-50291333D01*
X81666857Y-50484857D01*
X84352000Y-51549238D02*
X83481142Y-51549238D01*
X83916571Y-51549238D02*
X83916571Y-49517238D01*
X83771428Y-49807523D01*
X83626285Y-50001047D01*
X83481142Y-50097809D01*
X85077714Y-51452476D02*
X85077714Y-51549238D01*
X85005142Y-51742761D01*
X84932571Y-51839523D01*
X85585714Y-49517238D02*
X86601714Y-49517238D01*
X85948571Y-51549238D01*
X88343428Y-51549238D02*
X88343428Y-50194571D01*
X88343428Y-50388095D02*
X88416000Y-50291333D01*
X88561142Y-50194571D01*
X88778857Y-50194571D01*
X88924000Y-50291333D01*
X88996571Y-50484857D01*
X88996571Y-51549238D01*
X88996571Y-50484857D02*
X89069142Y-50291333D01*
X89214285Y-50194571D01*
X89432000Y-50194571D01*
X89577142Y-50291333D01*
X89649714Y-50484857D01*
X89649714Y-51549238D01*
X90375428Y-51549238D02*
X90375428Y-50194571D01*
X90375428Y-50388095D02*
X90448000Y-50291333D01*
X90593142Y-50194571D01*
X90810857Y-50194571D01*
X90956000Y-50291333D01*
X91028571Y-50484857D01*
X91028571Y-51549238D01*
X91028571Y-50484857D02*
X91101142Y-50291333D01*
X91246285Y-50194571D01*
X91464000Y-50194571D01*
X91609142Y-50291333D01*
X91681714Y-50484857D01*
X91681714Y-51549238D01*
X51513428Y-38119238D02*
X50787714Y-38119238D01*
X50787714Y-36087238D01*
X52674571Y-38119238D02*
X52674571Y-37054857D01*
X52602000Y-36861333D01*
X52456857Y-36764571D01*
X52166571Y-36764571D01*
X52021428Y-36861333D01*
X52674571Y-38022476D02*
X52529428Y-38119238D01*
X52166571Y-38119238D01*
X52021428Y-38022476D01*
X51948857Y-37828952D01*
X51948857Y-37635428D01*
X52021428Y-37441904D01*
X52166571Y-37345142D01*
X52529428Y-37345142D01*
X52674571Y-37248380D01*
X53400285Y-38119238D02*
X53400285Y-36764571D01*
X53400285Y-36958095D02*
X53472857Y-36861333D01*
X53618000Y-36764571D01*
X53835714Y-36764571D01*
X53980857Y-36861333D01*
X54053428Y-37054857D01*
X54053428Y-38119238D01*
X54053428Y-37054857D02*
X54126000Y-36861333D01*
X54271142Y-36764571D01*
X54488857Y-36764571D01*
X54634000Y-36861333D01*
X54706571Y-37054857D01*
X54706571Y-38119238D01*
X55432285Y-38119238D02*
X55432285Y-36764571D01*
X55432285Y-36087238D02*
X55359714Y-36184000D01*
X55432285Y-36280761D01*
X55504857Y-36184000D01*
X55432285Y-36087238D01*
X55432285Y-36280761D01*
X56158000Y-36764571D02*
X56158000Y-38119238D01*
X56158000Y-36958095D02*
X56230571Y-36861333D01*
X56375714Y-36764571D01*
X56593428Y-36764571D01*
X56738571Y-36861333D01*
X56811142Y-37054857D01*
X56811142Y-38119238D01*
X58190000Y-38119238D02*
X58190000Y-37054857D01*
X58117428Y-36861333D01*
X57972285Y-36764571D01*
X57682000Y-36764571D01*
X57536857Y-36861333D01*
X58190000Y-38022476D02*
X58044857Y-38119238D01*
X57682000Y-38119238D01*
X57536857Y-38022476D01*
X57464285Y-37828952D01*
X57464285Y-37635428D01*
X57536857Y-37441904D01*
X57682000Y-37345142D01*
X58044857Y-37345142D01*
X58190000Y-37248380D01*
X58698000Y-36764571D02*
X59278571Y-36764571D01*
X58915714Y-36087238D02*
X58915714Y-37828952D01*
X58988285Y-38022476D01*
X59133428Y-38119238D01*
X59278571Y-38119238D01*
X60367142Y-38022476D02*
X60222000Y-38119238D01*
X59931714Y-38119238D01*
X59786571Y-38022476D01*
X59714000Y-37828952D01*
X59714000Y-37054857D01*
X59786571Y-36861333D01*
X59931714Y-36764571D01*
X60222000Y-36764571D01*
X60367142Y-36861333D01*
X60439714Y-37054857D01*
X60439714Y-37248380D01*
X59714000Y-37441904D01*
X62254000Y-38119238D02*
X62254000Y-36087238D01*
X63124857Y-38119238D01*
X63124857Y-36087238D01*
X64140857Y-37151619D02*
X64140857Y-38119238D01*
X63632857Y-36087238D02*
X64140857Y-37151619D01*
X64648857Y-36087238D01*
X65955142Y-38119238D02*
X65084285Y-38119238D01*
X65519714Y-38119238D02*
X65519714Y-36087238D01*
X65374571Y-36377523D01*
X65229428Y-36571047D01*
X65084285Y-36667809D01*
X67406571Y-38119238D02*
X66535714Y-38119238D01*
X66971142Y-38119238D02*
X66971142Y-36087238D01*
X66826000Y-36377523D01*
X66680857Y-36571047D01*
X66535714Y-36667809D01*
X68712857Y-36764571D02*
X68712857Y-38119238D01*
X68350000Y-35990476D02*
X67987142Y-37441904D01*
X68930571Y-37441904D01*
X69801428Y-36087238D02*
X69946571Y-36087238D01*
X70091714Y-36184000D01*
X70164285Y-36280761D01*
X70236857Y-36474285D01*
X70309428Y-36861333D01*
X70309428Y-37345142D01*
X70236857Y-37732190D01*
X70164285Y-37925714D01*
X70091714Y-38022476D01*
X69946571Y-38119238D01*
X69801428Y-38119238D01*
X69656285Y-38022476D01*
X69583714Y-37925714D01*
X69511142Y-37732190D01*
X69438571Y-37345142D01*
X69438571Y-36861333D01*
X69511142Y-36474285D01*
X69583714Y-36280761D01*
X69656285Y-36184000D01*
X69801428Y-36087238D01*
X70962571Y-37925714D02*
X71035142Y-38022476D01*
X70962571Y-38119238D01*
X70890000Y-38022476D01*
X70962571Y-37925714D01*
X70962571Y-38119238D01*
X70962571Y-36861333D02*
X71035142Y-36958095D01*
X70962571Y-37054857D01*
X70890000Y-36958095D01*
X70962571Y-36861333D01*
X70962571Y-37054857D01*
X77131142Y-38119238D02*
X76260285Y-38119238D01*
X76695714Y-38119238D02*
X76695714Y-36087238D01*
X76550571Y-36377523D01*
X76405428Y-36571047D01*
X76260285Y-36667809D01*
X77856857Y-38022476D02*
X77856857Y-38119238D01*
X77784285Y-38312761D01*
X77711714Y-38409523D01*
X79308285Y-38119238D02*
X78437428Y-38119238D01*
X78872857Y-38119238D02*
X78872857Y-36087238D01*
X78727714Y-36377523D01*
X78582571Y-36571047D01*
X78437428Y-36667809D01*
X80179142Y-36958095D02*
X80034000Y-36861333D01*
X79961428Y-36764571D01*
X79888857Y-36571047D01*
X79888857Y-36474285D01*
X79961428Y-36280761D01*
X80034000Y-36184000D01*
X80179142Y-36087238D01*
X80469428Y-36087238D01*
X80614571Y-36184000D01*
X80687142Y-36280761D01*
X80759714Y-36474285D01*
X80759714Y-36571047D01*
X80687142Y-36764571D01*
X80614571Y-36861333D01*
X80469428Y-36958095D01*
X80179142Y-36958095D01*
X80034000Y-37054857D01*
X79961428Y-37151619D01*
X79888857Y-37345142D01*
X79888857Y-37732190D01*
X79961428Y-37925714D01*
X80034000Y-38022476D01*
X80179142Y-38119238D01*
X80469428Y-38119238D01*
X80614571Y-38022476D01*
X80687142Y-37925714D01*
X80759714Y-37732190D01*
X80759714Y-37345142D01*
X80687142Y-37151619D01*
X80614571Y-37054857D01*
X80469428Y-36958095D01*
X82574000Y-38119238D02*
X82574000Y-36764571D01*
X82574000Y-36958095D02*
X82646571Y-36861333D01*
X82791714Y-36764571D01*
X83009428Y-36764571D01*
X83154571Y-36861333D01*
X83227142Y-37054857D01*
X83227142Y-38119238D01*
X83227142Y-37054857D02*
X83299714Y-36861333D01*
X83444857Y-36764571D01*
X83662571Y-36764571D01*
X83807714Y-36861333D01*
X83880285Y-37054857D01*
X83880285Y-38119238D01*
X84606000Y-38119238D02*
X84606000Y-36764571D01*
X84606000Y-36958095D02*
X84678571Y-36861333D01*
X84823714Y-36764571D01*
X85041428Y-36764571D01*
X85186571Y-36861333D01*
X85259142Y-37054857D01*
X85259142Y-38119238D01*
X85259142Y-37054857D02*
X85331714Y-36861333D01*
X85476857Y-36764571D01*
X85694571Y-36764571D01*
X85839714Y-36861333D01*
X85912285Y-37054857D01*
X85912285Y-38119238D01*
X44401428Y-29229238D02*
X44401428Y-27197238D01*
X44909428Y-28648666D01*
X45417428Y-27197238D01*
X45417428Y-29229238D01*
X46143142Y-29229238D02*
X46143142Y-27874571D01*
X46143142Y-27197238D02*
X46070571Y-27294000D01*
X46143142Y-27390761D01*
X46215714Y-27294000D01*
X46143142Y-27197238D01*
X46143142Y-27390761D01*
X47521999Y-29132476D02*
X47376857Y-29229238D01*
X47086571Y-29229238D01*
X46941428Y-29132476D01*
X46868857Y-29035714D01*
X46796285Y-28842190D01*
X46796285Y-28261619D01*
X46868857Y-28068095D01*
X46941428Y-27971333D01*
X47086571Y-27874571D01*
X47376857Y-27874571D01*
X47521999Y-27971333D01*
X48175142Y-29229238D02*
X48175142Y-27874571D01*
X48175142Y-28261619D02*
X48247714Y-28068095D01*
X48320285Y-27971333D01*
X48465428Y-27874571D01*
X48610571Y-27874571D01*
X49336285Y-29229238D02*
X49191142Y-29132476D01*
X49118571Y-29035714D01*
X49045999Y-28842190D01*
X49045999Y-28261619D01*
X49118571Y-28068095D01*
X49191142Y-27971333D01*
X49336285Y-27874571D01*
X49553999Y-27874571D01*
X49699142Y-27971333D01*
X49771714Y-28068095D01*
X49844285Y-28261619D01*
X49844285Y-28842190D01*
X49771714Y-29035714D01*
X49699142Y-29132476D01*
X49553999Y-29229238D01*
X49336285Y-29229238D01*
X50424857Y-29132476D02*
X50569999Y-29229238D01*
X50860285Y-29229238D01*
X51005428Y-29132476D01*
X51077999Y-28938952D01*
X51077999Y-28842190D01*
X51005428Y-28648666D01*
X50860285Y-28551904D01*
X50642571Y-28551904D01*
X50497428Y-28455142D01*
X50424857Y-28261619D01*
X50424857Y-28164857D01*
X50497428Y-27971333D01*
X50642571Y-27874571D01*
X50860285Y-27874571D01*
X51005428Y-27971333D01*
X51513428Y-27874571D02*
X52093999Y-27874571D01*
X51731142Y-27197238D02*
X51731142Y-28938952D01*
X51803714Y-29132476D01*
X51948857Y-29229238D01*
X52093999Y-29229238D01*
X52601999Y-29229238D02*
X52601999Y-27874571D01*
X52601999Y-28261619D02*
X52674571Y-28068095D01*
X52747142Y-27971333D01*
X52892285Y-27874571D01*
X53037428Y-27874571D01*
X53545428Y-29229238D02*
X53545428Y-27874571D01*
X53545428Y-27197238D02*
X53472857Y-27294000D01*
X53545428Y-27390761D01*
X53617999Y-27294000D01*
X53545428Y-27197238D01*
X53545428Y-27390761D01*
X54271142Y-27874571D02*
X54271142Y-29906571D01*
X54271142Y-27971333D02*
X54416285Y-27874571D01*
X54706571Y-27874571D01*
X54851714Y-27971333D01*
X54924285Y-28068095D01*
X54996857Y-28261619D01*
X54996857Y-28842190D01*
X54924285Y-29035714D01*
X54851714Y-29132476D01*
X54706571Y-29229238D01*
X54416285Y-29229238D01*
X54271142Y-29132476D01*
X57536857Y-29229238D02*
X56811142Y-29229238D01*
X56811142Y-27197238D01*
X58044857Y-29229238D02*
X58044857Y-27874571D01*
X58044857Y-27197238D02*
X57972285Y-27294000D01*
X58044857Y-27390761D01*
X58117428Y-27294000D01*
X58044857Y-27197238D01*
X58044857Y-27390761D01*
X58770571Y-27874571D02*
X58770571Y-29229238D01*
X58770571Y-28068095D02*
X58843142Y-27971333D01*
X58988285Y-27874571D01*
X59205999Y-27874571D01*
X59351142Y-27971333D01*
X59423714Y-28164857D01*
X59423714Y-29229238D01*
X60729999Y-29132476D02*
X60584857Y-29229238D01*
X60294571Y-29229238D01*
X60149428Y-29132476D01*
X60076857Y-28938952D01*
X60076857Y-28164857D01*
X60149428Y-27971333D01*
X60294571Y-27874571D01*
X60584857Y-27874571D01*
X60729999Y-27971333D01*
X60802571Y-28164857D01*
X60802571Y-28358380D01*
X60076857Y-28551904D01*
X63705428Y-27100476D02*
X62399142Y-29713047D01*
X65374571Y-29229238D02*
X65374571Y-27197238D01*
X65737428Y-27197238D01*
X65955142Y-27294000D01*
X66100285Y-27487523D01*
X66172857Y-27681047D01*
X66245428Y-28068095D01*
X66245428Y-28358380D01*
X66172857Y-28745428D01*
X66100285Y-28938952D01*
X65955142Y-29132476D01*
X65737428Y-29229238D01*
X65374571Y-29229238D01*
X66898571Y-29229238D02*
X66898571Y-27874571D01*
X66898571Y-27197238D02*
X66825999Y-27294000D01*
X66898571Y-27390761D01*
X66971142Y-27294000D01*
X66898571Y-27197238D01*
X66898571Y-27390761D01*
X67406571Y-27874571D02*
X67987142Y-27874571D01*
X67624285Y-29229238D02*
X67624285Y-27487523D01*
X67696857Y-27294000D01*
X67842000Y-27197238D01*
X67987142Y-27197238D01*
X68277428Y-27874571D02*
X68858000Y-27874571D01*
X68495142Y-29229238D02*
X68495142Y-27487523D01*
X68567714Y-27294000D01*
X68712857Y-27197238D01*
X68858000Y-27197238D01*
X69946571Y-29132476D02*
X69801428Y-29229238D01*
X69511142Y-29229238D01*
X69365999Y-29132476D01*
X69293428Y-28938952D01*
X69293428Y-28164857D01*
X69365999Y-27971333D01*
X69511142Y-27874571D01*
X69801428Y-27874571D01*
X69946571Y-27971333D01*
X70019142Y-28164857D01*
X70019142Y-28358380D01*
X69293428Y-28551904D01*
X70672285Y-29229238D02*
X70672285Y-27874571D01*
X70672285Y-28261619D02*
X70744857Y-28068095D01*
X70817428Y-27971333D01*
X70962571Y-27874571D01*
X71107714Y-27874571D01*
X72196285Y-29132476D02*
X72051142Y-29229238D01*
X71760857Y-29229238D01*
X71615714Y-29132476D01*
X71543142Y-28938952D01*
X71543142Y-28164857D01*
X71615714Y-27971333D01*
X71760857Y-27874571D01*
X72051142Y-27874571D01*
X72196285Y-27971333D01*
X72268857Y-28164857D01*
X72268857Y-28358380D01*
X71543142Y-28551904D01*
X72921999Y-27874571D02*
X72921999Y-29229238D01*
X72921999Y-28068095D02*
X72994571Y-27971333D01*
X73139714Y-27874571D01*
X73357428Y-27874571D01*
X73502571Y-27971333D01*
X73575142Y-28164857D01*
X73575142Y-29229238D01*
X74083142Y-27874571D02*
X74663714Y-27874571D01*
X74300857Y-27197238D02*
X74300857Y-28938952D01*
X74373428Y-29132476D01*
X74518571Y-29229238D01*
X74663714Y-29229238D01*
X75171714Y-29229238D02*
X75171714Y-27874571D01*
X75171714Y-27197238D02*
X75099142Y-27294000D01*
X75171714Y-27390761D01*
X75244285Y-27294000D01*
X75171714Y-27197238D01*
X75171714Y-27390761D01*
X76550571Y-29229238D02*
X76550571Y-28164857D01*
X76477999Y-27971333D01*
X76332857Y-27874571D01*
X76042571Y-27874571D01*
X75897428Y-27971333D01*
X76550571Y-29132476D02*
X76405428Y-29229238D01*
X76042571Y-29229238D01*
X75897428Y-29132476D01*
X75824857Y-28938952D01*
X75824857Y-28745428D01*
X75897428Y-28551904D01*
X76042571Y-28455142D01*
X76405428Y-28455142D01*
X76550571Y-28358380D01*
X77493999Y-29229238D02*
X77348857Y-29132476D01*
X77276285Y-28938952D01*
X77276285Y-27197238D01*
X79235714Y-29229238D02*
X79235714Y-27197238D01*
X79743714Y-28648666D01*
X80251714Y-27197238D01*
X80251714Y-29229238D01*
X80977428Y-29229238D02*
X80977428Y-27874571D01*
X80977428Y-27197238D02*
X80904857Y-27294000D01*
X80977428Y-27390761D01*
X81049999Y-27294000D01*
X80977428Y-27197238D01*
X80977428Y-27390761D01*
X82356285Y-29132476D02*
X82211142Y-29229238D01*
X81920857Y-29229238D01*
X81775714Y-29132476D01*
X81703142Y-29035714D01*
X81630571Y-28842190D01*
X81630571Y-28261619D01*
X81703142Y-28068095D01*
X81775714Y-27971333D01*
X81920857Y-27874571D01*
X82211142Y-27874571D01*
X82356285Y-27971333D01*
X83009428Y-29229238D02*
X83009428Y-27874571D01*
X83009428Y-28261619D02*
X83081999Y-28068095D01*
X83154571Y-27971333D01*
X83299714Y-27874571D01*
X83444857Y-27874571D01*
X84170571Y-29229238D02*
X84025428Y-29132476D01*
X83952857Y-29035714D01*
X83880285Y-28842190D01*
X83880285Y-28261619D01*
X83952857Y-28068095D01*
X84025428Y-27971333D01*
X84170571Y-27874571D01*
X84388285Y-27874571D01*
X84533428Y-27971333D01*
X84605999Y-28068095D01*
X84678571Y-28261619D01*
X84678571Y-28842190D01*
X84605999Y-29035714D01*
X84533428Y-29132476D01*
X84388285Y-29229238D01*
X84170571Y-29229238D01*
X85259142Y-29132476D02*
X85404285Y-29229238D01*
X85694571Y-29229238D01*
X85839714Y-29132476D01*
X85912285Y-28938952D01*
X85912285Y-28842190D01*
X85839714Y-28648666D01*
X85694571Y-28551904D01*
X85476857Y-28551904D01*
X85331714Y-28455142D01*
X85259142Y-28261619D01*
X85259142Y-28164857D01*
X85331714Y-27971333D01*
X85476857Y-27874571D01*
X85694571Y-27874571D01*
X85839714Y-27971333D01*
X86347714Y-27874571D02*
X86928285Y-27874571D01*
X86565428Y-27197238D02*
X86565428Y-28938952D01*
X86637999Y-29132476D01*
X86783142Y-29229238D01*
X86928285Y-29229238D01*
X87436285Y-29229238D02*
X87436285Y-27874571D01*
X87436285Y-28261619D02*
X87508857Y-28068095D01*
X87581428Y-27971333D01*
X87726571Y-27874571D01*
X87871714Y-27874571D01*
X88379714Y-29229238D02*
X88379714Y-27874571D01*
X88379714Y-27197238D02*
X88307142Y-27294000D01*
X88379714Y-27390761D01*
X88452285Y-27294000D01*
X88379714Y-27197238D01*
X88379714Y-27390761D01*
X89105428Y-27874571D02*
X89105428Y-29906571D01*
X89105428Y-27971333D02*
X89250571Y-27874571D01*
X89540857Y-27874571D01*
X89685999Y-27971333D01*
X89758571Y-28068095D01*
X89831142Y-28261619D01*
X89831142Y-28842190D01*
X89758571Y-29035714D01*
X89685999Y-29132476D01*
X89540857Y-29229238D01*
X89250571Y-29229238D01*
X89105428Y-29132476D01*
X22078285Y-47624857D02*
X22296000Y-47721619D01*
X22368571Y-47818380D01*
X22441142Y-48011904D01*
X22441142Y-48302190D01*
X22368571Y-48495714D01*
X22296000Y-48592476D01*
X22150857Y-48689238D01*
X21570285Y-48689238D01*
X21570285Y-46657238D01*
X22078285Y-46657238D01*
X22223428Y-46754000D01*
X22296000Y-46850761D01*
X22368571Y-47044285D01*
X22368571Y-47237809D01*
X22296000Y-47431333D01*
X22223428Y-47528095D01*
X22078285Y-47624857D01*
X21570285Y-47624857D01*
X23312000Y-48689238D02*
X23166857Y-48592476D01*
X23094285Y-48495714D01*
X23021714Y-48302190D01*
X23021714Y-47721619D01*
X23094285Y-47528095D01*
X23166857Y-47431333D01*
X23312000Y-47334571D01*
X23529714Y-47334571D01*
X23674857Y-47431333D01*
X23747428Y-47528095D01*
X23820000Y-47721619D01*
X23820000Y-48302190D01*
X23747428Y-48495714D01*
X23674857Y-48592476D01*
X23529714Y-48689238D01*
X23312000Y-48689238D01*
X24255428Y-47334571D02*
X24836000Y-47334571D01*
X24473142Y-46657238D02*
X24473142Y-48398952D01*
X24545714Y-48592476D01*
X24690857Y-48689238D01*
X24836000Y-48689238D01*
X25344000Y-48495714D02*
X25416571Y-48592476D01*
X25344000Y-48689238D01*
X25271428Y-48592476D01*
X25344000Y-48495714D01*
X25344000Y-48689238D01*
X25344000Y-47431333D02*
X25416571Y-47528095D01*
X25344000Y-47624857D01*
X25271428Y-47528095D01*
X25344000Y-47431333D01*
X25344000Y-47624857D01*
X28029142Y-48689238D02*
X27158285Y-48689238D01*
X27593714Y-48689238D02*
X27593714Y-46657238D01*
X27448571Y-46947523D01*
X27303428Y-47141047D01*
X27158285Y-47237809D01*
X30061142Y-48689238D02*
X29916000Y-48592476D01*
X29843428Y-48495714D01*
X29770857Y-48302190D01*
X29770857Y-47721619D01*
X29843428Y-47528095D01*
X29916000Y-47431333D01*
X30061142Y-47334571D01*
X30278857Y-47334571D01*
X30424000Y-47431333D01*
X30496571Y-47528095D01*
X30569142Y-47721619D01*
X30569142Y-48302190D01*
X30496571Y-48495714D01*
X30424000Y-48592476D01*
X30278857Y-48689238D01*
X30061142Y-48689238D01*
X31077142Y-47334571D02*
X31875428Y-47334571D01*
X31077142Y-48689238D01*
X31875428Y-48689238D01*
X34052571Y-49463333D02*
X33980000Y-49366571D01*
X33834857Y-49076285D01*
X33762285Y-48882761D01*
X33689714Y-48592476D01*
X33617142Y-48108666D01*
X33617142Y-47721619D01*
X33689714Y-47237809D01*
X33762285Y-46947523D01*
X33834857Y-46754000D01*
X33980000Y-46463714D01*
X34052571Y-46366952D01*
X34633142Y-48689238D02*
X34633142Y-46657238D01*
X35213714Y-46657238D01*
X35358857Y-46754000D01*
X35431428Y-46850761D01*
X35504000Y-47044285D01*
X35504000Y-47334571D01*
X35431428Y-47528095D01*
X35358857Y-47624857D01*
X35213714Y-47721619D01*
X34633142Y-47721619D01*
X36374857Y-48689238D02*
X36229714Y-48592476D01*
X36157142Y-48398952D01*
X36157142Y-46657238D01*
X37608571Y-48689238D02*
X37608571Y-47624857D01*
X37536000Y-47431333D01*
X37390857Y-47334571D01*
X37100571Y-47334571D01*
X36955428Y-47431333D01*
X37608571Y-48592476D02*
X37463428Y-48689238D01*
X37100571Y-48689238D01*
X36955428Y-48592476D01*
X36882857Y-48398952D01*
X36882857Y-48205428D01*
X36955428Y-48011904D01*
X37100571Y-47915142D01*
X37463428Y-47915142D01*
X37608571Y-47818380D01*
X38334285Y-47334571D02*
X38334285Y-48689238D01*
X38334285Y-47528095D02*
X38406857Y-47431333D01*
X38552000Y-47334571D01*
X38769714Y-47334571D01*
X38914857Y-47431333D01*
X38987428Y-47624857D01*
X38987428Y-48689238D01*
X40293714Y-48592476D02*
X40148571Y-48689238D01*
X39858285Y-48689238D01*
X39713142Y-48592476D01*
X39640571Y-48398952D01*
X39640571Y-47624857D01*
X39713142Y-47431333D01*
X39858285Y-47334571D01*
X40148571Y-47334571D01*
X40293714Y-47431333D01*
X40366285Y-47624857D01*
X40366285Y-47818380D01*
X39640571Y-48011904D01*
X40874285Y-49463333D02*
X40946857Y-49366571D01*
X41092000Y-49076285D01*
X41164571Y-48882761D01*
X41237142Y-48592476D01*
X41309714Y-48108666D01*
X41309714Y-47721619D01*
X41237142Y-47237809D01*
X41164571Y-46947523D01*
X41092000Y-46754000D01*
X40946857Y-46463714D01*
X40874285Y-46366952D01*
X20953428Y-44879238D02*
X20227714Y-44879238D01*
X20227714Y-42847238D01*
X21316285Y-42847238D02*
X22259714Y-42847238D01*
X21751714Y-43621333D01*
X21969428Y-43621333D01*
X22114571Y-43718095D01*
X22187142Y-43814857D01*
X22259714Y-44008380D01*
X22259714Y-44492190D01*
X22187142Y-44685714D01*
X22114571Y-44782476D01*
X21969428Y-44879238D01*
X21534000Y-44879238D01*
X21388857Y-44782476D01*
X21316285Y-44685714D01*
X22912857Y-44685714D02*
X22985428Y-44782476D01*
X22912857Y-44879238D01*
X22840285Y-44782476D01*
X22912857Y-44685714D01*
X22912857Y-44879238D01*
X22912857Y-43621333D02*
X22985428Y-43718095D01*
X22912857Y-43814857D01*
X22840285Y-43718095D01*
X22912857Y-43621333D01*
X22912857Y-43814857D01*
X25598000Y-44879238D02*
X24727142Y-44879238D01*
X25162571Y-44879238D02*
X25162571Y-42847238D01*
X25017428Y-43137523D01*
X24872285Y-43331047D01*
X24727142Y-43427809D01*
X27339714Y-42750476D02*
X26033428Y-45363047D01*
X27775142Y-43040761D02*
X27847714Y-42944000D01*
X27992857Y-42847238D01*
X28355714Y-42847238D01*
X28500857Y-42944000D01*
X28573428Y-43040761D01*
X28646000Y-43234285D01*
X28646000Y-43427809D01*
X28573428Y-43718095D01*
X27702571Y-44879238D01*
X28646000Y-44879238D01*
X30678000Y-44879238D02*
X30532857Y-44782476D01*
X30460285Y-44685714D01*
X30387714Y-44492190D01*
X30387714Y-43911619D01*
X30460285Y-43718095D01*
X30532857Y-43621333D01*
X30678000Y-43524571D01*
X30895714Y-43524571D01*
X31040857Y-43621333D01*
X31113428Y-43718095D01*
X31186000Y-43911619D01*
X31186000Y-44492190D01*
X31113428Y-44685714D01*
X31040857Y-44782476D01*
X30895714Y-44879238D01*
X30678000Y-44879238D01*
X31694000Y-43524571D02*
X32492285Y-43524571D01*
X31694000Y-44879238D01*
X32492285Y-44879238D01*
X34669428Y-45653333D02*
X34596857Y-45556571D01*
X34451714Y-45266285D01*
X34379142Y-45072761D01*
X34306571Y-44782476D01*
X34234000Y-44298666D01*
X34234000Y-43911619D01*
X34306571Y-43427809D01*
X34379142Y-43137523D01*
X34451714Y-42944000D01*
X34596857Y-42653714D01*
X34669428Y-42556952D01*
X35177428Y-44782476D02*
X35395142Y-44879238D01*
X35758000Y-44879238D01*
X35903142Y-44782476D01*
X35975714Y-44685714D01*
X36048285Y-44492190D01*
X36048285Y-44298666D01*
X35975714Y-44105142D01*
X35903142Y-44008380D01*
X35758000Y-43911619D01*
X35467714Y-43814857D01*
X35322571Y-43718095D01*
X35250000Y-43621333D01*
X35177428Y-43427809D01*
X35177428Y-43234285D01*
X35250000Y-43040761D01*
X35322571Y-42944000D01*
X35467714Y-42847238D01*
X35830571Y-42847238D01*
X36048285Y-42944000D01*
X36701428Y-44879238D02*
X36701428Y-43524571D01*
X36701428Y-42847238D02*
X36628857Y-42944000D01*
X36701428Y-43040761D01*
X36774000Y-42944000D01*
X36701428Y-42847238D01*
X36701428Y-43040761D01*
X38080285Y-43524571D02*
X38080285Y-45169523D01*
X38007714Y-45363047D01*
X37935142Y-45459809D01*
X37790000Y-45556571D01*
X37572285Y-45556571D01*
X37427142Y-45459809D01*
X38080285Y-44782476D02*
X37935142Y-44879238D01*
X37644857Y-44879238D01*
X37499714Y-44782476D01*
X37427142Y-44685714D01*
X37354571Y-44492190D01*
X37354571Y-43911619D01*
X37427142Y-43718095D01*
X37499714Y-43621333D01*
X37644857Y-43524571D01*
X37935142Y-43524571D01*
X38080285Y-43621333D01*
X38806000Y-43524571D02*
X38806000Y-44879238D01*
X38806000Y-43718095D02*
X38878571Y-43621333D01*
X39023714Y-43524571D01*
X39241428Y-43524571D01*
X39386571Y-43621333D01*
X39459142Y-43814857D01*
X39459142Y-44879238D01*
X40838000Y-44879238D02*
X40838000Y-43814857D01*
X40765428Y-43621333D01*
X40620285Y-43524571D01*
X40330000Y-43524571D01*
X40184857Y-43621333D01*
X40838000Y-44782476D02*
X40692857Y-44879238D01*
X40330000Y-44879238D01*
X40184857Y-44782476D01*
X40112285Y-44588952D01*
X40112285Y-44395428D01*
X40184857Y-44201904D01*
X40330000Y-44105142D01*
X40692857Y-44105142D01*
X40838000Y-44008380D01*
X41781428Y-44879238D02*
X41636285Y-44782476D01*
X41563714Y-44588952D01*
X41563714Y-42847238D01*
X42216857Y-45653333D02*
X42289428Y-45556571D01*
X42434571Y-45266285D01*
X42507142Y-45072761D01*
X42579714Y-44782476D01*
X42652285Y-44298666D01*
X42652285Y-43911619D01*
X42579714Y-43427809D01*
X42507142Y-43137523D01*
X42434571Y-42944000D01*
X42289428Y-42653714D01*
X42216857Y-42556952D01*
X21396285Y-34309238D02*
X20670571Y-34309238D01*
X20670571Y-32277238D01*
X21831714Y-32470761D02*
X21904285Y-32374000D01*
X22049428Y-32277238D01*
X22412285Y-32277238D01*
X22557428Y-32374000D01*
X22629999Y-32470761D01*
X22702571Y-32664285D01*
X22702571Y-32857809D01*
X22629999Y-33148095D01*
X21759142Y-34309238D01*
X22702571Y-34309238D01*
X23355714Y-34115714D02*
X23428285Y-34212476D01*
X23355714Y-34309238D01*
X23283142Y-34212476D01*
X23355714Y-34115714D01*
X23355714Y-34309238D01*
X23355714Y-33051333D02*
X23428285Y-33148095D01*
X23355714Y-33244857D01*
X23283142Y-33148095D01*
X23355714Y-33051333D01*
X23355714Y-33244857D01*
X26040857Y-34309238D02*
X25170000Y-34309238D01*
X25605428Y-34309238D02*
X25605428Y-32277238D01*
X25460285Y-32567523D01*
X25315142Y-32761047D01*
X25170000Y-32857809D01*
X27782571Y-32180476D02*
X26476285Y-34793047D01*
X28217999Y-32470761D02*
X28290571Y-32374000D01*
X28435714Y-32277238D01*
X28798571Y-32277238D01*
X28943714Y-32374000D01*
X29016285Y-32470761D01*
X29088857Y-32664285D01*
X29088857Y-32857809D01*
X29016285Y-33148095D01*
X28145428Y-34309238D01*
X29088857Y-34309238D01*
X31120857Y-34309238D02*
X30975714Y-34212476D01*
X30903142Y-34115714D01*
X30830571Y-33922190D01*
X30830571Y-33341619D01*
X30903142Y-33148095D01*
X30975714Y-33051333D01*
X31120857Y-32954571D01*
X31338571Y-32954571D01*
X31483714Y-33051333D01*
X31556285Y-33148095D01*
X31628857Y-33341619D01*
X31628857Y-33922190D01*
X31556285Y-34115714D01*
X31483714Y-34212476D01*
X31338571Y-34309238D01*
X31120857Y-34309238D01*
X32136857Y-32954571D02*
X32935142Y-32954571D01*
X32136857Y-34309238D01*
X32935142Y-34309238D01*
X35112285Y-35083333D02*
X35039714Y-34986571D01*
X34894571Y-34696285D01*
X34822000Y-34502761D01*
X34749428Y-34212476D01*
X34676857Y-33728666D01*
X34676857Y-33341619D01*
X34749428Y-32857809D01*
X34822000Y-32567523D01*
X34894571Y-32374000D01*
X35039714Y-32083714D01*
X35112285Y-31986952D01*
X35692857Y-34309238D02*
X35692857Y-32277238D01*
X36273428Y-32277238D01*
X36418571Y-32374000D01*
X36491142Y-32470761D01*
X36563714Y-32664285D01*
X36563714Y-32954571D01*
X36491142Y-33148095D01*
X36418571Y-33244857D01*
X36273428Y-33341619D01*
X35692857Y-33341619D01*
X37434571Y-34309238D02*
X37289428Y-34212476D01*
X37216857Y-34018952D01*
X37216857Y-32277238D01*
X38668285Y-34309238D02*
X38668285Y-33244857D01*
X38595714Y-33051333D01*
X38450571Y-32954571D01*
X38160285Y-32954571D01*
X38015142Y-33051333D01*
X38668285Y-34212476D02*
X38523142Y-34309238D01*
X38160285Y-34309238D01*
X38015142Y-34212476D01*
X37942571Y-34018952D01*
X37942571Y-33825428D01*
X38015142Y-33631904D01*
X38160285Y-33535142D01*
X38523142Y-33535142D01*
X38668285Y-33438380D01*
X39393999Y-32954571D02*
X39393999Y-34309238D01*
X39393999Y-33148095D02*
X39466571Y-33051333D01*
X39611714Y-32954571D01*
X39829428Y-32954571D01*
X39974571Y-33051333D01*
X40047142Y-33244857D01*
X40047142Y-34309238D01*
X41353428Y-34212476D02*
X41208285Y-34309238D01*
X40917999Y-34309238D01*
X40772857Y-34212476D01*
X40700285Y-34018952D01*
X40700285Y-33244857D01*
X40772857Y-33051333D01*
X40917999Y-32954571D01*
X41208285Y-32954571D01*
X41353428Y-33051333D01*
X41425999Y-33244857D01*
X41425999Y-33438380D01*
X40700285Y-33631904D01*
X41933999Y-35083333D02*
X42006571Y-34986571D01*
X42151714Y-34696285D01*
X42224285Y-34502761D01*
X42296857Y-34212476D01*
X42369428Y-33728666D01*
X42369428Y-33341619D01*
X42296857Y-32857809D01*
X42224285Y-32567523D01*
X42151714Y-32374000D01*
X42006571Y-32083714D01*
X41933999Y-31986952D01*
X20997142Y-28467238D02*
X21868000Y-28467238D01*
X21432571Y-30499238D02*
X21432571Y-28467238D01*
X22593714Y-30499238D02*
X22448571Y-30402476D01*
X22376000Y-30305714D01*
X22303428Y-30112190D01*
X22303428Y-29531619D01*
X22376000Y-29338095D01*
X22448571Y-29241333D01*
X22593714Y-29144571D01*
X22811428Y-29144571D01*
X22956571Y-29241333D01*
X23029142Y-29338095D01*
X23101714Y-29531619D01*
X23101714Y-30112190D01*
X23029142Y-30305714D01*
X22956571Y-30402476D01*
X22811428Y-30499238D01*
X22593714Y-30499238D01*
X23754857Y-29144571D02*
X23754857Y-31176571D01*
X23754857Y-29241333D02*
X23900000Y-29144571D01*
X24190285Y-29144571D01*
X24335428Y-29241333D01*
X24408000Y-29338095D01*
X24480571Y-29531619D01*
X24480571Y-30112190D01*
X24408000Y-30305714D01*
X24335428Y-30402476D01*
X24190285Y-30499238D01*
X23900000Y-30499238D01*
X23754857Y-30402476D01*
X25133714Y-30305714D02*
X25206285Y-30402476D01*
X25133714Y-30499238D01*
X25061142Y-30402476D01*
X25133714Y-30305714D01*
X25133714Y-30499238D01*
X25133714Y-29241333D02*
X25206285Y-29338095D01*
X25133714Y-29434857D01*
X25061142Y-29338095D01*
X25133714Y-29241333D01*
X25133714Y-29434857D01*
X27818857Y-30499238D02*
X26948000Y-30499238D01*
X27383428Y-30499238D02*
X27383428Y-28467238D01*
X27238285Y-28757523D01*
X27093142Y-28951047D01*
X26948000Y-29047809D01*
X29850857Y-30499238D02*
X29705714Y-30402476D01*
X29633142Y-30305714D01*
X29560571Y-30112190D01*
X29560571Y-29531619D01*
X29633142Y-29338095D01*
X29705714Y-29241333D01*
X29850857Y-29144571D01*
X30068571Y-29144571D01*
X30213714Y-29241333D01*
X30286285Y-29338095D01*
X30358857Y-29531619D01*
X30358857Y-30112190D01*
X30286285Y-30305714D01*
X30213714Y-30402476D01*
X30068571Y-30499238D01*
X29850857Y-30499238D01*
X30866857Y-29144571D02*
X31665142Y-29144571D01*
X30866857Y-30499238D01*
X31665142Y-30499238D01*
X33842285Y-31273333D02*
X33769714Y-31176571D01*
X33624571Y-30886285D01*
X33551999Y-30692761D01*
X33479428Y-30402476D01*
X33406857Y-29918666D01*
X33406857Y-29531619D01*
X33479428Y-29047809D01*
X33551999Y-28757523D01*
X33624571Y-28564000D01*
X33769714Y-28273714D01*
X33842285Y-28176952D01*
X34350285Y-30402476D02*
X34568000Y-30499238D01*
X34930857Y-30499238D01*
X35076000Y-30402476D01*
X35148571Y-30305714D01*
X35221142Y-30112190D01*
X35221142Y-29918666D01*
X35148571Y-29725142D01*
X35076000Y-29628380D01*
X34930857Y-29531619D01*
X34640571Y-29434857D01*
X34495428Y-29338095D01*
X34422857Y-29241333D01*
X34350285Y-29047809D01*
X34350285Y-28854285D01*
X34422857Y-28660761D01*
X34495428Y-28564000D01*
X34640571Y-28467238D01*
X35003428Y-28467238D01*
X35221142Y-28564000D01*
X35874285Y-30499238D02*
X35874285Y-29144571D01*
X35874285Y-28467238D02*
X35801714Y-28564000D01*
X35874285Y-28660761D01*
X35946857Y-28564000D01*
X35874285Y-28467238D01*
X35874285Y-28660761D01*
X37253142Y-29144571D02*
X37253142Y-30789523D01*
X37180571Y-30983047D01*
X37108000Y-31079809D01*
X36962857Y-31176571D01*
X36745142Y-31176571D01*
X36600000Y-31079809D01*
X37253142Y-30402476D02*
X37108000Y-30499238D01*
X36817714Y-30499238D01*
X36672571Y-30402476D01*
X36600000Y-30305714D01*
X36527428Y-30112190D01*
X36527428Y-29531619D01*
X36600000Y-29338095D01*
X36672571Y-29241333D01*
X36817714Y-29144571D01*
X37108000Y-29144571D01*
X37253142Y-29241333D01*
X37978857Y-29144571D02*
X37978857Y-30499238D01*
X37978857Y-29338095D02*
X38051428Y-29241333D01*
X38196571Y-29144571D01*
X38414285Y-29144571D01*
X38559428Y-29241333D01*
X38632000Y-29434857D01*
X38632000Y-30499238D01*
X40010857Y-30499238D02*
X40010857Y-29434857D01*
X39938285Y-29241333D01*
X39793142Y-29144571D01*
X39502857Y-29144571D01*
X39357714Y-29241333D01*
X40010857Y-30402476D02*
X39865714Y-30499238D01*
X39502857Y-30499238D01*
X39357714Y-30402476D01*
X39285142Y-30208952D01*
X39285142Y-30015428D01*
X39357714Y-29821904D01*
X39502857Y-29725142D01*
X39865714Y-29725142D01*
X40010857Y-29628380D01*
X40954285Y-30499238D02*
X40809142Y-30402476D01*
X40736571Y-30208952D01*
X40736571Y-28467238D01*
X41389714Y-31273333D02*
X41462285Y-31176571D01*
X41607428Y-30886285D01*
X41679999Y-30692761D01*
X41752571Y-30402476D01*
X41825142Y-29918666D01*
X41825142Y-29531619D01*
X41752571Y-29047809D01*
X41679999Y-28757523D01*
X41607428Y-28564000D01*
X41462285Y-28273714D01*
X41389714Y-28176952D01*
M02*
