G04 #@! TF.GenerationSoftware,KiCad,Pcbnew,(5.1.7)-1*
G04 #@! TF.CreationDate,2020-11-24T11:46:51-03:00*
G04 #@! TF.ProjectId,cupon,6375706f-6e2e-46b6-9963-61645f706362,Revision: 2.0*
G04 #@! TF.SameCoordinates,Original*
G04 #@! TF.FileFunction,Copper,L1,Top*
G04 #@! TF.FilePolarity,Positive*
%FSLAX46Y46*%
G04 Gerber Fmt 4.6, Leading zero omitted, Abs format (unit mm)*
G04 Created by KiCad (PCBNEW (5.1.7)-1) date 2020-11-24 11:46:51*
%MOMM*%
%LPD*%
G01*
G04 APERTURE LIST*
G04 #@! TA.AperFunction,NonConductor*
%ADD10C,0.300000*%
G04 #@! TD*
G04 #@! TA.AperFunction,NonConductor*
%ADD11C,0.304800*%
G04 #@! TD*
G04 #@! TA.AperFunction,ComponentPad*
%ADD12C,1.100000*%
G04 #@! TD*
G04 #@! TA.AperFunction,ComponentPad*
%ADD13R,1.100000X1.100000*%
G04 #@! TD*
G04 #@! TA.AperFunction,ViaPad*
%ADD14C,0.800000*%
G04 #@! TD*
G04 #@! TA.AperFunction,Conductor*
%ADD15C,0.300000*%
G04 #@! TD*
G04 #@! TA.AperFunction,Conductor*
%ADD16C,0.250000*%
G04 #@! TD*
G04 #@! TA.AperFunction,NonConductor*
%ADD17C,0.254000*%
G04 #@! TD*
G04 #@! TA.AperFunction,NonConductor*
%ADD18C,0.150000*%
G04 #@! TD*
G04 APERTURE END LIST*
D10*
X36607142Y4028571D02*
X37107142Y4028571D01*
X37321428Y3085714D02*
X36607142Y3085714D01*
X36607142Y4885714D01*
X37321428Y4885714D01*
X38821428Y3085714D02*
X38321428Y3942857D01*
X37964285Y3085714D02*
X37964285Y4885714D01*
X38535714Y4885714D01*
X38678571Y4800000D01*
X38750000Y4714285D01*
X38821428Y4542857D01*
X38821428Y4285714D01*
X38750000Y4114285D01*
X38678571Y4028571D01*
X38535714Y3942857D01*
X37964285Y3942857D01*
X39464285Y3085714D02*
X39464285Y4885714D01*
X40321428Y3085714D01*
X40321428Y4885714D01*
X41035714Y4028571D02*
X41535714Y4028571D01*
X41750000Y3085714D02*
X41035714Y3085714D01*
X41035714Y4885714D01*
X41750000Y4885714D01*
X42321428Y3171428D02*
X42535714Y3085714D01*
X42892857Y3085714D01*
X43035714Y3171428D01*
X43107142Y3257142D01*
X43178571Y3428571D01*
X43178571Y3600000D01*
X43107142Y3771428D01*
X43035714Y3857142D01*
X42892857Y3942857D01*
X42607142Y4028571D01*
X42464285Y4114285D01*
X42392857Y4200000D01*
X42321428Y4371428D01*
X42321428Y4542857D01*
X42392857Y4714285D01*
X42464285Y4800000D01*
X42607142Y4885714D01*
X42964285Y4885714D01*
X43178571Y4800000D01*
X43607142Y4885714D02*
X44464285Y4885714D01*
X44035714Y3085714D02*
X44035714Y4885714D01*
X45250000Y4885714D02*
X45535714Y4885714D01*
X45678571Y4800000D01*
X45821428Y4628571D01*
X45892857Y4285714D01*
X45892857Y3685714D01*
X45821428Y3342857D01*
X45678571Y3171428D01*
X45535714Y3085714D01*
X45250000Y3085714D01*
X45107142Y3171428D01*
X44964285Y3342857D01*
X44892857Y3685714D01*
X44892857Y4285714D01*
X44964285Y4628571D01*
X45107142Y4800000D01*
X45250000Y4885714D01*
X47678571Y3085714D02*
X47678571Y4885714D01*
X48178571Y3600000D01*
X48678571Y4885714D01*
X48678571Y3085714D01*
X49321428Y3600000D02*
X50035714Y3600000D01*
X49178571Y3085714D02*
X49678571Y4885714D01*
X50178571Y3085714D01*
X50964285Y3942857D02*
X50964285Y3085714D01*
X50464285Y4885714D02*
X50964285Y3942857D01*
X51464285Y4885714D01*
X51964285Y4028571D02*
X52464285Y4028571D01*
X52678571Y3085714D02*
X51964285Y3085714D01*
X51964285Y4885714D01*
X52678571Y4885714D01*
X54178571Y3085714D02*
X53678571Y3942857D01*
X53321428Y3085714D02*
X53321428Y4885714D01*
X53892857Y4885714D01*
X54035714Y4800000D01*
X54107142Y4714285D01*
X54178571Y4542857D01*
X54178571Y4285714D01*
X54107142Y4114285D01*
X54035714Y4028571D01*
X53892857Y3942857D01*
X53321428Y3942857D01*
X55892857Y3171428D02*
X56107142Y3085714D01*
X56464285Y3085714D01*
X56607142Y3171428D01*
X56678571Y3257142D01*
X56750000Y3428571D01*
X56750000Y3600000D01*
X56678571Y3771428D01*
X56607142Y3857142D01*
X56464285Y3942857D01*
X56178571Y4028571D01*
X56035714Y4114285D01*
X55964285Y4200000D01*
X55892857Y4371428D01*
X55892857Y4542857D01*
X55964285Y4714285D01*
X56035714Y4800000D01*
X56178571Y4885714D01*
X56535714Y4885714D01*
X56750000Y4800000D01*
X57392857Y3257142D02*
X57464285Y3171428D01*
X57392857Y3085714D01*
X57321428Y3171428D01*
X57392857Y3257142D01*
X57392857Y3085714D01*
X58035714Y3600000D02*
X58750000Y3600000D01*
X57892857Y3085714D02*
X58392857Y4885714D01*
X58892857Y3085714D01*
X59392857Y3257142D02*
X59464285Y3171428D01*
X59392857Y3085714D01*
X59321428Y3171428D01*
X59392857Y3257142D01*
X59392857Y3085714D01*
X126171428Y4195238D02*
X126671428Y2195238D01*
X127171428Y4195238D01*
X127600000Y4004761D02*
X127671428Y4100000D01*
X127814285Y4195238D01*
X128171428Y4195238D01*
X128314285Y4100000D01*
X128385714Y4004761D01*
X128457142Y3814285D01*
X128457142Y3623809D01*
X128385714Y3338095D01*
X127528571Y2195238D01*
X128457142Y2195238D01*
X129100000Y2385714D02*
X129171428Y2290476D01*
X129100000Y2195238D01*
X129028571Y2290476D01*
X129100000Y2385714D01*
X129100000Y2195238D01*
X130100000Y4195238D02*
X130242857Y4195238D01*
X130385714Y4100000D01*
X130457142Y4004761D01*
X130528571Y3814285D01*
X130600000Y3433333D01*
X130600000Y2957142D01*
X130528571Y2576190D01*
X130457142Y2385714D01*
X130385714Y2290476D01*
X130242857Y2195238D01*
X130100000Y2195238D01*
X129957142Y2290476D01*
X129885714Y2385714D01*
X129814285Y2576190D01*
X129742857Y2957142D01*
X129742857Y3433333D01*
X129814285Y3814285D01*
X129885714Y4004761D01*
X129957142Y4100000D01*
X130100000Y4195238D01*
X133171428Y2195238D02*
X132314285Y2195238D01*
X132742857Y2195238D02*
X132742857Y4195238D01*
X132600000Y3909523D01*
X132457142Y3719047D01*
X132314285Y3623809D01*
X134600000Y2195238D02*
X133742857Y2195238D01*
X134171428Y2195238D02*
X134171428Y4195238D01*
X134028571Y3909523D01*
X133885714Y3719047D01*
X133742857Y3623809D01*
X136314285Y4290476D02*
X135028571Y1719047D01*
X136742857Y4004761D02*
X136814285Y4100000D01*
X136957142Y4195238D01*
X137314285Y4195238D01*
X137457142Y4100000D01*
X137528571Y4004761D01*
X137600000Y3814285D01*
X137600000Y3623809D01*
X137528571Y3338095D01*
X136671428Y2195238D01*
X137600000Y2195238D01*
X138528571Y4195238D02*
X138671428Y4195238D01*
X138814285Y4100000D01*
X138885714Y4004761D01*
X138957142Y3814285D01*
X139028571Y3433333D01*
X139028571Y2957142D01*
X138957142Y2576190D01*
X138885714Y2385714D01*
X138814285Y2290476D01*
X138671428Y2195238D01*
X138528571Y2195238D01*
X138385714Y2290476D01*
X138314285Y2385714D01*
X138242857Y2576190D01*
X138171428Y2957142D01*
X138171428Y3433333D01*
X138242857Y3814285D01*
X138314285Y4004761D01*
X138385714Y4100000D01*
X138528571Y4195238D01*
X139600000Y4004761D02*
X139671428Y4100000D01*
X139814285Y4195238D01*
X140171428Y4195238D01*
X140314285Y4100000D01*
X140385714Y4004761D01*
X140457142Y3814285D01*
X140457142Y3623809D01*
X140385714Y3338095D01*
X139528571Y2195238D01*
X140457142Y2195238D01*
X141385714Y4195238D02*
X141528571Y4195238D01*
X141671428Y4100000D01*
X141742857Y4004761D01*
X141814285Y3814285D01*
X141885714Y3433333D01*
X141885714Y2957142D01*
X141814285Y2576190D01*
X141742857Y2385714D01*
X141671428Y2290476D01*
X141528571Y2195238D01*
X141385714Y2195238D01*
X141242857Y2290476D01*
X141171428Y2385714D01*
X141100000Y2576190D01*
X141028571Y2957142D01*
X141028571Y3433333D01*
X141100000Y3814285D01*
X141171428Y4004761D01*
X141242857Y4100000D01*
X141385714Y4195238D01*
X2066428Y7095238D02*
X1352142Y7095238D01*
X1352142Y9095238D01*
X2423571Y9095238D02*
X3352142Y9095238D01*
X2852142Y8333333D01*
X3066428Y8333333D01*
X3209285Y8238095D01*
X3280714Y8142857D01*
X3352142Y7952380D01*
X3352142Y7476190D01*
X3280714Y7285714D01*
X3209285Y7190476D01*
X3066428Y7095238D01*
X2637857Y7095238D01*
X2495000Y7190476D01*
X2423571Y7285714D01*
X3995000Y7095238D02*
X3995000Y9095238D01*
X4352142Y9095238D01*
X4566428Y9000000D01*
X4709285Y8809523D01*
X4780714Y8619047D01*
X4852142Y8238095D01*
X4852142Y7952380D01*
X4780714Y7571428D01*
X4709285Y7380952D01*
X4566428Y7190476D01*
X4352142Y7095238D01*
X3995000Y7095238D01*
X6566428Y9190476D02*
X5280714Y6619047D01*
X7709285Y8428571D02*
X7709285Y7095238D01*
X7352142Y9190476D02*
X6994999Y7761904D01*
X7923571Y7761904D01*
X9209285Y9095238D02*
X8495000Y9095238D01*
X8423571Y8142857D01*
X8495000Y8238095D01*
X8637857Y8333333D01*
X8995000Y8333333D01*
X9137857Y8238095D01*
X9209285Y8142857D01*
X9280714Y7952380D01*
X9280714Y7476190D01*
X9209285Y7285714D01*
X9137857Y7190476D01*
X8995000Y7095238D01*
X8637857Y7095238D01*
X8495000Y7190476D01*
X8423571Y7285714D01*
X2066428Y13095238D02*
X1352142Y13095238D01*
X1352142Y15095238D01*
X3352142Y13095238D02*
X2495000Y13095238D01*
X2923571Y13095238D02*
X2923571Y15095238D01*
X2780714Y14809523D01*
X2637857Y14619047D01*
X2495000Y14523809D01*
X3995000Y13095238D02*
X3995000Y15095238D01*
X4352142Y15095238D01*
X4566428Y15000000D01*
X4709285Y14809523D01*
X4780714Y14619047D01*
X4852142Y14238095D01*
X4852142Y13952380D01*
X4780714Y13571428D01*
X4709285Y13380952D01*
X4566428Y13190476D01*
X4352142Y13095238D01*
X3995000Y13095238D01*
X6566428Y15190476D02*
X5280714Y12619047D01*
X7709285Y14428571D02*
X7709285Y13095238D01*
X7352142Y15190476D02*
X6994999Y13761904D01*
X7923571Y13761904D01*
X9209285Y15095238D02*
X8495000Y15095238D01*
X8423571Y14142857D01*
X8495000Y14238095D01*
X8637857Y14333333D01*
X8995000Y14333333D01*
X9137857Y14238095D01*
X9209285Y14142857D01*
X9280714Y13952380D01*
X9280714Y13476190D01*
X9209285Y13285714D01*
X9137857Y13190476D01*
X8995000Y13095238D01*
X8637857Y13095238D01*
X8495000Y13190476D01*
X8423571Y13285714D01*
X2066428Y18595238D02*
X1352142Y18595238D01*
X1352142Y20595238D01*
X2423571Y20595238D02*
X3352142Y20595238D01*
X2852142Y19833333D01*
X3066428Y19833333D01*
X3209285Y19738095D01*
X3280714Y19642857D01*
X3352142Y19452380D01*
X3352142Y18976190D01*
X3280714Y18785714D01*
X3209285Y18690476D01*
X3066428Y18595238D01*
X2637857Y18595238D01*
X2495000Y18690476D01*
X2423571Y18785714D01*
X5066428Y20690476D02*
X3780714Y18119047D01*
X6280714Y20595238D02*
X5566428Y20595238D01*
X5494999Y19642857D01*
X5566428Y19738095D01*
X5709285Y19833333D01*
X6066428Y19833333D01*
X6209285Y19738095D01*
X6280714Y19642857D01*
X6352142Y19452380D01*
X6352142Y18976190D01*
X6280714Y18785714D01*
X6209285Y18690476D01*
X6066428Y18595238D01*
X5709285Y18595238D01*
X5566428Y18690476D01*
X5494999Y18785714D01*
X7280714Y20595238D02*
X7423571Y20595238D01*
X7566428Y20500000D01*
X7637857Y20404761D01*
X7709285Y20214285D01*
X7780714Y19833333D01*
X7780714Y19357142D01*
X7709285Y18976190D01*
X7637857Y18785714D01*
X7566428Y18690476D01*
X7423571Y18595238D01*
X7280714Y18595238D01*
X7137857Y18690476D01*
X7066428Y18785714D01*
X6994999Y18976190D01*
X6923571Y19357142D01*
X6923571Y19833333D01*
X6994999Y20214285D01*
X7066428Y20404761D01*
X7137857Y20500000D01*
X7280714Y20595238D01*
D11*
X2069548Y23095238D02*
X1355262Y23095238D01*
X1355262Y25095238D01*
X3355262Y23095238D02*
X2498120Y23095238D01*
X2926691Y23095238D02*
X2926691Y25095238D01*
X2783834Y24809523D01*
X2640977Y24619047D01*
X2498120Y24523809D01*
X5069548Y25190476D02*
X3783834Y22619047D01*
X6283834Y25095238D02*
X5569548Y25095238D01*
X5498119Y24142857D01*
X5569548Y24238095D01*
X5712405Y24333333D01*
X6069548Y24333333D01*
X6212405Y24238095D01*
X6283834Y24142857D01*
X6355262Y23952380D01*
X6355262Y23476190D01*
X6283834Y23285714D01*
X6212405Y23190476D01*
X6069548Y23095238D01*
X5712405Y23095238D01*
X5569548Y23190476D01*
X5498119Y23285714D01*
X7283834Y25095238D02*
X7426691Y25095238D01*
X7569548Y25000000D01*
X7640977Y24904761D01*
X7712405Y24714285D01*
X7783834Y24333333D01*
X7783834Y23857142D01*
X7712405Y23476190D01*
X7640977Y23285714D01*
X7569548Y23190476D01*
X7426691Y23095238D01*
X7283834Y23095238D01*
X7140977Y23190476D01*
X7069548Y23285714D01*
X6998119Y23476190D01*
X6926691Y23857142D01*
X6926691Y24333333D01*
X6998119Y24714285D01*
X7069548Y24904761D01*
X7140977Y25000000D01*
X7283834Y25095238D01*
D10*
X89935714Y2195238D02*
X89935714Y4195238D01*
X90650000Y2195238D02*
X90650000Y4195238D01*
X91507142Y2195238D01*
X91507142Y4195238D01*
X92007142Y4195238D02*
X92864285Y4195238D01*
X92435714Y2195238D02*
X92435714Y4195238D01*
X93364285Y2195238D02*
X93364285Y4195238D01*
X94078571Y2957142D02*
X95221428Y2957142D01*
X95935714Y2195238D02*
X95935714Y4195238D01*
X96435714Y2766666D01*
X96935714Y4195238D01*
X96935714Y2195238D01*
X97507142Y3528571D02*
X97864285Y2195238D01*
X98221428Y3528571D02*
X97864285Y2195238D01*
X97721428Y1719047D01*
X97650000Y1623809D01*
X97507142Y1528571D01*
X98792857Y2195238D02*
X98792857Y4195238D01*
X99650000Y2195238D01*
X99650000Y4195238D01*
X100150000Y4195238D02*
X101007142Y4195238D01*
X100578571Y2195238D02*
X100578571Y4195238D01*
X103507142Y2385714D02*
X103435714Y2290476D01*
X103221428Y2195238D01*
X103078571Y2195238D01*
X102864285Y2290476D01*
X102721428Y2480952D01*
X102650000Y2671428D01*
X102578571Y3052380D01*
X102578571Y3338095D01*
X102650000Y3719047D01*
X102721428Y3909523D01*
X102864285Y4100000D01*
X103078571Y4195238D01*
X103221428Y4195238D01*
X103435714Y4100000D01*
X103507142Y4004761D01*
X104150000Y4195238D02*
X104150000Y2576190D01*
X104221428Y2385714D01*
X104292857Y2290476D01*
X104435714Y2195238D01*
X104721428Y2195238D01*
X104864285Y2290476D01*
X104935714Y2385714D01*
X105007142Y2576190D01*
X105007142Y4195238D01*
X105721428Y2195238D02*
X105721428Y4195238D01*
X106292857Y4195238D01*
X106435714Y4100000D01*
X106507142Y4004761D01*
X106578571Y3814285D01*
X106578571Y3528571D01*
X106507142Y3338095D01*
X106435714Y3242857D01*
X106292857Y3147619D01*
X105721428Y3147619D01*
X107507142Y4195238D02*
X107792857Y4195238D01*
X107935714Y4100000D01*
X108078571Y3909523D01*
X108150000Y3528571D01*
X108150000Y2861904D01*
X108078571Y2480952D01*
X107935714Y2290476D01*
X107792857Y2195238D01*
X107507142Y2195238D01*
X107364285Y2290476D01*
X107221428Y2480952D01*
X107150000Y2861904D01*
X107150000Y3528571D01*
X107221428Y3909523D01*
X107364285Y4100000D01*
X107507142Y4195238D01*
X107792857Y4957142D02*
X107578571Y4671428D01*
X108792857Y2195238D02*
X108792857Y4195238D01*
X109650000Y2195238D01*
X109650000Y4195238D01*
X111507142Y2195238D02*
X111507142Y4195238D01*
X111864285Y4195238D01*
X112078571Y4100000D01*
X112221428Y3909523D01*
X112292857Y3719047D01*
X112364285Y3338095D01*
X112364285Y3052380D01*
X112292857Y2671428D01*
X112221428Y2480952D01*
X112078571Y2290476D01*
X111864285Y2195238D01*
X111507142Y2195238D01*
X113007142Y3242857D02*
X113507142Y3242857D01*
X113721428Y2195238D02*
X113007142Y2195238D01*
X113007142Y4195238D01*
X113721428Y4195238D01*
X115292857Y4195238D02*
X116150000Y4195238D01*
X115721428Y2195238D02*
X115721428Y4195238D01*
X116650000Y3242857D02*
X117150000Y3242857D01*
X117364285Y2195238D02*
X116650000Y2195238D01*
X116650000Y4195238D01*
X117364285Y4195238D01*
X117935714Y2290476D02*
X118150000Y2195238D01*
X118507142Y2195238D01*
X118650000Y2290476D01*
X118721428Y2385714D01*
X118792857Y2576190D01*
X118792857Y2766666D01*
X118721428Y2957142D01*
X118650000Y3052380D01*
X118507142Y3147619D01*
X118221428Y3242857D01*
X118078571Y3338095D01*
X118007142Y3433333D01*
X117935714Y3623809D01*
X117935714Y3814285D01*
X118007142Y4004761D01*
X118078571Y4100000D01*
X118221428Y4195238D01*
X118578571Y4195238D01*
X118792857Y4100000D01*
X119221428Y4195238D02*
X120078571Y4195238D01*
X119650000Y2195238D02*
X119650000Y4195238D01*
X29428571Y1595238D02*
X28571428Y1595238D01*
X29000000Y1595238D02*
X29000000Y3595238D01*
X28857142Y3309523D01*
X28714285Y3119047D01*
X28571428Y3023809D01*
D12*
X14700000Y7100000D03*
D13*
X12900000Y7100000D03*
X12900000Y8900000D03*
D12*
X14700000Y8900000D03*
X14700000Y13100000D03*
D13*
X12900000Y13100000D03*
X12900000Y14900000D03*
D12*
X14700000Y14900000D03*
D13*
X12900000Y24000000D03*
D12*
X14700000Y24000000D03*
X14700000Y19500000D03*
D13*
X12900000Y19500000D03*
D14*
X4300000Y3900000D03*
X4300000Y1900000D03*
X8300000Y3900000D03*
X8300000Y1900000D03*
X12300000Y3900000D03*
X12300000Y1900000D03*
X16300000Y3900000D03*
X20300000Y1900000D03*
X20300000Y3900000D03*
X16300000Y1900000D03*
X24300000Y3900000D03*
X24300000Y1900000D03*
X66200000Y3900000D03*
X66200000Y1900000D03*
X70200000Y3900000D03*
X74200000Y1900000D03*
X74200000Y3900000D03*
X70200000Y1900000D03*
X86200000Y1900000D03*
X82200000Y3900000D03*
X82200000Y1900000D03*
X78200000Y3900000D03*
X78200000Y1900000D03*
X86200000Y3900000D03*
X157700000Y1900000D03*
X145700000Y1900000D03*
X149700000Y1900000D03*
X149700000Y3900000D03*
X161700000Y1900000D03*
X161700000Y3900000D03*
X157700000Y3900000D03*
X145700000Y3900000D03*
X153700000Y3900000D03*
X153700000Y1900000D03*
D15*
X14700000Y24000000D02*
X164700000Y24000000D01*
D16*
X14700000Y14900000D02*
X15375000Y14225000D01*
X15375000Y14225000D02*
X164500000Y14225000D01*
X14700000Y13100000D02*
X15375000Y13775000D01*
X15375000Y13775000D02*
X164500000Y13775000D01*
D17*
X41373000Y1127000D02*
X36627000Y1127000D01*
X36627000Y1873000D01*
X41373000Y1873000D01*
X41373000Y1127000D01*
G04 #@! TA.AperFunction,NonConductor*
D18*
G36*
X41373000Y1127000D02*
G01*
X36627000Y1127000D01*
X36627000Y1873000D01*
X41373000Y1873000D01*
X41373000Y1127000D01*
G37*
G04 #@! TD.AperFunction*
D17*
X46873000Y1127000D02*
X42127000Y1127000D01*
X42127000Y1873000D01*
X46873000Y1873000D01*
X46873000Y1127000D01*
G04 #@! TA.AperFunction,NonConductor*
D18*
G36*
X46873000Y1127000D02*
G01*
X42127000Y1127000D01*
X42127000Y1873000D01*
X46873000Y1873000D01*
X46873000Y1127000D01*
G37*
G04 #@! TD.AperFunction*
D17*
X164873000Y17127000D02*
X17927000Y17127000D01*
X17927000Y21873000D01*
X164873000Y21873000D01*
X164873000Y17127000D01*
G04 #@! TA.AperFunction,NonConductor*
D18*
G36*
X164873000Y17127000D02*
G01*
X17927000Y17127000D01*
X17927000Y21873000D01*
X164873000Y21873000D01*
X164873000Y17127000D01*
G37*
G04 #@! TD.AperFunction*
D17*
X164873000Y5627000D02*
X17927000Y5627000D01*
X17927000Y10373000D01*
X164873000Y10373000D01*
X164873000Y5627000D01*
G04 #@! TA.AperFunction,NonConductor*
D18*
G36*
X164873000Y5627000D02*
G01*
X17927000Y5627000D01*
X17927000Y10373000D01*
X164873000Y10373000D01*
X164873000Y5627000D01*
G37*
G04 #@! TD.AperFunction*
M02*
